<?xml version="1.0" encoding="UTF-8" standalone="no"?>
<!-- Created with Inkscape (http://www.inkscape.org/) -->

<svg
   xmlns:ns0="http://www.iki.fi/pav/software/textext/"
   xmlns:osb="http://www.openswatchbook.org/uri/2009/osb"
   xmlns:dc="http://purl.org/dc/elements/1.1/"
   xmlns:cc="http://creativecommons.org/ns#"
   xmlns:rdf="http://www.w3.org/1999/02/22-rdf-syntax-ns#"
   xmlns:svg="http://www.w3.org/2000/svg"
   xmlns="http://www.w3.org/2000/svg"
   xmlns:xlink="http://www.w3.org/1999/xlink"
   xmlns:sodipodi="http://sodipodi.sourceforge.net/DTD/sodipodi-0.dtd"
   xmlns:inkscape="http://www.inkscape.org/namespaces/inkscape"
   style="enable-background:new"
   inkscape:export-ydpi="600"
   inkscape:export-xdpi="600"
   inkscape:export-filename="/home/mgraube/Dokumente/workingCopies/r43ples/doc/set theory/simple/R43ples-Set-6.png"
   sodipodi:docname="R43ples-Set.svg"
   inkscape:version="0.91 r"
   version="1.1"
   id="svg2"
   height="144.99464"
   width="214.0834">
  <sodipodi:namedview
     id="base"
     pagecolor="#ffffff"
     bordercolor="#666666"
     borderopacity="1.0"
     inkscape:pageopacity="0.0"
     inkscape:pageshadow="2"
     inkscape:zoom="6.0350311"
     inkscape:cx="41.921906"
     inkscape:cy="56.2771"
     inkscape:document-units="px"
     inkscape:current-layer="layer9"
     showgrid="false"
     inkscape:window-width="1920"
     inkscape:window-height="1180"
     inkscape:window-x="1918"
     inkscape:window-y="-3"
     inkscape:window-maximized="1"
     fit-margin-top="5"
     fit-margin-left="5"
     fit-margin-right="5"
     fit-margin-bottom="5" />
  <defs
     id="defs4">
    <marker
       style="overflow:visible"
       id="Arrow1Lstart"
       refX="0"
       refY="0"
       orient="auto"
       inkscape:stockid="Arrow1Lstart">
      <path
         inkscape:connector-curvature="0"
         transform="matrix(0.8,0,0,0.8,10,0)"
         style="fill-rule:evenodd;stroke:#000000;stroke-width:1pt"
         d="M 0,0 5,-5 -12.5,0 5,5 0,0 z"
         id="path22707" />
    </marker>
    <pattern
       patternTransform="matrix(0.1311584,-0.16875234,5.2828643,0.37289424,117.81245,72.639613)"
       id="pattern5753"
       xlink:href="#pattern5560"
       inkscape:collect="always" />
    <pattern
       patternTransform="matrix(0.23704654,-0.31517096,6.7356747,5.0660389,150.26706,115.05804)"
       id="pattern5560"
       xlink:href="#Strips1_8"
       inkscape:collect="always" />
    <pattern
       patternTransform="matrix(0.31867185,0.28596628,-6.6602774,7.4220043,85.19325,109.39945)"
       id="pattern5542"
       xlink:href="#Strips1_8"
       inkscape:collect="always" />
    <pattern
       inkscape:collect="always"
       patternUnits="userSpaceOnUse"
       width="9"
       height="1"
       patternTransform="translate(0,0) scale(10,10)"
       id="Strips1_8"
       inkscape:stockid="Stripes 1:8">
      <rect
         style="fill:black;stroke:none"
         x="0"
         y="-0.5"
         width="1"
         height="2"
         id="rect4579" />
    </pattern>
    <linearGradient
       osb:paint="solid"
       id="linearGradient5410">
      <stop
         id="stop5412"
         offset="0"
         style="stop-color:#54a31f;stop-opacity:1;" />
    </linearGradient>
    <pattern
       inkscape:collect="always"
       patternUnits="userSpaceOnUse"
       width="2"
       height="1"
       patternTransform="translate(0,0) scale(10,10)"
       id="Strips1_1"
       inkscape:stockid="Stripes 1:1">
      <rect
         style="fill:black;stroke:none"
         x="0"
         y="-0.5"
         width="1"
         height="2"
         id="rect4478" />
    </pattern>
    <pattern
       id="pattern5213"
       patternTransform="translate(147.56744,234.17804)"
       height="183.52415"
       width="256.31208"
       patternUnits="userSpaceOnUse">
      <path
         transform="translate(-147.56744,-234.17804)"
         sodipodi:type="arc"
         style="fill:url(#Strips1_1);fill-opacity:1;stroke:#ff0000;stroke-width:2;stroke-miterlimit:4;stroke-dasharray:none"
         id="path2985"
         sodipodi:cx="275.71429"
         sodipodi:cy="325.93362"
         sodipodi:rx="127.14286"
         sodipodi:ry="90.714287"
         d="m 222.78035,243.45515 a 127.14286,90.714287 0 1 1 -32.33249,15.18774 l 85.26643,67.29073 z"
         sodipodi:start="4.282979"
         sodipodi:end="10.26051" />
    </pattern>
  </defs>
  <metadata
     id="metadata7">
    <rdf:RDF>
      <cc:Work
         rdf:about="">
        <dc:format>image/svg+xml</dc:format>
        <dc:type
           rdf:resource="http://purl.org/dc/dcmitype/StillImage" />
        <dc:title />
      </cc:Work>
    </rdf:RDF>
  </metadata>
  <g
     transform="translate(2.1484375e-6,-19.011444)"
     style="display:none"
     inkscape:label="Delete_simple"
     id="layer4"
     inkscape:groupmode="layer">
    <path
       sodipodi:nodetypes="sscccccccccccssccscccs"
       inkscape:connector-curvature="0"
       id="path23345"
       d="m 72.3125,43.724609 c -2.14799,0 -4.252108,0.153181 -6.337891,0.410157 -0.831014,0.102379 -1.676765,0.237981 -2.490234,0.378906 l -0.002,0 c -0.11871,0.02067 -0.20527,0.04278 -0.314453,0.0625 -0.0105,0.0022 -0.02093,0.0048 -0.03125,0.0078 -0.580089,0.07708 -1.206046,0.225504 -1.740235,0.341809 -0.240847,0.05161 -0.50064,0.108195 -0.71875,0.156203 l 0,-0.002 c -0.212019,0.04905 -0.316899,0.05903 -0.484375,0.0918 0.01556,0.04613 -0.07066,0.02217 -0.09957,0.03124 -0.166064,0.03456 -0.160235,0.06418 -0.173828,0.07227 0.0096,-0.0045 0.02082,-0.0039 0.03124,-0.0059 -22.363396,5.536433 -38.976542,25.704103 -38.976542,49.793066 0,28.3568 22.981092,51.33789 51.337891,51.33789 11.921613,0 22.798379,-4.19524 31.503907,-11.00586 0.22462,-0.17663 0.23673,-0.51274 0.0254,-0.70508 C 93.071596,124.86437 86.244141,110.7829 86.244141,95.0625 c 0,-1.840889 0.09826,-3.64431 0.277343,-5.421875 1.360042,-13.549627 7.851397,-25.520905 17.382816,-34.205078 0.21133,-0.192338 0.19922,-0.528445 -0.0254,-0.705078 C 95.169045,47.90676 84.248715,43.724609 72.3125,43.724609 Z"
       style="display:inline;fill:#65aac7;fill-opacity:0.39215686;stroke:#408fb0;stroke-width:2;stroke-linecap:butt;stroke-linejoin:bevel;stroke-miterlimit:4;stroke-dasharray:none;stroke-opacity:1;enable-background:new" />
    <text
       sodipodi:linespacing="125%"
       id="text7898-6-8-6"
       y="97.193588"
       x="3.4159999"
       style="font-style:normal;font-variant:normal;font-weight:normal;font-stretch:normal;font-size:18px;line-height:125%;font-family:'Univers 55';-inkscape-font-specification:'Univers 55,';text-align:start;letter-spacing:0px;word-spacing:0px;writing-mode:lr-tb;text-anchor:start;display:inline;fill:#408fb0;fill-opacity:1;stroke:none;enable-background:new"
       xml:space="preserve"><tspan
         y="97.193588"
         x="3.4159999"
         id="tspan7900-3-8-4"
         sodipodi:role="line">D</tspan></text>
  </g>
  <g
     sodipodi:insensitive="true"
     transform="translate(2.1484375e-6,-19.011444)"
     style="display:none"
     inkscape:groupmode="layer"
     id="g5623"
     inkscape:label="Add_simple">
    <path
       d="m 139.96875,43.933594 c -11.99479,0 -22.94929,4.223944 -31.66602,11.136718 9.69029,8.73009 16.28024,20.830259 17.65625,34.539063 a 1.4032534,1.4032534 0 0 1 -0.0117,0.361328 c 0.15795,1.669313 0.26757,3.367381 0.26757,5.091797 0,15.88917 -6.90897,30.13608 -17.85156,40.00586 8.71364,6.89905 19.62709,11.12305 31.60547,11.12305 28.25197,0 51.12891,-22.87694 51.12891,-51.12891 0,-23.989271 -16.51637,-44.082739 -38.7793,-49.607422 a 1.4032534,1.4032534 0 0 1 -0.17578,-0.05859 c -3.90111,-0.953134 -7.97418,-1.46289 -12.17383,-1.46289 z"
       id="path23347"
       style="display:inline;fill:#b77132;fill-opacity:0.36078431;stroke:#6e441e;stroke-width:2;stroke-linejoin:bevel;stroke-miterlimit:4;stroke-dasharray:none;stroke-opacity:1;enable-background:new"
       inkscape:original="M 139.96875 42.53125 C 127.08993 42.53125 115.28994 47.18224 106.15625 54.875 C 116.31575 63.4396 123.16111 75.78842 124.5625 89.75 C 124.5525 89.752 124.54125 89.748 124.53125 89.75 C 124.70593 91.49484 124.8125 93.27136 124.8125 95.0625 C 124.8125 111.17398 117.57598 125.58319 106.15625 135.21875 C 115.29715 142.92465 127.07832 147.59375 139.96875 147.59375 C 168.97913 147.59375 192.5 124.07288 192.5 95.0625 C 192.5 70.42898 175.53402 49.77101 152.65625 44.09375 C 152.64625 44.08245 152.6346 44.0738 152.625 44.0625 C 148.57113 43.0596 144.33254 42.53125 139.96875 42.53125 z "
       inkscape:radius="-1.4031131"
       sodipodi:type="inkscape:offset" />
    <text
       sodipodi:linespacing="125%"
       id="text7898-6-8-1-5"
       y="97.193588"
       x="196.26741"
       style="font-style:normal;font-variant:normal;font-weight:normal;font-stretch:normal;font-size:18px;line-height:125%;font-family:'Univers 55';-inkscape-font-specification:'Univers 55,';text-align:start;letter-spacing:0px;word-spacing:0px;writing-mode:lr-tb;text-anchor:start;display:inline;opacity:0.92000002;fill:#6e441e;fill-opacity:1;stroke:none;enable-background:new"
       xml:space="preserve"><tspan
         y="97.193588"
         x="196.26741"
         id="tspan7900-3-8-2-3"
         sodipodi:role="line">A</tspan></text>
  </g>
  <g
     transform="translate(-97.420548,-256.78872)"
     style="display:none"
     inkscape:label="D"
     id="layer8"
     inkscape:groupmode="layer">
    <path
       d="m 203.53125,265.67969 c -19.87561,0 -37.04066,7.02993 -45.49023,16.96875 a 1.2432837,1.2432837 0 0 1 -0.0859,0.0918 1.2432837,1.2432837 0 0 1 -0.008,0.008 1.2432837,1.2432837 0 0 1 -0.58594,0.33398 c -22.34862,5.53267 -38.93164,25.68871 -38.93164,49.76172 0,28.33843 22.95063,51.28906 51.28906,51.28906 12.11375,0 23.1658,-4.28129 31.93945,-11.30078 -4.59895,-4.10825 -8.58815,-8.90221 -11.5625,-14.36133 -0.46498,-0.85341 -0.8999,-1.72628 -1.3125,-2.59179 -3.32852,-6.98241 -5.18164,-14.78891 -5.18164,-23.03516 0,-0.90917 0.0124,-1.83717 0.0625,-2.75586 0.0501,-0.91881 0.13624,-1.8045 0.22461,-2.68164 a 1.2432837,1.2432837 0 0 1 1.51758,-1.08594 c 0.21229,0.0493 0.32085,0.0879 0.33789,0.0918 0.6262,0.14248 1.26472,0.26636 1.93555,0.40039 0.54903,0.10941 1.14028,0.19912 1.7539,0.30664 0.17121,0.0301 0.35595,0.0587 0.55274,0.0918 0.2923,0.0491 0.49377,0.10367 0.61523,0.12304 a 1.2432837,1.2432837 0 0 1 0.002,0.002 c -0.0231,-0.004 0.0703,-0.003 0.27539,0.0293 0.62413,0.0973 1.2235,0.19932 1.81445,0.27735 0.32806,0.0433 0.67885,0.0794 1.04687,0.12304 0.27001,0.0321 0.55869,0.0591 0.86133,0.0918 0.38883,0.0419 0.7359,0.0937 1.04688,0.12305 0.2352,0.0224 0.51673,0.0357 0.83203,0.0625 0.61897,0.0523 1.19778,0.1193 1.75391,0.1543 0.39354,0.0249 0.80752,0.0401 1.23242,0.0605 0.47757,0.023 0.95357,0.048 1.41601,0.0625 0.87033,0.0274 1.74575,0.0312 2.64844,0.0312 1.37332,0 2.72445,-0.0292 4.06445,-0.0937 0.24099,-0.0117 0.47139,-0.0177 0.67774,-0.0293 1.3858,-0.078 2.77022,-0.22221 4.15625,-0.3711 0.32023,-0.0344 0.6204,-0.0596 0.89258,-0.0918 0.37117,-0.0441 0.71629,-0.0794 1.04687,-0.12304 0.67258,-0.0888 1.32616,-0.17597 1.96875,-0.27735 0.004,-6.8e-4 0.1076,-0.0283 0.30664,-0.0605 0.48734,-0.0789 0.97011,-0.15991 1.44531,-0.2461 0.43791,-0.0794 0.85788,-0.15966 1.29102,-0.24609 a 1.2432837,1.2432837 0 0 1 0.002,0 c 0.19861,-0.0395 0.36105,-0.0653 0.49024,-0.0918 0.60307,-0.12451 1.21741,-0.26158 1.81445,-0.40039 9.79158,-2.27515 18.13583,-6.34166 23.97461,-11.4707 5.83878,-5.12904 9.1582,-11.25529 9.1582,-17.81836 0,-5.10446 -2.00858,-9.9374 -5.64648,-14.25977 a 1.2432837,1.2432837 0 0 1 -0.1211,-0.12109 c -8.4584,-9.9388 -25.64587,-16.9707 -45.52148,-16.9707 z"
       id="path23349"
       style="fill:#65aac7;fill-opacity:0.39215686;stroke:#408fb0;stroke-width:2;stroke-linecap:round;stroke-linejoin:bevel;stroke-miterlimit:4;stroke-dasharray:none;stroke-dashoffset:18;stroke-opacity:1;marker-start:none"
       inkscape:original="M 203.53125 264.4375 C 183.36545 264.4375 165.88891 271.49844 157.09375 281.84375 C 157.08375 281.84575 157.0723 281.84175 157.0625 281.84375 C 157.0575 281.84975 157.0675 281.8688 157.0625 281.875 C 134.1691 287.54254 117.1875 308.19965 117.1875 332.84375 C 117.1875 361.85413 140.70837 385.375 169.71875 385.375 C 182.61765 385.375 194.41983 380.71426 203.5625 373 C 198.56183 368.78442 194.33922 363.65966 191.1875 357.875 C 190.73725 357.04862 190.31262 356.1962 189.90625 355.34375 C 186.65533 348.52413 184.84375 340.90372 184.84375 332.84375 C 184.84375 331.94771 184.85795 331.04219 184.90625 330.15625 C 184.95455 329.27031 185.03708 328.40395 185.125 327.53125 C 185.24163 327.55835 185.35173 327.5985 185.46875 327.625 C 186.12287 327.77383 186.77214 327.8983 187.4375 328.03125 C 188.02405 328.14814 188.62338 328.23943 189.21875 328.34375 C 189.40542 328.37655 189.59377 328.406 189.78125 328.4375 C 189.99084 328.4727 190.19562 328.5289 190.40625 328.5625 C 190.49905 328.5774 190.59453 328.57925 190.6875 328.59375 C 191.30028 328.68925 191.9101 328.79299 192.53125 328.875 C 192.88346 328.9215 193.23896 328.9579 193.59375 329 C 193.88375 329.0345 194.17707 329.06225 194.46875 329.09375 C 194.82279 329.13195 195.1748 329.18505 195.53125 329.21875 C 195.81004 329.24525 196.09475 329.25745 196.375 329.28125 C 196.96812 329.33135 197.55698 329.39979 198.15625 329.4375 C 198.57031 329.4637 198.98926 329.4799 199.40625 329.5 C 199.88155 329.5229 200.36497 329.5475 200.84375 329.5625 C 201.73705 329.5906 202.62568 329.59375 203.53125 329.59375 C 204.92135 329.59375 206.29329 329.5656 207.65625 329.5 C 207.88361 329.489 208.11721 329.48145 208.34375 329.46875 C 209.76803 329.38855 211.17331 329.24298 212.5625 329.09375 C 212.86414 329.06135 213.16889 329.0355 213.46875 329 C 213.82624 328.9575 214.17638 328.9219 214.53125 328.875 C 215.20405 328.7862 215.86825 328.69835 216.53125 328.59375 C 216.63477 328.57745 216.74048 328.54795 216.84375 328.53125 C 217.33567 328.45165 217.82631 328.36943 218.3125 328.28125 C 218.75741 328.20055 219.18508 328.11903 219.625 328.03125 C 219.79243 327.99795 219.9583 327.9718 220.125 327.9375 C 220.74051 327.81042 221.36362 327.67194 221.96875 327.53125 C 241.88308 322.90399 256.0625 310.99873 256.0625 297.03125 C 256.0625 291.55057 253.88624 286.37624 250.03125 281.84375 C 250.02125 281.84175 250.0098 281.84575 250 281.84375 C 241.19563 271.49844 223.69705 264.4375 203.53125 264.4375 z "
       inkscape:radius="-1.2431594"
       sodipodi:type="inkscape:offset" />
    <text
       sodipodi:linespacing="125%"
       id="text7898-6-8"
       y="334.97086"
       x="100.83655"
       style="font-style:normal;font-variant:normal;font-weight:normal;font-stretch:normal;font-size:18px;line-height:125%;font-family:'Univers 55';-inkscape-font-specification:'Univers 55,';text-align:start;letter-spacing:0px;word-spacing:0px;writing-mode:lr-tb;text-anchor:start;display:inline;fill:#408fb0;fill-opacity:1;stroke:none;enable-background:new"
       xml:space="preserve"><tspan
         y="334.97086"
         x="100.83655"
         id="tspan7900-3-8"
         sodipodi:role="line">D</tspan></text>
  </g>
  <g
     transform="translate(-97.420548,-256.78872)"
     style="display:none;opacity:0.92000002"
     inkscape:label="A"
     id="layer7"
     inkscape:groupmode="layer">
    <path
       d="m 203.53125,263.71289 c -20.23277,0 -37.79972,7.01374 -46.83789,17.50781 a 0.72559161,0.72559161 0 0 0 -0.18359,0.15235 c -3.95044,4.6402 -6.20313,9.9815 -6.20313,15.6582 0,7.23248 3.67492,13.90209 9.82227,19.30273 6.14734,5.40065 14.77458,9.57072 24.83203,11.9043 0.0608,0.0141 0.17228,0.054 0.34765,0.0937 0.67007,0.15246 1.32458,0.27793 1.98633,0.41016 0.60845,0.12125 1.21411,0.21395 1.79883,0.3164 0.19569,0.0344 0.38436,0.0632 0.56641,0.0937 0.16132,0.0271 0.36818,0.0851 0.63086,0.12696 0.16042,0.0258 0.25763,0.0269 0.28515,0.0312 0.60616,0.0945 1.2206,0.19886 1.85938,0.2832 0.3663,0.0484 0.72519,0.0858 1.07226,0.12695 0.30167,0.0359 0.59753,0.0629 0.88281,0.0937 0.33375,0.036 0.68928,0.0907 1.07227,0.12696 0.30423,0.0289 0.59177,0.0404 0.85156,0.0625 0.57804,0.0488 1.17243,0.1189 1.79688,0.1582 0.42603,0.027 0.84739,0.0426 1.25976,0.0625 0.47398,0.0228 0.96091,0.0472 1.44922,0.0625 0.90671,0.0285 1.80369,0.0312 2.71094,0.0312 1.39989,0 2.7838,-0.0275 4.16016,-0.0937 0.2194,-0.0106 0.45503,-0.0179 0.69336,-0.0312 1.44673,-0.0815 2.86482,-0.22948 4.25585,-0.37891 0.29079,-0.0312 0.59805,-0.0563 0.91407,-0.0937 0.3495,-0.0416 0.70322,-0.0782 1.07226,-0.12695 0.67293,-0.0888 1.34267,-0.17672 2.01758,-0.2832 0.16142,-0.0254 0.26708,-0.0548 0.31445,-0.0625 0.4946,-0.08 0.98982,-0.16261 1.48243,-0.25196 0.44836,-0.0813 0.881,-0.16548 1.32421,-0.2539 0.14879,-0.0296 0.31741,-0.055 0.50586,-0.0937 0.33311,-0.0688 0.65722,-0.14582 0.98633,-0.22071 0.12682,1.46085 0.23633,2.93084 0.23633,4.41602 0,15.89423 -7.13767,30.09848 -18.40039,39.60156 a 0.72559161,0.72559161 0 0 0 0.002,1.10938 c 9.26536,7.81082 21.21367,12.54492 34.2793,12.54492 29.40253,0 53.25586,-23.85333 53.25586,-53.25586 0,-24.90758 -17.11998,-45.81276 -40.23242,-51.62695 -9.04845,-10.49243 -26.63633,-17.50391 -46.86719,-17.50391 z"
       id="path23351"
       style="display:inline;fill:#c78c65;fill-opacity:0.39215686;stroke:#b06d40;stroke-width:2;stroke-linecap:round;stroke-linejoin:round;stroke-miterlimit:0;stroke-dasharray:none;stroke-dashoffset:0;stroke-opacity:1"
       inkscape:original="M 203.53125 264.4375 C 183.36545 264.4375 165.88891 271.49844 157.09375 281.84375 C 157.08375 281.84575 157.0723 281.84175 157.0625 281.84375 C 153.2014 286.37902 151.03125 291.54591 151.03125 297.03125 C 151.03125 311.00569 165.20344 322.90894 185.125 327.53125 C 185.24163 327.55835 185.35173 327.5985 185.46875 327.625 C 186.12287 327.77383 186.77214 327.8983 187.4375 328.03125 C 188.02405 328.14814 188.62338 328.23943 189.21875 328.34375 C 189.40542 328.37655 189.59377 328.406 189.78125 328.4375 C 189.99084 328.4727 190.19562 328.5289 190.40625 328.5625 C 190.49905 328.5774 190.59453 328.57925 190.6875 328.59375 C 191.30028 328.68925 191.9101 328.79299 192.53125 328.875 C 192.88346 328.9215 193.23896 328.9579 193.59375 329 C 193.88375 329.0345 194.17707 329.06225 194.46875 329.09375 C 194.82279 329.13195 195.1748 329.18505 195.53125 329.21875 C 195.81004 329.24525 196.09475 329.25745 196.375 329.28125 C 196.96812 329.33135 197.55698 329.39979 198.15625 329.4375 C 198.57031 329.4637 198.98926 329.4799 199.40625 329.5 C 199.88155 329.5229 200.36497 329.5475 200.84375 329.5625 C 201.73705 329.5906 202.62568 329.59375 203.53125 329.59375 C 204.92135 329.59375 206.29329 329.5656 207.65625 329.5 C 207.88361 329.489 208.11721 329.48145 208.34375 329.46875 C 209.76803 329.38855 211.17331 329.24298 212.5625 329.09375 C 212.86414 329.06135 213.16889 329.0355 213.46875 329 C 213.82624 328.9575 214.17638 328.9219 214.53125 328.875 C 215.20405 328.7862 215.86825 328.69835 216.53125 328.59375 C 216.63477 328.57745 216.74048 328.54795 216.84375 328.53125 C 217.33567 328.45165 217.82631 328.36943 218.3125 328.28125 C 218.75741 328.20055 219.18508 328.11903 219.625 328.03125 C 219.79243 327.99795 219.9583 327.9718 220.125 327.9375 C 220.73056 327.81247 221.34159 327.66959 221.9375 327.53125 C 222.11218 329.27609 222.21875 331.05261 222.21875 332.84375 C 222.21875 348.95523 214.98223 363.36444 203.5625 373 C 212.7034 380.7059 224.48457 385.375 237.375 385.375 C 266.38538 385.375 289.90625 361.85413 289.90625 332.84375 C 289.90625 308.21023 272.94027 287.55226 250.0625 281.875 C 250.0525 281.8637 250.04085 281.85505 250.03125 281.84375 C 250.02125 281.84175 250.0098 281.84575 250 281.84375 C 241.19563 271.49844 223.69705 264.4375 203.53125 264.4375 z "
       inkscape:radius="0.72551906"
       sodipodi:type="inkscape:offset" />
    <text
       sodipodi:linespacing="125%"
       id="text7898-6-8-1"
       y="334.97086"
       x="293.68796"
       style="font-style:normal;font-variant:normal;font-weight:normal;font-stretch:normal;font-size:18px;line-height:125%;font-family:'Univers 55';-inkscape-font-specification:'Univers 55,';text-align:start;letter-spacing:0px;word-spacing:0px;writing-mode:lr-tb;text-anchor:start;display:inline;fill:#b06d40;fill-opacity:1;stroke:none;enable-background:new"
       xml:space="preserve"><tspan
         y="334.97086"
         x="293.68796"
         id="tspan7900-3-8-2"
         sodipodi:role="line">A</tspan></text>
  </g>
  <g
     style="display:inline"
     inkscape:label="R*b"
     id="layer9"
     inkscape:groupmode="layer">
    <path
       sodipodi:type="inkscape:offset"
       inkscape:radius="0"
       inkscape:original="M 89.488281 73.183594 C 88.650732 88.052971 94.900958 104.24388 106.33789 113.38281 C 117.39167 103.36591 123.91362 87.935829 122.625 73.197266 C 111.71177 75.246626 100.38894 75.391638 89.488281 73.183594 z "
       xlink:href="#path7725-5"
       style="display:inline;opacity:0.5;fill:#ffaaaa;stroke:#8f253c;stroke-width:3;stroke-miterlimit:4;stroke-dasharray:none;stroke-opacity:1;enable-background:new"
       id="path4291"
       inkscape:href="#path7725-5"
       d="m 124.53906,70.722656 c -0.7801,0.184094 -1.5582,0.359271 -2.33398,0.519532 -11.28554,2.123327 -23.272133,2.154454 -34.541018,-0.50586 -1.708973,16.9414 5.231684,34.600582 18.478518,45.474612 8.28398,-6.96295 14.33719,-16.543779 17.00781,-27.035159 1.61531,-6.02289 2.03988,-12.293817 1.38867,-18.453125 z" />
    <path
       style="display:inline;opacity:0.5;fill:#ffaaaa;stroke:#8f253c;stroke-width:3;stroke-miterlimit:4;stroke-dasharray:none;stroke-opacity:1;enable-background:new"
       d="m 122.625,73.197266 c -10.91323,2.04936 -22.23606,2.194374 -33.136719,-0.01367 -0.837549,14.869377 5.412676,31.060286 16.849609,40.199216 11.05378,-10.0169 17.57573,-25.446981 16.28711,-40.185544 z"
       id="path7725-5"
       inkscape:connector-curvature="0" />
    <text
       sodipodi:linespacing="125%"
       id="text7898-0-7"
       y="94.288399"
       x="96.327415"
       style="font-style:normal;font-variant:normal;font-weight:normal;font-stretch:normal;font-size:18px;line-height:125%;font-family:'Univers 55';-inkscape-font-specification:'Univers 55,';text-align:start;letter-spacing:0px;word-spacing:0px;writing-mode:lr-tb;text-anchor:start;display:inline;fill:#8f253c;fill-opacity:1;stroke:none;enable-background:new"
       xml:space="preserve"><tspan
         y="94.288399"
         x="96.327415"
         id="tspan7900-4-4"
         sodipodi:role="line">R<tspan
   id="tspan5170"
   style="font-size:64.99999762%;baseline-shift:super">*</tspan><tspan
   dx="-6"
   id="tspan6500-3"
   style="font-size:65.00091553%;letter-spacing:-1.86000001px;baseline-shift:sub">b</tspan></tspan></text>
  </g>
  <g
     style="display:inline"
     inkscape:label="D*"
     id="layer3"
     inkscape:groupmode="layer">
    <text
       sodipodi:linespacing="125%"
       id="text7898-6-8-9"
       y="89.982201"
       x="48.541351"
       style="font-style:normal;font-variant:normal;font-weight:normal;font-stretch:normal;font-size:18px;line-height:125%;font-family:'Univers 55';-inkscape-font-specification:'Univers 55,';text-align:start;letter-spacing:0px;word-spacing:0px;writing-mode:lr-tb;text-anchor:start;display:inline;fill:#408fb0;fill-opacity:1;stroke:none;enable-background:new"
       xml:space="preserve"><tspan
         y="89.982201"
         x="48.541351"
         id="tspan7900-3-8-0"
         sodipodi:role="line">D<tspan
   id="tspan5087"
   style="font-size:64.99999762%;baseline-shift:super">*</tspan></tspan></text>
    <path
       sodipodi:nodetypes="cscccccccssccccccssc"
       inkscape:connector-curvature="0"
       id="path7725-8"
       d="m 72.298828,23.523438 c -2.19873,0 -4.36646,0.14339 -6.5,0.40625 -0.84726,0.104379 -1.69512,0.230149 -2.53125,0.375 -0.11431,0.0199 -0.22968,0.0419 -0.34375,0.0625 -0.13475,0.0242 -0.27188,0.0373 -0.40625,0.0625 -0.47584,0.0892 -0.93964,0.20438 -1.40625,0.3125 -0.23858,0.0552 -0.48035,0.100979 -0.71875,0.15625 -0.24898,0.0576 -0.50255,0.0951 -0.75,0.15625 -0.005,0.006 0.005,0.02505 0,0.03125 -22.8934,5.667539 -39.875,26.32465 -39.875,50.96875 0,29.010372 23.52087,52.531252 52.53125,52.531252 12.8989,0 24.701082,-4.66074 33.843752,-12.375 C 92.895746,105.33691 85.955089,87.677728 87.664062,70.736328 c 11.268885,2.660314 23.255478,2.629187 34.541018,0.50586 0.77578,-0.160261 1.55388,-0.335438 2.33398,-0.519532 6.9e-4,0.0065 10e-4,0.01302 0.002,0.01953 0.003,6.2e-5 0.005,5e-4 0.008,0 -1.40139,-13.96158 -8.24675,-26.310401 -18.40625,-34.875 -9.13623,-7.70197 -20.956352,-12.34375 -33.843752,-12.34375 z"
       style="display:inline;opacity:0.5;fill:#d3e7ef;fill-opacity:1;stroke:#408fb0;stroke-width:3;stroke-miterlimit:4;stroke-dasharray:none;stroke-opacity:1;enable-background:new" />
  </g>
  <g
     transform="translate(2.1484375e-6,-19.011444)"
     style="display:inline"
     inkscape:label="equation"
     id="layer5"
     inkscape:groupmode="layer">
    <g
       style="font-style:normal;font-variant:normal;font-weight:normal;font-stretch:normal;letter-spacing:normal;word-spacing:normal;text-anchor:start;fill:none;fill-opacity:1;fill-rule:evenodd;stroke:#000000;stroke-linecap:butt;stroke-linejoin:miter;stroke-miterlimit:10.43299961;stroke-dasharray:none;stroke-dashoffset:0;stroke-opacity:1"
       ns0:preamble=""
       ns0:text="\\begin{eqnarray*}\nR_a &amp;=&amp; R^*_b \\cup  D^* \\\\\nR_a &amp;=&amp; \\left( R_b\\setminus  \\bigcup_{i=a}^{b}{A_i}\\right) \\cup \\left(\\bigcup_{i=a}^{b}{D_i}\\setminus  \\bigcup_{j=a}^{i}{A_j} \\right) \\\\\n\\end{eqnarray*}"
       word-spacing="normal"
       letter-spacing="normal"
       font-size-adjust="none"
       font-stretch="normal"
       font-weight="normal"
       font-variant="normal"
       font-style="normal"
       stroke-miterlimit="10.433"
       xml:space="preserve"
       transform="matrix(1,0,0,-1,-284.87887,883.60565)"
       id="content"
       inkscape:export-xdpi="600"
       inkscape:export-ydpi="600"><path
         id="path6052"
         d="m 302.43,710.5 0.1,0.02 0.09,0.03 0.1,0.03 0.1,0.03 0.09,0.03 0.1,0.03 0.09,0.04 0.1,0.04 0.09,0.05 0.1,0.04 0.09,0.05 0.09,0.05 0.09,0.05 0.08,0.06 0.08,0.06 0.08,0.06 0.08,0.06 0.08,0.06 0.07,0.07 0.06,0.07 0.07,0.07 0.06,0.07 0.05,0.08 0.05,0.08 0.05,0.08 0.04,0.08 0.03,0.08 0.03,0.09 0.02,0.09 0.02,0.09 0.01,0.09 0,0.09 c 0,0.85 -0.89,1.49 -2.2,1.49 l -2.83,0 c -0.2,0 -0.29,0 -0.29,-0.2 0,-0.11 0.09,-0.11 0.28,-0.11 0.02,0 0.21,0 0.38,-0.02 0.18,-0.02 0.27,-0.03 0.27,-0.16 0,-0.04 -0.02,-0.07 -0.05,-0.19 l -1.33,-5.33 c -0.1,-0.39 -0.12,-0.47 -0.9,-0.47 -0.18,0 -0.27,0 -0.27,-0.2 0,-0.11 0.12,-0.11 0.14,-0.11 0.28,0 0.97,0.04 1.25,0.04 0.28,0 0.99,-0.04 1.26,-0.04 0.08,0 0.2,0 0.2,0.2 0,0.11 -0.09,0.11 -0.27,0.11 -0.37,0 -0.65,0 -0.65,0.18 0,0.06 0.02,0.11 0.03,0.17 l 0.66,2.63 1.18,0 -0.01,0.22 -1.12,0 0.65,2.59 c 0.06,0.24 0.09,0.34 0.28,0.37 0.09,0.01 0.41,0.01 0.61,0.01 0.7,0 1.81,0 1.81,-0.98 0,-0.34 -0.16,-1.03 -0.55,-1.41 -0.26,-0.26 -0.79,-0.58 -1.68,-0.58 l 0.01,-0.22 c 0.9,0 1.08,-0.55 1.08,-0.9 0,-0.15 -0.08,-0.46 -0.14,-0.69 -0.07,-0.27 -0.15,-0.64 -0.15,-0.84 0,-1.07 1.19,-1.07 1.32,-1.07 0.84,0 1.19,1 1.19,1.14 0,0.12 -0.11,0.12 -0.12,0.12 -0.09,0 -0.11,-0.07 -0.13,-0.14 -0.25,-0.74 -0.67,-0.91 -0.9,-0.91 -0.33,0 -0.4,0.22 -0.4,0.61 0,0.31 0.06,0.82 0.1,1.13 0.02,0.14 0.04,0.33 0.04,0.47 0,0.76 -0.67,1.07 -0.94,1.17 z"
         inkscape:connector-curvature="0"
         style="fill:#000000;stroke-width:0" /><path
         id="path6054"
         d="m 307.77,708.29 -0.01,0.02 -0.02,0.02 -0.01,0.02 -0.02,0.02 -0.01,0.02 -0.02,0.02 -0.02,0.02 -0.01,0.02 -0.02,0.02 -0.02,0.01 -0.02,0.02 -0.02,0.02 -0.02,0.01 -0.02,0.02 -0.02,0.01 -0.02,0.02 -0.03,0.01 -0.02,0.02 -0.02,0.01 -0.03,0.01 -0.02,0.01 -0.03,0.01 -0.03,0.01 -0.02,0.01 -0.03,0 -0.03,0.01 -0.02,0.01 -0.03,0 -0.03,0 -0.03,0.01 -0.03,0 -0.03,0 0,-0.2 c 0.48,0 0.61,-0.53 0.61,-0.6 0,-0.03 -0.01,-0.08 -0.02,-0.1 l -0.32,-1.3 c -0.05,-0.2 -0.21,-0.33 -0.36,-0.47 -0.06,-0.05 -0.34,-0.27 -0.64,-0.27 -0.26,0 -0.51,0.18 -0.51,0.67 0,0.37 0.2,1.13 0.36,1.41 0.33,0.56 0.68,0.66 0.88,0.66 l 0,0.2 c -0.9,0 -1.8,-0.98 -1.8,-1.98 0,-0.68 0.45,-1.16 1.05,-1.16 0.38,0 0.71,0.22 0.99,0.49 0.13,-0.42 0.54,-0.49 0.72,-0.49 0.25,0 0.42,0.15 0.55,0.37 0.15,0.27 0.24,0.67 0.24,0.69 0,0.1 -0.09,0.1 -0.11,0.1 -0.1,0 -0.1,-0.03 -0.15,-0.22 -0.09,-0.33 -0.22,-0.74 -0.51,-0.74 -0.18,0 -0.23,0.15 -0.23,0.34 0,0.12 0.05,0.37 0.1,0.55 0.05,0.18 0.12,0.47 0.16,0.62 l 0.13,0.53 c 0.05,0.18 0.13,0.51 0.13,0.54 0,0.16 -0.13,0.23 -0.24,0.23 -0.11,0 -0.27,-0.09 -0.32,-0.28 z"
         inkscape:connector-curvature="0"
         style="fill:#000000;stroke-width:0" /><path
         id="path6056"
         d="m 326.45,710.37 0.03,0 0.03,0 0.03,0 0.01,0.01 0.02,0 0.01,0 0.02,0 0.01,0 0.01,0 0.02,0.01 0.01,0 0.01,0 0.02,0.01 0.01,0 0.01,0.01 0.01,0 0.01,0.01 0.01,0.01 0.01,0.01 0.01,0.01 0.01,0.01 0,0 0.01,0.01 0,0 0,0.01 0,0.01 0.01,0 0,0.01 0,0.01 0,0 0.01,0.01 0,0.01 0,0.01 0,0.01 0,0 0,0.01 0,0.01 c 0,0.2 -0.19,0.2 -0.33,0.2 l -5.96,0 c -0.14,0 -0.33,0 -0.33,-0.2 0,-0.2 0.19,-0.2 0.34,-0.2 z"
         inkscape:connector-curvature="0"
         style="fill:#000000;stroke-width:0" /><path
         id="path6058"
         d="m 326.46,708.45 0.02,0 0.01,0 0.03,0 0.02,0 0.02,0 0.01,0 0.02,0 0.01,0 0.01,0 0.02,0.01 0.01,0 0.01,0 0.02,0.01 0.01,0 0.01,0.01 0.01,0 0.01,0.01 0.01,0 0.01,0.01 0.01,0.01 0.01,0.01 0,0 0.01,0.01 0,0.01 0.01,0 0,0.01 0,0 0,0.01 0.01,0.01 0,0 0,0.01 0,0.01 0.01,0 0,0.01 0,0.01 0,0.01 0,0.01 0,0.01 0,0.01 c 0,0.19 -0.19,0.19 -0.34,0.19 l -5.94,0 c -0.15,0 -0.34,0 -0.34,-0.19 0,-0.2 0.19,-0.2 0.33,-0.2 z"
         inkscape:connector-curvature="0"
         style="fill:#000000;stroke-width:0" /><path
         id="path6060"
         d="m 342.49,710.5 0.1,0.02 0.09,0.03 0.1,0.03 0.09,0.03 0.1,0.03 0.1,0.03 0.09,0.04 0.1,0.04 0.09,0.05 0.09,0.04 0.1,0.05 0.09,0.05 0.08,0.05 0.09,0.06 0.08,0.06 0.08,0.06 0.08,0.06 0.07,0.06 0.08,0.07 0.06,0.07 0.07,0.07 0.05,0.07 0.06,0.08 0.05,0.08 0.04,0.08 0.04,0.08 0.04,0.08 0.03,0.09 0.02,0.09 0.02,0.09 0.01,0.09 0,0.09 c 0,0.85 -0.89,1.49 -2.2,1.49 l -2.83,0 c -0.2,0 -0.29,0 -0.29,-0.2 0,-0.11 0.09,-0.11 0.28,-0.11 0.02,0 0.21,0 0.37,-0.02 0.18,-0.02 0.27,-0.03 0.27,-0.16 0,-0.04 -0.01,-0.07 -0.04,-0.19 l -1.33,-5.33 c -0.1,-0.39 -0.12,-0.47 -0.9,-0.47 -0.18,0 -0.27,0 -0.27,-0.2 0,-0.11 0.12,-0.11 0.14,-0.11 0.27,0 0.97,0.04 1.25,0.04 0.28,0 0.98,-0.04 1.26,-0.04 0.08,0 0.2,0 0.2,0.2 0,0.11 -0.09,0.11 -0.28,0.11 -0.36,0 -0.64,0 -0.64,0.18 0,0.06 0.02,0.11 0.03,0.17 l 0.65,2.63 1.19,0 -0.01,0.22 -1.12,0 0.65,2.59 c 0.06,0.24 0.09,0.34 0.28,0.37 0.09,0.01 0.4,0.01 0.6,0.01 0.71,0 1.82,0 1.82,-0.98 0,-0.34 -0.16,-1.03 -0.55,-1.41 -0.26,-0.26 -0.79,-0.58 -1.68,-0.58 l 0.01,-0.22 c 0.9,0 1.08,-0.55 1.08,-0.9 0,-0.15 -0.08,-0.46 -0.14,-0.69 -0.07,-0.27 -0.16,-0.64 -0.16,-0.84 0,-1.07 1.2,-1.07 1.33,-1.07 0.84,0 1.19,1 1.19,1.14 0,0.12 -0.11,0.12 -0.12,0.12 -0.09,0 -0.11,-0.07 -0.13,-0.14 -0.25,-0.74 -0.68,-0.91 -0.9,-0.91 -0.33,0 -0.4,0.22 -0.4,0.61 0,0.31 0.06,0.82 0.1,1.13 0.02,0.14 0.04,0.33 0.04,0.47 0,0.76 -0.67,1.07 -0.94,1.17 z"
         inkscape:connector-curvature="0"
         style="fill:#000000;stroke-width:0" /><path
         id="path6062"
         d="m 347.22,712.97 0.05,0.02 0.05,0.03 0.05,0.02 0.05,0.02 0.05,0.02 0.04,0.02 0.04,0.01 0.04,0.02 0.04,0.02 0.04,0.01 0.04,0.02 0.03,0.01 0.04,0.02 0.03,0.01 0.03,0.02 0.03,0.01 0.03,0.01 0.03,0.01 0.02,0.01 0.03,0.01 0.02,0.02 0.03,0.01 0.02,0 0.02,0.01 0.02,0.01 0.02,0.01 0.04,0.02 0.04,0.02 0.03,0.01 c 0.14,0.06 0.2,0.08 0.2,0.22 0,0.11 -0.09,0.22 -0.22,0.22 -0.05,0 -0.06,0 -0.15,-0.06 l -0.94,-0.64 0.1,1.03 c 0.02,0.13 0,0.3 -0.21,0.3 -0.08,0 -0.21,-0.05 -0.21,-0.21 0,-0.06 0.03,-0.27 0.03,-0.34 0.02,-0.12 0.07,-0.62 0.08,-0.78 l -0.94,0.64 c -0.07,0.04 -0.09,0.06 -0.15,0.06 -0.13,0 -0.22,-0.11 -0.22,-0.22 0,-0.14 0.08,-0.18 0.15,-0.2 l 1.05,-0.44 c -0.57,-0.25 -0.83,-0.35 -1,-0.43 -0.14,-0.06 -0.2,-0.09 -0.2,-0.22 0,-0.12 0.09,-0.22 0.22,-0.22 0.05,0 0.06,0 0.14,0.06 l 0.95,0.63 -0.11,-1.12 c 0,-0.15 0.13,-0.21 0.21,-0.21 0.09,0 0.22,0.06 0.22,0.21 0,0.07 -0.03,0.28 -0.04,0.35 -0.01,0.11 -0.06,0.61 -0.07,0.77 l 0.83,-0.55 c 0.18,-0.14 0.2,-0.14 0.26,-0.14 0.13,0 0.22,0.1 0.22,0.22 0,0.14 -0.09,0.18 -0.15,0.2 z"
         inkscape:connector-curvature="0"
         style="fill:#000000;stroke-width:0" /><path
         id="path6064"
         d="m 346.73,709.28 0,0 0,0 0,0 0,0 0,0 0,0 0,0.01 0.01,0 0,0 0,0 0,0.01 0,0 0,0.01 0,0 0,0 0,0.01 0,0 0.01,0.01 0,0.01 0,0.01 0,0 0,0.01 0,0 0,0 0,0.01 0.01,0 0,0.01 0,0 0,0 0,0 0,0 0,0 0,0.01 0,0 0,0 0,0 0,0 0,0 0,0 0,0 c 0,0.03 -0.03,0.1 -0.11,0.1 -0.14,0 -0.72,-0.06 -0.89,-0.07 -0.06,-0.01 -0.16,-0.02 -0.16,-0.16 0,-0.1 0.1,-0.1 0.18,-0.1 0.34,0 0.34,-0.05 0.34,-0.1 0,-0.05 -0.07,-0.33 -0.11,-0.49 l -0.16,-0.64 c -0.07,-0.24 -0.45,-1.76 -0.46,-1.85 -0.04,-0.17 -0.04,-0.26 -0.04,-0.34 0,-0.7 0.45,-1.15 1.03,-1.15 l 0,0.2 c -0.34,0 -0.53,0.3 -0.53,0.71 0,0.25 0.06,0.49 0.26,1.28 0.04,0.13 0.04,0.14 0.17,0.3 0.26,0.3 0.58,0.45 0.83,0.45 0.27,0 0.51,-0.2 0.51,-0.67 0,-0.29 -0.16,-1 -0.37,-1.4 -0.16,-0.34 -0.51,-0.67 -0.87,-0.67 l 0,0 0,-0.2 c 0.87,0 1.79,0.95 1.79,1.98 0,0.81 -0.56,1.16 -1.04,1.16 -0.36,0 -0.67,-0.2 -0.88,-0.38 z"
         inkscape:connector-curvature="0"
         style="fill:#000000;stroke-width:0" /><path
         id="path6066"
         d="m 357.84,712.71 0,0.03 0,0.03 0,0.04 0,0.01 0,0.02 0,0.01 0,0.02 -0.01,0.02 0,0.01 0,0.01 0,0.02 -0.01,0.01 0,0.01 -0.01,0.02 0,0.01 -0.01,0.01 -0.01,0.01 0,0.01 -0.01,0.01 -0.01,0.01 -0.01,0 -0.01,0.01 -0.01,0 0,0.01 -0.01,0 -0.01,0 0,0 -0.01,0.01 -0.01,0 -0.01,0 0,0 -0.01,0 -0.01,0 -0.01,0 -0.01,0 -0.01,0.01 c -0.2,0 -0.2,-0.18 -0.2,-0.36 l 0,-3.6 c 0,-1.49 -1.62,-1.81 -2.36,-1.81 -0.45,0 -1.08,0.09 -1.61,0.43 -0.76,0.49 -0.76,1.12 -0.76,1.39 l 0,3.59 c 0,0.18 0,0.36 -0.2,0.36 -0.2,0 -0.2,-0.18 -0.2,-0.36 l 0,-3.64 c 0,-1.51 1.52,-2.16 2.77,-2.16 1.29,0 2.76,0.69 2.76,2.15 z"
         inkscape:connector-curvature="0"
         style="fill:#000000;stroke-width:0" /><path
         id="path6068"
         d="m 362.2,707.9 -0.01,-0.04 -0.01,-0.03 -0.01,-0.03 0,-0.03 -0.01,-0.03 -0.01,-0.03 -0.01,-0.02 -0.01,-0.03 -0.01,-0.02 -0.02,-0.02 -0.01,-0.02 -0.01,-0.02 -0.02,-0.02 -0.02,-0.01 -0.01,-0.02 -0.02,-0.01 -0.03,-0.01 -0.02,-0.01 -0.03,-0.01 -0.03,-0.01 -0.03,-0.01 -0.02,0 -0.02,-0.01 -0.02,0 -0.01,0 -0.02,-0.01 -0.03,0 -0.02,0 -0.02,0 -0.02,-0.01 -0.03,0 -0.02,0 -0.03,0 -0.03,0 -0.02,0 -0.03,0 -0.03,0 -0.03,-0.01 -0.04,0 -0.03,0 -0.03,0 -0.04,0 -0.03,0 c -0.17,0 -0.28,0 -0.28,-0.19 0,-0.12 0.09,-0.12 0.28,-0.12 l 3.29,0 -0.18,0.31 -1.12,0 c -0.14,0 -0.16,0 -0.22,0.01 -0.1,0.01 -0.13,0.02 -0.13,0.1 0,0.03 0,0.05 0.05,0.23 l 1.36,5.45 c 0.09,0.35 0.11,0.38 0.54,0.38 l 1.06,0 c 0.98,0 1.8,-0.52 1.8,-1.84 0,-0.48 -0.2,-2.11 -1.04,-3.21 -0.29,-0.36 -1.08,-1.12 -2.3,-1.12 l 0.18,-0.31 c 2.07,0 4.03,2.1 4.03,4.28 0,1.4 -0.85,2.51 -2.34,2.51 l -3.34,0 c -0.19,0 -0.3,0 -0.3,-0.19 0,-0.12 0.09,-0.12 0.29,-0.12 0.13,0 0.31,-0.01 0.43,-0.02 0.15,-0.02 0.21,-0.05 0.21,-0.16 0,-0.04 -0.01,-0.07 -0.04,-0.19 z"
         inkscape:connector-curvature="0"
         style="fill:#000000;stroke-width:0" /><path
         id="path6070"
         d="m 371.39,712.97 0.06,0.02 0.05,0.03 0.05,0.02 0.04,0.02 0.05,0.02 0.04,0.02 0.05,0.01 0.04,0.02 0.04,0.02 0.03,0.01 0.04,0.02 0.04,0.01 0.03,0.02 0.03,0.01 0.03,0.02 0.03,0.01 0.03,0.01 0.03,0.01 0.03,0.01 0.02,0.01 0.03,0.02 0.02,0.01 0.02,0 0.03,0.01 0.02,0.01 0.02,0.01 0.04,0.02 0.03,0.02 0.04,0.01 c 0.13,0.06 0.19,0.08 0.19,0.22 0,0.11 -0.09,0.22 -0.21,0.22 -0.05,0 -0.07,0 -0.15,-0.06 l -0.95,-0.64 0.11,1.03 c 0.01,0.13 0,0.3 -0.21,0.3 -0.09,0 -0.22,-0.05 -0.22,-0.21 0,-0.06 0.03,-0.27 0.04,-0.34 0.01,-0.12 0.06,-0.62 0.07,-0.78 l -0.94,0.64 c -0.07,0.04 -0.09,0.06 -0.15,0.06 -0.13,0 -0.22,-0.11 -0.22,-0.22 0,-0.14 0.09,-0.18 0.15,-0.2 l 1.05,-0.44 c -0.57,-0.25 -0.83,-0.35 -1,-0.43 -0.13,-0.06 -0.2,-0.09 -0.2,-0.22 0,-0.12 0.09,-0.22 0.22,-0.22 0.05,0 0.06,0 0.15,0.06 l 0.94,0.63 -0.11,-1.12 c 0,-0.15 0.13,-0.21 0.22,-0.21 0.08,0 0.21,0.06 0.21,0.21 0,0.07 -0.02,0.28 -0.03,0.35 -0.01,0.11 -0.06,0.61 -0.08,0.77 l 0.84,-0.55 c 0.18,-0.14 0.19,-0.14 0.26,-0.14 0.12,0 0.21,0.1 0.21,0.22 0,0.14 -0.08,0.18 -0.14,0.2 z"
         inkscape:connector-curvature="0"
         style="fill:#000000;stroke-width:0" /><path
         id="path6072"
         d="m 302.43,683.63 0.1,0.02 0.09,0.03 0.1,0.02 0.1,0.04 0.09,0.03 0.1,0.03 0.09,0.04 0.1,0.04 0.09,0.05 0.1,0.04 0.09,0.05 0.09,0.05 0.09,0.05 0.08,0.06 0.08,0.06 0.08,0.06 0.08,0.06 0.08,0.06 0.07,0.07 0.06,0.07 0.07,0.07 0.06,0.07 0.05,0.08 0.05,0.08 0.05,0.08 0.04,0.08 0.03,0.08 0.03,0.09 0.02,0.08 0.02,0.09 0.01,0.1 0,0.09 c 0,0.85 -0.89,1.49 -2.2,1.49 l -2.83,0 c -0.2,0 -0.29,0 -0.29,-0.2 0,-0.11 0.09,-0.11 0.28,-0.11 0.02,0 0.21,0 0.38,-0.02 0.18,-0.02 0.27,-0.03 0.27,-0.16 0,-0.04 -0.02,-0.07 -0.05,-0.19 l -1.33,-5.33 c -0.1,-0.39 -0.12,-0.47 -0.9,-0.47 -0.18,0 -0.27,0 -0.27,-0.2 0,-0.11 0.12,-0.11 0.14,-0.11 0.28,0 0.97,0.03 1.25,0.03 0.28,0 0.99,-0.03 1.26,-0.03 0.08,0 0.2,0 0.2,0.2 0,0.11 -0.09,0.11 -0.27,0.11 -0.37,0 -0.65,0 -0.65,0.18 0,0.06 0.02,0.11 0.03,0.17 l 0.66,2.63 1.18,0 -0.01,0.22 -1.12,0 0.65,2.59 c 0.06,0.24 0.09,0.34 0.28,0.37 0.09,0.01 0.41,0.01 0.61,0.01 0.7,0 1.81,0 1.81,-0.98 0,-0.34 -0.16,-1.03 -0.55,-1.41 -0.26,-0.26 -0.79,-0.58 -1.68,-0.58 l 0.01,-0.22 c 0.9,0 1.08,-0.55 1.08,-0.9 0,-0.15 -0.08,-0.46 -0.14,-0.69 -0.07,-0.28 -0.16,-0.64 -0.16,-0.84 0,-1.08 1.2,-1.08 1.33,-1.08 0.84,0 1.19,1.01 1.19,1.15 0,0.12 -0.11,0.12 -0.12,0.12 -0.09,0 -0.11,-0.07 -0.13,-0.14 -0.25,-0.74 -0.67,-0.91 -0.9,-0.91 -0.33,0 -0.4,0.22 -0.4,0.61 0,0.31 0.06,0.81 0.1,1.13 0.02,0.14 0.04,0.33 0.04,0.47 0,0.76 -0.67,1.07 -0.94,1.17 z"
         inkscape:connector-curvature="0"
         style="fill:#000000;stroke-width:0" /><path
         id="path6074"
         d="m 307.77,681.41 -0.01,0.03 -0.02,0.02 -0.01,0.02 -0.02,0.02 -0.01,0.02 -0.02,0.02 -0.02,0.02 -0.01,0.02 -0.02,0.01 -0.02,0.02 -0.02,0.02 -0.02,0.02 -0.02,0.01 -0.02,0.02 -0.02,0.01 -0.02,0.02 -0.03,0.01 -0.02,0.01 -0.02,0.02 -0.03,0.01 -0.02,0.01 -0.03,0.01 -0.03,0.01 -0.02,0 -0.03,0.01 -0.03,0.01 -0.02,0 -0.03,0.01 -0.03,0 -0.03,0 -0.03,0.01 -0.03,0 0,-0.2 c 0.48,0 0.61,-0.53 0.61,-0.6 0,-0.03 -0.01,-0.08 -0.02,-0.1 l -0.32,-1.3 c -0.05,-0.2 -0.21,-0.34 -0.36,-0.47 -0.06,-0.05 -0.34,-0.28 -0.64,-0.28 -0.26,0 -0.51,0.19 -0.51,0.68 0,0.37 0.2,1.13 0.36,1.41 0.33,0.56 0.68,0.66 0.88,0.66 l 0,0.2 c -0.9,0 -1.8,-0.99 -1.8,-1.99 0,-0.67 0.45,-1.15 1.05,-1.15 0.38,0 0.71,0.22 0.99,0.49 0.13,-0.42 0.54,-0.49 0.72,-0.49 0.25,0 0.42,0.15 0.55,0.37 0.15,0.27 0.24,0.67 0.24,0.69 0,0.09 -0.09,0.09 -0.11,0.09 -0.1,0 -0.1,-0.02 -0.15,-0.21 -0.09,-0.34 -0.22,-0.75 -0.51,-0.75 -0.18,0 -0.23,0.16 -0.23,0.34 0,0.12 0.05,0.37 0.1,0.55 0.05,0.19 0.12,0.48 0.16,0.63 l 0.13,0.53 c 0.05,0.18 0.13,0.51 0.13,0.54 0,0.15 -0.13,0.22 -0.24,0.22 -0.11,0 -0.27,-0.08 -0.32,-0.28 z"
         inkscape:connector-curvature="0"
         style="fill:#000000;stroke-width:0" /><path
         id="path6076"
         d="m 326.45,683.5 0.03,0 0.03,0 0.03,0 0.01,0 0.02,0.01 0.01,0 0.02,0 0.01,0 0.01,0 0.02,0.01 0.01,0 0.01,0 0.02,0.01 0.01,0 0.01,0.01 0.01,0 0.01,0.01 0.01,0.01 0.01,0.01 0.01,0.01 0.01,0.01 0,0 0.01,0.01 0,0 0,0.01 0,0.01 0.01,0 0,0.01 0,0.01 0,0 0.01,0.01 0,0.01 0,0.01 0,0 0,0.01 0,0.01 0,0.01 c 0,0.2 -0.19,0.2 -0.33,0.2 l -5.96,0 c -0.14,0 -0.33,0 -0.33,-0.2 0,-0.2 0.19,-0.2 0.34,-0.2 z"
         inkscape:connector-curvature="0"
         style="fill:#000000;stroke-width:0" /><path
         id="path6078"
         d="m 326.46,681.58 0.02,0 0.01,0 0.03,0 0.02,0 0.02,0 0.01,0 0.02,0 0.01,0 0.01,0 0.02,0.01 0.01,0 0.01,0 0.02,0.01 0.01,0 0.01,0 0.01,0.01 0.01,0.01 0.01,0 0.01,0.01 0.01,0.01 0.01,0.01 0,0 0.01,0.01 0,0 0.01,0.01 0,0.01 0,0 0,0.01 0.01,0 0,0.01 0,0.01 0,0.01 0.01,0 0,0.01 0,0.01 0,0.01 0,0.01 0,0 0,0.01 c 0,0.2 -0.19,0.2 -0.34,0.2 l -5.94,0 c -0.15,0 -0.34,0 -0.34,-0.2 0,-0.19 0.19,-0.19 0.33,-0.19 z"
         inkscape:connector-curvature="0"
         style="fill:#000000;stroke-width:0" /><path
         id="path6080"
         d="m 344.86,667.99 0,0.01 0,0.01 0,0 0,0.01 0,0 0,0 0,0 0,0.01 0,0 -0.01,0 0,0.01 0,0 0,0 0,0.01 0,0 -0.01,0 0,0.01 0,0 0,0.01 -0.01,0 0,0.01 0,0 -0.01,0.01 0,0 0,0 0,0.01 -0.01,0 0,0 0,0 0,0.01 -0.01,0 0,0 c -0.95,1.16 -1.75,2.43 -2.34,3.81 -1.3,3.04 -1.82,6.6 -1.82,10.87 0,4.23 0.49,7.94 1.96,11.2 0.58,1.26 1.33,2.44 2.22,3.51 0.02,0.03 0.04,0.05 0.04,0.09 0,0.1 -0.07,0.1 -0.22,0.1 -0.15,0 -0.17,0 -0.19,-0.02 -0.01,-0.01 -0.62,-0.61 -1.4,-1.7 -1.73,-2.44 -2.61,-5.37 -3.06,-8.33 -0.23,-1.6 -0.31,-3.22 -0.31,-4.84 0,-3.72 0.46,-7.51 2.06,-10.91 0.7,-1.51 1.65,-2.87 2.63,-3.91 0.09,-0.07 0.1,-0.08 0.27,-0.08 0.15,0 0.22,0 0.22,0.09 z"
         inkscape:connector-curvature="0"
         style="fill:#000000;stroke-width:0" /><path
         id="path6082"
         d="m 350.38,683.63 0.09,0.02 0.1,0.03 0.09,0.02 0.1,0.04 0.1,0.03 0.09,0.03 0.1,0.04 0.09,0.04 0.1,0.05 0.09,0.04 0.09,0.05 0.09,0.05 0.09,0.05 0.09,0.06 0.08,0.06 0.08,0.06 0.08,0.06 0.07,0.06 0.07,0.07 0.07,0.07 0.06,0.07 0.06,0.07 0.06,0.08 0.05,0.08 0.04,0.08 0.04,0.08 0.04,0.08 0.02,0.09 0.03,0.08 0.01,0.09 0.01,0.1 0.01,0.09 c 0,0.85 -0.9,1.49 -2.2,1.49 l -2.84,0 c -0.2,0 -0.29,0 -0.29,-0.2 0,-0.11 0.09,-0.11 0.28,-0.11 0.02,0 0.21,0 0.38,-0.02 0.18,-0.02 0.27,-0.03 0.27,-0.16 0,-0.04 -0.01,-0.07 -0.04,-0.19 l -1.33,-5.33 c -0.1,-0.39 -0.12,-0.47 -0.91,-0.47 -0.18,0 -0.27,0 -0.27,-0.2 0,-0.11 0.12,-0.11 0.14,-0.11 0.28,0 0.98,0.03 1.26,0.03 0.27,0 0.98,-0.03 1.26,-0.03 0.08,0 0.2,0 0.2,0.2 0,0.11 -0.09,0.11 -0.28,0.11 -0.37,0 -0.65,0 -0.65,0.18 0,0.06 0.02,0.11 0.03,0.17 l 0.66,2.63 1.18,0 -0.01,0.22 -1.11,0 0.65,2.59 c 0.06,0.24 0.09,0.34 0.28,0.37 0.08,0.01 0.4,0.01 0.6,0.01 0.71,0 1.81,0 1.81,-0.98 0,-0.34 -0.16,-1.03 -0.54,-1.41 -0.26,-0.26 -0.79,-0.58 -1.69,-0.58 l 0.01,-0.22 c 0.91,0 1.09,-0.55 1.09,-0.9 0,-0.15 -0.08,-0.46 -0.14,-0.69 -0.07,-0.28 -0.16,-0.64 -0.16,-0.84 0,-1.08 1.19,-1.08 1.32,-1.08 0.85,0 1.2,1.01 1.2,1.15 0,0.12 -0.11,0.12 -0.12,0.12 -0.09,0 -0.11,-0.07 -0.13,-0.14 -0.25,-0.74 -0.68,-0.91 -0.91,-0.91 -0.33,0 -0.4,0.22 -0.4,0.61 0,0.31 0.06,0.81 0.1,1.13 0.02,0.14 0.04,0.33 0.04,0.47 0,0.76 -0.66,1.07 -0.93,1.17 z"
         inkscape:connector-curvature="0"
         style="fill:#000000;stroke-width:0" /><path
         id="path6084"
         d="m 354.62,683.38 0,0 0,0 0,0 0,0 0,0 0,0 0,0 0,0 0,0.01 0,0 0.01,0 0,0.01 0,0 0,0.01 0,0 0,0.01 0,0 0,0.01 0.01,0 0,0.01 0,0.01 0,0 0,0.01 0,0 0,0.01 0,0 0,0 0,0.01 0,0 0,0 0,0 0.01,0 0,0 0,0 0,0 0,0.01 0,0 0,0 0,0 0,0 c 0,0.03 -0.03,0.1 -0.11,0.1 -0.14,0 -0.72,-0.06 -0.9,-0.07 -0.05,-0.01 -0.15,-0.02 -0.15,-0.17 0,-0.09 0.1,-0.09 0.18,-0.09 0.34,0 0.34,-0.05 0.34,-0.11 0,-0.05 -0.07,-0.32 -0.12,-0.48 l -0.16,-0.64 c -0.06,-0.24 -0.44,-1.76 -0.46,-1.85 -0.03,-0.17 -0.03,-0.26 -0.03,-0.34 0,-0.71 0.44,-1.15 1.02,-1.15 l 0.01,0.19 c -0.34,0 -0.54,0.3 -0.54,0.71 0,0.26 0.07,0.5 0.26,1.28 0.04,0.14 0.04,0.15 0.18,0.3 0.26,0.31 0.57,0.46 0.82,0.46 0.28,0 0.51,-0.2 0.51,-0.67 0,-0.29 -0.15,-1 -0.36,-1.4 -0.17,-0.34 -0.51,-0.68 -0.87,-0.68 l 0,0 -0.01,-0.19 c 0.87,0 1.8,0.95 1.8,1.97 0,0.82 -0.56,1.17 -1.04,1.17 -0.37,0 -0.67,-0.21 -0.88,-0.39 z"
         inkscape:connector-curvature="0"
         style="fill:#000000;stroke-width:0" /><path
         id="path6086"
         d="m 362.98,678.01 0.01,-0.01 0,-0.02 0.01,-0.01 0,-0.01 0.01,-0.01 0,-0.01 0.01,-0.02 0,-0.01 0.01,-0.01 0,-0.01 0.01,-0.01 0,-0.01 0.01,-0.01 0.01,-0.01 0,0 0.01,-0.01 0.01,-0.01 0,-0.01 0.01,0 0.01,-0.01 0,-0.01 0.01,0 0.01,-0.01 0.01,0 0.01,-0.01 0.01,0 0.01,0 0.01,0 0.01,-0.01 0.01,0 0.01,0 0.01,0 c 0.11,0 0.2,0.09 0.2,0.2 0,0.02 0,0.04 -0.05,0.16 l -3.4,9.34 c -0.06,0.17 -0.09,0.23 -0.22,0.23 -0.11,0 -0.2,-0.09 -0.2,-0.19 0,-0.02 0,-0.04 0.05,-0.16 z"
         inkscape:connector-curvature="0"
         style="fill:#000000;stroke-width:0" /><path
         id="path6088"
         d="m 372.91,697.32 0,0 0,0.01 0,0 0,0 0,0 0,0 0,0 0,0 0,0.01 0,0 0,0 0,0.01 0,0 0.01,0 0,0.01 0,0 0,0.01 0,0 0,0.01 0,0.01 0.01,0.01 0,0 0,0.01 0,0 0,0 0,0.01 0,0 0,0 0,0.01 0,0 0,0 0,0 0,0 0,0 0,0 0,0 0,0 0,0.01 0,0 0,0 c 0,0.03 -0.02,0.09 -0.11,0.09 -0.14,0 -0.71,-0.05 -0.89,-0.07 -0.05,0 -0.15,-0.01 -0.15,-0.16 0,-0.09 0.1,-0.09 0.18,-0.09 0.33,0 0.33,-0.05 0.33,-0.11 0,-0.05 -0.07,-0.32 -0.11,-0.49 l -0.16,-0.64 c -0.06,-0.23 -0.44,-1.75 -0.46,-1.84 -0.03,-0.17 -0.03,-0.26 -0.03,-0.35 0,-0.7 0.44,-1.14 1.02,-1.14 l 0.01,0.19 c -0.34,0 -0.54,0.3 -0.54,0.71 0,0.26 0.06,0.49 0.26,1.28 0.04,0.13 0.04,0.15 0.17,0.3 0.27,0.31 0.58,0.46 0.83,0.46 0.27,0 0.51,-0.2 0.51,-0.68 0,-0.28 -0.15,-0.99 -0.36,-1.39 -0.17,-0.34 -0.52,-0.68 -0.87,-0.68 l 0,0 -0.01,-0.19 c 0.87,0 1.8,0.94 1.8,1.97 0,0.82 -0.57,1.16 -1.05,1.16 -0.36,0 -0.67,-0.2 -0.88,-0.38 z"
         inkscape:connector-curvature="0"
         style="fill:#000000;stroke-width:0" /><path
         id="path6090"
         d="m 376.95,680.6 -0.01,-0.21 -0.02,-0.21 -0.02,-0.2 -0.04,-0.2 -0.05,-0.2 -0.06,-0.19 -0.06,-0.19 -0.08,-0.18 -0.08,-0.18 -0.1,-0.17 -0.1,-0.16 -0.11,-0.16 -0.12,-0.16 -0.12,-0.15 -0.13,-0.14 -0.14,-0.14 -0.15,-0.13 -0.15,-0.12 -0.16,-0.11 -0.16,-0.11 -0.17,-0.1 -0.17,-0.09 -0.18,-0.09 -0.18,-0.08 -0.19,-0.06 -0.19,-0.06 -0.19,-0.06 -0.2,-0.04 -0.2,-0.03 -0.2,-0.03 -0.21,-0.01 -0.2,0 c -2.22,0 -4.14,1.69 -4.14,3.96 l 0,8.57 c 0,0.13 0,0.55 -0.41,0.55 -0.42,0 -0.42,-0.41 -0.42,-0.55 l 0,-8.62 c 0,-2.55 2.18,-4.74 4.97,-4.74 2.78,0 4.96,2.19 4.96,4.74 l 0,8.62 c 0,0.13 0,0.55 -0.41,0.55 -0.41,0 -0.41,-0.41 -0.41,-0.55 z"
         inkscape:connector-curvature="0"
         style="fill:#000000;stroke-width:0" /><path
         id="path6092"
         d="m 368.45,672.84 0,0.02 0,0.01 -0.01,0.01 0,0.01 0,0.01 0,0.01 -0.01,0.01 0,0.01 0,0.01 -0.01,0.02 0,0.01 -0.01,0.01 -0.01,0.01 0,0.01 -0.01,0.01 -0.01,0.01 -0.01,0.01 -0.01,0.01 -0.01,0.01 -0.01,0 -0.01,0.01 -0.01,0.01 -0.01,0.01 -0.02,0 -0.01,0.01 -0.01,0 -0.02,0.01 -0.01,0 -0.02,0.01 -0.02,0 -0.01,0 -0.02,0 c -0.19,0 -0.39,-0.18 -0.39,-0.38 0,-0.12 0.09,-0.27 0.28,-0.27 0.2,0 0.39,0.2 0.39,0.38 z"
         inkscape:connector-curvature="0"
         style="fill:#000000;stroke-width:0" /><path
         id="path6094"
         d="m 367.03,669.31 -0.01,-0.01 0,-0.02 -0.02,-0.03 0,-0.02 -0.01,-0.02 0,-0.02 -0.01,-0.01 0,-0.02 0,-0.02 -0.01,-0.02 0,-0.02 0,-0.02 0,-0.01 -0.01,-0.01 0,-0.01 0,-0.01 0,-0.01 0,-0.01 c 0,-0.33 0.28,-0.59 0.66,-0.59 0.7,0 1.01,0.96 1.01,1.06 0,0.09 -0.09,0.09 -0.11,0.09 -0.1,0 -0.11,-0.04 -0.14,-0.11 -0.16,-0.56 -0.46,-0.85 -0.73,-0.85 -0.14,0 -0.18,0.1 -0.18,0.25 0,0.16 0.05,0.29 0.11,0.44 0.07,0.19 0.15,0.38 0.23,0.56 0.06,0.17 0.31,0.8 0.34,0.88 0.02,0.07 0.04,0.16 0.04,0.22 0,0.33 -0.28,0.6 -0.66,0.6 -0.69,0 -1.01,-0.95 -1.01,-1.07 0,-0.09 0.09,-0.09 0.12,-0.09 0.09,0 0.1,0.04 0.12,0.11 0.18,0.6 0.49,0.85 0.75,0.85 0.11,0 0.17,-0.05 0.17,-0.24 0,-0.16 -0.04,-0.27 -0.22,-0.7 z"
         inkscape:connector-curvature="0"
         style="fill:#000000;stroke-width:0" /><path
         id="path6096"
         d="m 374.36,670.84 0.01,0 0.01,0 0.01,0 0.01,0 0.02,0 0.01,0 0.01,0 0.01,0 0.02,0 0.01,0 0.01,0.01 0.01,0 0.01,0 0.01,0 0.01,0.01 0.01,0 0.01,0.01 0.01,0 0.01,0.01 0,0 0.01,0.01 0.01,0.01 0,0 0.01,0.01 0,0 0,0.01 0,0 0.01,0.01 0,0 0,0.01 0,0.01 0,0 0.01,0.01 0,0 0,0.01 0,0.01 0,0.01 0,0 0,0.01 0,0.01 c 0,0.17 -0.17,0.17 -0.26,0.17 l -4.61,0 c -0.09,0 -0.25,0 -0.25,-0.17 0,-0.17 0.16,-0.17 0.26,-0.17 z"
         inkscape:connector-curvature="0"
         style="fill:#000000;stroke-width:0" /><path
         id="path6098"
         d="m 374.36,669.31 0.01,0 0.01,0 0.01,0 0.01,0 0.01,0 0.01,0 0.01,0 0.01,0 0.01,0 0.01,0 0.02,0 0.01,0 0.01,0.01 0.01,0 0.01,0 0.01,0.01 0.01,0 0.01,0.01 0.01,0 0,0.01 0.01,0 0.01,0.01 0.01,0.01 0,0 0,0.01 0.01,0 0,0.01 0,0 0.01,0.01 0,0 0,0.01 0,0 0,0.01 0.01,0 0,0.01 0,0.01 0,0 0,0.01 0,0.01 0,0 0,0.01 c 0,0.18 -0.16,0.18 -0.26,0.18 l -4.6,0 c -0.1,0 -0.26,0 -0.26,-0.18 0,-0.16 0.16,-0.16 0.25,-0.16 z"
         inkscape:connector-curvature="0"
         style="fill:#000000;stroke-width:0" /><path
         id="path6100"
         d="m 378.06,671.16 -0.01,0.02 -0.01,0.02 -0.02,0.02 -0.02,0.02 -0.01,0.02 -0.02,0.02 -0.01,0.02 -0.02,0.02 -0.02,0.01 -0.02,0.02 -0.02,0.02 -0.02,0.02 -0.02,0.01 -0.02,0.02 -0.02,0.01 -0.02,0.02 -0.03,0.01 -0.02,0.01 -0.02,0.02 -0.03,0.01 -0.02,0.01 -0.03,0.01 -0.02,0.01 -0.03,0 -0.03,0.01 -0.03,0.01 -0.02,0 -0.03,0.01 -0.03,0 -0.03,0 -0.03,0.01 -0.03,0 0,-0.2 c 0.48,0 0.62,-0.53 0.62,-0.6 0,-0.03 -0.02,-0.08 -0.02,-0.1 l -0.33,-1.3 c -0.05,-0.2 -0.2,-0.34 -0.36,-0.47 -0.06,-0.05 -0.34,-0.28 -0.64,-0.28 -0.26,0 -0.51,0.18 -0.51,0.68 0,0.37 0.21,1.13 0.37,1.41 0.32,0.56 0.67,0.66 0.87,0.66 l 0,0.2 c -0.9,0 -1.8,-0.98 -1.8,-1.99 0,-0.67 0.45,-1.15 1.05,-1.15 0.38,0 0.71,0.22 0.99,0.49 0.13,-0.42 0.54,-0.49 0.72,-0.49 0.25,0 0.42,0.15 0.55,0.37 0.15,0.27 0.24,0.67 0.24,0.69 0,0.09 -0.09,0.09 -0.11,0.09 -0.1,0 -0.1,-0.02 -0.15,-0.21 -0.09,-0.34 -0.22,-0.75 -0.51,-0.75 -0.18,0 -0.23,0.16 -0.23,0.35 0,0.11 0.05,0.36 0.1,0.54 0.05,0.19 0.12,0.48 0.16,0.63 l 0.14,0.53 c 0.04,0.18 0.12,0.51 0.12,0.54 0,0.15 -0.12,0.22 -0.24,0.22 -0.11,0 -0.27,-0.08 -0.32,-0.27 z"
         inkscape:connector-curvature="0"
         style="fill:#000000;stroke-width:0" /><path
         id="path6102"
         d="m 382.89,681.4 -0.04,-0.06 -0.04,-0.06 -0.03,-0.06 -0.04,-0.05 -0.04,-0.05 -0.04,-0.05 -0.03,-0.04 -0.04,-0.04 -0.04,-0.04 -0.03,-0.04 -0.04,-0.03 -0.04,-0.03 -0.04,-0.03 -0.03,-0.03 -0.04,-0.03 -0.04,-0.02 -0.04,-0.02 -0.03,-0.02 -0.04,-0.02 -0.04,-0.02 -0.04,-0.01 -0.04,-0.02 -0.04,-0.01 -0.04,-0.01 -0.04,-0.01 -0.03,-0.01 -0.04,0 -0.04,-0.01 -0.08,-0.01 -0.09,-0.01 c -0.11,-0.01 -0.21,-0.01 -0.21,-0.2 0,-0.06 0.06,-0.11 0.13,-0.11 0.27,0 0.58,0.03 0.86,0.03 0.33,0 0.68,-0.03 0.99,-0.03 0.06,0 0.19,0 0.19,0.19 0,0.11 -0.08,0.12 -0.16,0.12 -0.22,0.02 -0.46,0.1 -0.46,0.35 0,0.12 0.06,0.23 0.14,0.37 l 0.75,1.27 2.5,0 -0.03,0.31 -2.28,0 1.96,3.28 0.32,-3.28 0.03,-0.31 c 0.02,-0.21 0.16,-1.56 0.16,-1.66 0,-0.3 -0.52,-0.33 -0.72,-0.33 -0.14,0 -0.24,0 -0.24,-0.2 0,-0.11 0.12,-0.11 0.14,-0.11 0.41,0 0.84,0.03 1.25,0.03 0.25,0 0.87,-0.03 1.12,-0.03 0.06,0 0.18,0 0.18,0.2 0,0.11 -0.1,0.11 -0.23,0.11 -0.62,0 -0.62,0.07 -0.65,0.36 l -0.6,6.21 c -0.02,0.2 -0.02,0.24 -0.19,0.24 -0.16,0 -0.2,-0.07 -0.26,-0.17 z"
         inkscape:connector-curvature="0"
         style="fill:#000000;stroke-width:0" /><path
         id="path6104"
         d="m 390.83,683.1 0,0.02 0,0.01 0,0.01 0,0.01 0,0.01 0,0.01 -0.01,0.01 0,0.01 -0.01,0.01 0,0.02 -0.01,0.01 0,0.01 -0.01,0.01 -0.01,0.01 0,0.01 -0.01,0.01 -0.01,0.01 -0.01,0.01 -0.01,0.01 -0.01,0 -0.01,0.01 -0.01,0.01 -0.01,0.01 -0.02,0 -0.01,0.01 -0.01,0 -0.02,0.01 -0.02,0 -0.01,0.01 -0.02,0 -0.02,0 -0.01,0 c -0.19,0 -0.39,-0.18 -0.39,-0.38 0,-0.12 0.09,-0.27 0.28,-0.27 0.2,0 0.38,0.2 0.38,0.38 z"
         inkscape:connector-curvature="0"
         style="fill:#000000;stroke-width:0" /><path
         id="path6106"
         d="m 389.42,679.57 -0.01,-0.01 -0.01,-0.02 -0.01,-0.03 0,-0.02 -0.01,-0.02 0,-0.02 -0.01,-0.01 0,-0.02 -0.01,-0.02 0,-0.02 0,-0.02 0,-0.02 -0.01,-0.01 0,-0.01 0,-0.01 0,-0.01 0,-0.01 0,-0.01 c 0,-0.33 0.28,-0.59 0.66,-0.59 0.7,0 1.01,0.96 1.01,1.06 0,0.09 -0.09,0.09 -0.12,0.09 -0.09,0 -0.1,-0.04 -0.13,-0.11 -0.16,-0.56 -0.46,-0.85 -0.74,-0.85 -0.14,0 -0.17,0.09 -0.17,0.25 0,0.16 0.05,0.29 0.11,0.44 0.07,0.19 0.15,0.38 0.23,0.56 0.06,0.17 0.31,0.8 0.34,0.88 0.02,0.07 0.04,0.15 0.04,0.22 0,0.33 -0.28,0.6 -0.66,0.6 -0.69,0 -1.01,-0.95 -1.01,-1.07 0,-0.09 0.09,-0.09 0.11,-0.09 0.1,0 0.11,0.04 0.13,0.11 0.18,0.6 0.49,0.85 0.74,0.85 0.12,0 0.18,-0.05 0.18,-0.24 0,-0.16 -0.04,-0.27 -0.22,-0.7 z"
         inkscape:connector-curvature="0"
         style="fill:#000000;stroke-width:0" /><path
         id="path6108"
         d="m 397.42,682.79 -0.01,0.69 -0.02,0.7 -0.03,0.7 -0.04,0.7 -0.06,0.7 -0.07,0.69 -0.1,0.7 -0.1,0.69 -0.13,0.69 -0.15,0.68 -0.17,0.68 -0.19,0.67 -0.21,0.66 -0.24,0.66 -0.26,0.65 -0.28,0.64 c -0.71,1.51 -1.65,2.88 -2.64,3.91 -0.09,0.08 -0.1,0.09 -0.27,0.09 -0.14,0 -0.22,0 -0.22,-0.1 0,-0.04 0.04,-0.09 0.06,-0.12 0.96,-1.15 1.76,-2.43 2.34,-3.81 1.3,-3.04 1.82,-6.59 1.82,-10.86 0,-4.23 -0.49,-7.95 -1.96,-11.21 -0.57,-1.26 -1.33,-2.43 -2.22,-3.51 -0.01,-0.01 -0.04,-0.05 -0.04,-0.09 0,-0.09 0.08,-0.09 0.22,-0.09 0.15,0 0.17,0 0.19,0.02 0.01,0.01 0.63,0.6 1.41,1.69 1.73,2.45 2.6,5.37 3.05,8.33 0.24,1.6 0.32,3.23 0.32,4.85 z"
         inkscape:connector-curvature="0"
         style="fill:#000000;stroke-width:0" /><path
         id="path6110"
         d="m 408.08,685.84 0,0.03 0,0.03 -0.01,0.04 0,0.01 0,0.02 0,0.01 0,0.02 0,0.01 0,0.02 -0.01,0.01 0,0.02 0,0.01 -0.01,0.01 0,0.01 -0.01,0.02 -0.01,0.01 0,0.01 -0.01,0.01 -0.01,0.01 -0.01,0.01 -0.01,0 -0.01,0.01 0,0 -0.01,0.01 -0.01,0 0,0 -0.01,0 -0.01,0.01 0,0 -0.01,0 -0.01,0 -0.01,0 -0.01,0 0,0 -0.01,0 -0.01,0 c -0.2,0 -0.2,-0.17 -0.2,-0.35 l 0,-3.6 c 0,-1.49 -1.62,-1.81 -2.37,-1.81 -0.45,0 -1.08,0.09 -1.6,0.43 -0.77,0.49 -0.77,1.12 -0.77,1.39 l 0,3.59 c 0,0.18 0,0.35 -0.2,0.35 -0.2,0 -0.2,-0.17 -0.2,-0.35 l 0,-3.64 c 0,-1.51 1.53,-2.17 2.77,-2.17 1.29,0 2.77,0.7 2.77,2.16 z"
         inkscape:connector-curvature="0"
         style="fill:#000000;stroke-width:0" /><path
         id="path6112"
         d="m 414.57,682.7 0.02,0 0.02,0 0.02,0 0.02,0 0.01,0 0.02,0 0.01,0 0.02,0 0.01,0 0.01,0 0.02,0 0.01,0 0.01,0.01 0.01,0 0.01,0 0,0 0.01,0.01 0.01,0 0.01,0.01 0,0 0.01,0.01 0,0 0.01,0.01 0,0 0,0.01 0.01,0.01 0,0.01 0,0.01 0,0.01 0,0.01 0,0.01 0,0.02 c 0.02,6.96 0.83,12.74 4.31,17.6 0.07,0.09 0.07,0.11 0.07,0.13 0,0.1 -0.07,0.1 -0.23,0.1 -0.16,0 -0.18,0 -0.2,-0.02 -0.04,-0.03 -1.3,-1.48 -2.31,-3.48 -1.31,-2.62 -2.14,-5.63 -2.5,-9.25 -0.03,-0.31 -0.24,-2.37 -0.24,-4.73 l 0,-0.39 c 0.01,-0.1 0.07,-0.1 0.28,-0.1 z"
         inkscape:connector-curvature="0"
         style="fill:#000000;stroke-width:0" /><path
         id="path6114"
         d="m 414.03,682.84 -0.02,0 -0.02,0 -0.02,0 -0.02,0 -0.01,0 -0.02,0 -0.01,0 -0.01,0 -0.02,0 -0.01,0 -0.01,0 -0.01,0 -0.01,0 -0.01,-0.01 -0.01,0 -0.01,0 -0.01,0 0,-0.01 -0.01,0 -0.01,0 0,-0.01 -0.01,0 0,-0.01 0,0 -0.01,-0.01 0,-0.01 0,0 -0.01,-0.01 0,-0.01 0,-0.01 0,-0.01 0,-0.01 0,-0.38 c 0,-6.07 1.08,-9.63 1.39,-10.63 0.68,-2.21 1.78,-4.53 3.44,-6.58 0.15,-0.18 0.19,-0.23 0.23,-0.25 0.02,-0.01 0.03,-0.02 0.19,-0.02 0.16,0 0.23,0 0.23,0.1 0,0.02 0,0.04 -0.06,0.13 -3.31,4.59 -4.31,10.11 -4.32,17.6 0,0.14 -0.06,0.14 -0.28,0.14 z"
         inkscape:connector-curvature="0"
         style="fill:#000000;stroke-width:0" /><path
         id="path6116"
         d="m 426.29,697.32 0,0 0,0.01 0,0 0,0 0,0 0,0 0,0 0,0 0,0.01 0,0 0,0 0,0.01 0,0 0,0 0.01,0.01 0,0 0,0.01 0,0 0,0.01 0,0.01 0,0.01 0.01,0 0,0.01 0,0 0,0 0,0.01 0,0 0,0 0,0.01 0,0 0,0 0,0 0,0 0,0 0,0 0,0 0,0 0,0.01 0,0 0,0 c 0,0.03 -0.02,0.09 -0.11,0.09 -0.14,0 -0.72,-0.05 -0.89,-0.07 -0.06,0 -0.15,-0.01 -0.15,-0.16 0,-0.09 0.09,-0.09 0.18,-0.09 0.33,0 0.33,-0.05 0.33,-0.11 0,-0.05 -0.07,-0.32 -0.11,-0.49 l -0.16,-0.64 c -0.06,-0.23 -0.45,-1.75 -0.46,-1.84 -0.03,-0.17 -0.03,-0.26 -0.03,-0.35 0,-0.7 0.44,-1.14 1.02,-1.14 l 0.01,0.19 c -0.34,0 -0.54,0.3 -0.54,0.71 0,0.26 0.06,0.49 0.26,1.28 0.04,0.13 0.04,0.15 0.17,0.3 0.27,0.31 0.58,0.46 0.83,0.46 0.27,0 0.51,-0.2 0.51,-0.68 0,-0.28 -0.15,-0.99 -0.36,-1.39 -0.17,-0.34 -0.52,-0.68 -0.87,-0.68 l 0,0 -0.01,-0.19 c 0.87,0 1.8,0.94 1.8,1.97 0,0.82 -0.57,1.16 -1.05,1.16 -0.36,0 -0.67,-0.2 -0.88,-0.38 z"
         inkscape:connector-curvature="0"
         style="fill:#000000;stroke-width:0" /><path
         id="path6118"
         d="m 430.32,680.6 0,-0.21 -0.02,-0.21 -0.03,-0.2 -0.03,-0.2 -0.05,-0.2 -0.06,-0.19 -0.06,-0.19 -0.08,-0.18 -0.09,-0.18 -0.09,-0.17 -0.1,-0.16 -0.11,-0.16 -0.12,-0.16 -0.12,-0.15 -0.14,-0.14 -0.13,-0.14 -0.15,-0.13 -0.15,-0.12 -0.16,-0.11 -0.16,-0.11 -0.17,-0.1 -0.17,-0.09 -0.18,-0.09 -0.18,-0.08 -0.19,-0.06 -0.19,-0.06 -0.19,-0.06 -0.2,-0.04 -0.2,-0.03 -0.2,-0.03 -0.21,-0.01 -0.21,0 c -2.21,0 -4.13,1.69 -4.13,3.96 l 0,8.57 c 0,0.13 0,0.55 -0.41,0.55 -0.42,0 -0.42,-0.41 -0.42,-0.55 l 0,-8.62 c 0,-2.55 2.18,-4.74 4.96,-4.74 2.79,0 4.97,2.19 4.97,4.74 l 0,8.62 c 0,0.13 0,0.55 -0.41,0.55 -0.42,0 -0.42,-0.41 -0.42,-0.55 z"
         inkscape:connector-curvature="0"
         style="fill:#000000;stroke-width:0" /><path
         id="path6120"
         d="m 421.83,672.84 0,0.02 0,0.01 -0.01,0.01 0,0.01 0,0.01 0,0.01 -0.01,0.01 0,0.01 0,0.01 -0.01,0.02 0,0.01 -0.01,0.01 -0.01,0.01 0,0.01 -0.01,0.01 -0.01,0.01 -0.01,0.01 -0.01,0.01 -0.01,0.01 -0.01,0 -0.01,0.01 -0.01,0.01 -0.01,0.01 -0.02,0 -0.01,0.01 -0.01,0 -0.02,0.01 -0.01,0 -0.02,0.01 -0.02,0 -0.01,0 -0.02,0 c -0.19,0 -0.39,-0.18 -0.39,-0.38 0,-0.12 0.09,-0.27 0.28,-0.27 0.2,0 0.39,0.2 0.39,0.38 z"
         inkscape:connector-curvature="0"
         style="fill:#000000;stroke-width:0" /><path
         id="path6122"
         d="m 420.41,669.31 -0.01,-0.01 0,-0.02 -0.02,-0.03 0,-0.02 -0.01,-0.02 0,-0.02 -0.01,-0.01 0,-0.02 0,-0.02 -0.01,-0.02 0,-0.02 0,-0.02 0,-0.01 -0.01,-0.01 0,-0.01 0,-0.01 0,-0.01 0,-0.01 c 0,-0.33 0.28,-0.59 0.67,-0.59 0.69,0 1,0.96 1,1.06 0,0.09 -0.09,0.09 -0.11,0.09 -0.1,0 -0.11,-0.04 -0.14,-0.11 -0.16,-0.56 -0.46,-0.85 -0.73,-0.85 -0.14,0 -0.18,0.1 -0.18,0.25 0,0.16 0.05,0.29 0.11,0.44 0.07,0.19 0.15,0.38 0.23,0.56 0.06,0.17 0.31,0.8 0.34,0.88 0.02,0.07 0.04,0.16 0.04,0.22 0,0.33 -0.28,0.6 -0.66,0.6 -0.69,0 -1.01,-0.95 -1.01,-1.07 0,-0.09 0.09,-0.09 0.12,-0.09 0.09,0 0.1,0.04 0.12,0.11 0.18,0.6 0.49,0.85 0.75,0.85 0.11,0 0.17,-0.05 0.17,-0.24 0,-0.16 -0.04,-0.27 -0.22,-0.7 z"
         inkscape:connector-curvature="0"
         style="fill:#000000;stroke-width:0" /><path
         id="path6124"
         d="m 427.74,670.84 0.01,0 0.01,0 0.01,0 0.01,0 0.02,0 0.01,0 0.01,0 0.01,0 0.01,0 0.02,0 0.01,0.01 0.01,0 0.01,0 0.01,0 0.01,0.01 0.01,0 0.01,0.01 0.01,0 0,0.01 0.01,0 0.01,0.01 0.01,0.01 0,0 0,0.01 0.01,0 0,0.01 0,0 0.01,0.01 0,0 0,0.01 0,0.01 0,0 0.01,0.01 0,0 0,0.01 0,0.01 0,0.01 0,0 0,0.01 0,0.01 c 0,0.17 -0.17,0.17 -0.26,0.17 l -4.61,0 c -0.09,0 -0.25,0 -0.25,-0.17 0,-0.17 0.16,-0.17 0.26,-0.17 z"
         inkscape:connector-curvature="0"
         style="fill:#000000;stroke-width:0" /><path
         id="path6126"
         d="m 427.74,669.31 0.01,0 0.01,0 0.01,0 0.01,0 0.01,0 0.01,0 0.01,0 0.01,0 0.01,0 0.01,0 0.01,0 0.01,0 0.02,0.01 0.01,0 0.01,0 0.01,0.01 0.01,0 0.01,0.01 0,0 0.01,0.01 0.01,0 0.01,0.01 0.01,0.01 0,0 0,0.01 0.01,0 0,0.01 0,0 0.01,0.01 0,0 0,0.01 0,0 0,0.01 0.01,0 0,0.01 0,0.01 0,0 0,0.01 0,0.01 0,0.01 0,0 c 0,0.18 -0.16,0.18 -0.26,0.18 l -4.6,0 c -0.1,0 -0.26,0 -0.26,-0.18 0,-0.16 0.16,-0.16 0.25,-0.16 z"
         inkscape:connector-curvature="0"
         style="fill:#000000;stroke-width:0" /><path
         id="path6128"
         d="m 431.44,671.16 -0.01,0.02 -0.02,0.02 -0.01,0.02 -0.02,0.02 -0.01,0.02 -0.02,0.02 -0.02,0.02 -0.01,0.02 -0.02,0.01 -0.02,0.02 -0.02,0.02 -0.02,0.02 -0.02,0.01 -0.02,0.02 -0.02,0.01 -0.03,0.02 -0.02,0.01 -0.02,0.01 -0.02,0.02 -0.03,0.01 -0.02,0.01 -0.03,0.01 -0.03,0.01 -0.02,0 -0.03,0.01 -0.03,0.01 -0.02,0 -0.03,0.01 -0.03,0 -0.03,0 -0.03,0.01 -0.03,0 0,-0.2 c 0.48,0 0.62,-0.53 0.62,-0.6 0,-0.03 -0.02,-0.08 -0.02,-0.1 l -0.33,-1.3 c -0.05,-0.2 -0.2,-0.34 -0.36,-0.47 -0.06,-0.05 -0.34,-0.28 -0.64,-0.28 -0.26,0 -0.51,0.18 -0.51,0.68 0,0.37 0.21,1.13 0.37,1.41 0.31,0.56 0.67,0.66 0.87,0.66 l 0,0.2 c -0.9,0 -1.8,-0.98 -1.8,-1.99 0,-0.67 0.45,-1.15 1.05,-1.15 0.38,0 0.71,0.22 0.99,0.49 0.13,-0.42 0.54,-0.49 0.72,-0.49 0.25,0 0.42,0.15 0.55,0.37 0.15,0.27 0.24,0.67 0.24,0.69 0,0.09 -0.09,0.09 -0.11,0.09 -0.1,0 -0.1,-0.02 -0.15,-0.21 -0.09,-0.34 -0.22,-0.75 -0.51,-0.75 -0.18,0 -0.23,0.16 -0.23,0.35 0,0.11 0.05,0.36 0.1,0.54 0.05,0.19 0.12,0.48 0.15,0.63 l 0.15,0.53 c 0.04,0.18 0.12,0.51 0.12,0.54 0,0.15 -0.12,0.22 -0.24,0.22 -0.12,0 -0.28,-0.08 -0.32,-0.27 z"
         inkscape:connector-curvature="0"
         style="fill:#000000;stroke-width:0" /><path
         id="path6130"
         d="m 436.07,681.03 -0.01,-0.04 -0.01,-0.03 -0.01,-0.03 -0.01,-0.03 -0.01,-0.03 -0.01,-0.03 -0.01,-0.02 -0.01,-0.03 -0.01,-0.02 -0.01,-0.02 -0.01,-0.02 -0.02,-0.02 -0.01,-0.02 -0.02,-0.01 -0.02,-0.02 -0.02,-0.01 -0.02,-0.01 -0.03,-0.01 -0.02,-0.01 -0.03,-0.01 -0.03,-0.01 -0.02,0 -0.02,-0.01 -0.02,0 -0.02,0 -0.02,-0.01 -0.02,0 -0.02,0 -0.02,0 -0.03,-0.01 -0.02,0 -0.03,0 -0.02,0 -0.03,0 -0.03,0 -0.03,0 -0.03,-0.01 -0.03,0 -0.03,0 -0.03,0 -0.04,0 -0.03,0 -0.04,0 c -0.17,0 -0.28,0 -0.28,-0.19 0,-0.12 0.09,-0.12 0.28,-0.12 l 3.3,0 -0.18,0.31 -1.13,0 c -0.14,0 -0.16,0 -0.22,0.01 -0.1,0.01 -0.13,0.02 -0.13,0.1 0,0.03 0,0.05 0.05,0.23 l 1.37,5.45 c 0.09,0.35 0.11,0.38 0.53,0.38 l 1.07,0 c 0.97,0 1.8,-0.52 1.8,-1.84 0,-0.48 -0.2,-2.11 -1.04,-3.21 -0.29,-0.36 -1.08,-1.12 -2.3,-1.12 l 0.18,-0.31 c 2.06,0 4.02,2.1 4.02,4.28 0,1.4 -0.84,2.51 -2.33,2.51 l -3.35,0 c -0.19,0 -0.29,0 -0.29,-0.19 0,-0.12 0.09,-0.12 0.28,-0.12 0.13,0 0.31,-0.01 0.43,-0.02 0.16,-0.02 0.22,-0.05 0.22,-0.16 0,-0.04 -0.01,-0.07 -0.04,-0.19 z"
         inkscape:connector-curvature="0"
         style="fill:#000000;stroke-width:0" /><path
         id="path6132"
         d="m 444.99,683.1 0,0.02 0,0.01 0,0.01 0,0.01 -0.01,0.01 0,0.01 0,0.01 -0.01,0.01 0,0.01 -0.01,0.02 0,0.01 -0.01,0.01 0,0.01 -0.01,0.01 -0.01,0.01 -0.01,0.01 0,0.01 -0.01,0.01 -0.01,0.01 -0.01,0 -0.02,0.01 -0.01,0.01 -0.01,0.01 -0.01,0 -0.02,0.01 -0.01,0 -0.01,0.01 -0.02,0 -0.02,0.01 -0.01,0 -0.02,0 -0.02,0 c -0.19,0 -0.39,-0.18 -0.39,-0.38 0,-0.12 0.09,-0.27 0.28,-0.27 0.2,0 0.39,0.2 0.39,0.38 z"
         inkscape:connector-curvature="0"
         style="fill:#000000;stroke-width:0" /><path
         id="path6134"
         d="m 443.57,679.57 -0.01,-0.01 0,-0.02 -0.01,-0.03 -0.01,-0.02 0,-0.02 -0.01,-0.02 0,-0.01 -0.01,-0.02 0,-0.02 0,-0.02 -0.01,-0.02 0,-0.02 0,-0.01 0,-0.01 0,-0.01 0,-0.01 0,-0.01 0,-0.01 c 0,-0.33 0.28,-0.59 0.66,-0.59 0.69,0 1,0.96 1,1.06 0,0.09 -0.09,0.09 -0.11,0.09 -0.1,0 -0.1,-0.04 -0.13,-0.11 -0.16,-0.56 -0.47,-0.85 -0.74,-0.85 -0.14,0 -0.17,0.09 -0.17,0.25 0,0.16 0.04,0.29 0.11,0.44 0.07,0.19 0.14,0.38 0.22,0.56 0.06,0.17 0.31,0.8 0.34,0.88 0.02,0.07 0.04,0.15 0.04,0.22 0,0.33 -0.28,0.6 -0.66,0.6 -0.69,0 -1.01,-0.95 -1.01,-1.07 0,-0.09 0.1,-0.09 0.12,-0.09 0.1,0 0.1,0.04 0.12,0.11 0.19,0.6 0.49,0.85 0.75,0.85 0.11,0 0.17,-0.05 0.17,-0.24 0,-0.16 -0.04,-0.27 -0.21,-0.7 z"
         inkscape:connector-curvature="0"
         style="fill:#000000;stroke-width:0" /><path
         id="path6136"
         d="m 452.26,678.01 0,-0.01 0,-0.02 0.01,-0.01 0,-0.01 0.01,-0.01 0,-0.01 0.01,-0.02 0,-0.01 0.01,-0.01 0,-0.01 0.01,-0.01 0,-0.01 0.01,-0.01 0.01,-0.01 0,0 0.01,-0.01 0.01,-0.01 0,-0.01 0.01,0 0.01,-0.01 0,-0.01 0.01,0 0.01,-0.01 0.01,0 0.01,-0.01 0.01,0 0.01,0 0.01,0 0.01,-0.01 0.01,0 0.01,0 0.01,0 c 0.11,0 0.2,0.09 0.2,0.2 0,0.02 0,0.04 -0.05,0.16 l -3.4,9.34 c -0.06,0.17 -0.09,0.24 -0.22,0.24 -0.11,0 -0.2,-0.1 -0.2,-0.2 0,-0.02 0,-0.04 0.05,-0.16 z"
         inkscape:connector-curvature="0"
         style="fill:#000000;stroke-width:0" /><path
         id="path6138"
         d="m 463.38,697.05 0,0.01 0,0.01 -0.01,0.02 0,0.01 0,0.01 0,0.01 -0.01,0.01 0,0.01 0,0.01 -0.01,0.01 0,0.01 -0.01,0.02 -0.01,0.01 0,0.01 -0.01,0.01 -0.01,0.01 -0.01,0.01 -0.01,0.01 -0.01,0 -0.01,0.01 -0.01,0.01 -0.01,0.01 -0.01,0.01 -0.02,0 -0.01,0.01 -0.01,0 -0.02,0.01 -0.01,0 -0.02,0 -0.02,0.01 -0.01,0 -0.02,0 c -0.19,0 -0.39,-0.18 -0.39,-0.39 0,-0.11 0.09,-0.26 0.28,-0.26 0.2,0 0.39,0.19 0.39,0.38 z"
         inkscape:connector-curvature="0"
         style="fill:#000000;stroke-width:0" /><path
         id="path6140"
         d="m 461.96,693.52 -0.01,-0.02 0,-0.01 -0.02,-0.04 0,-0.01 -0.01,-0.02 0,-0.02 -0.01,-0.01 0,-0.02 0,-0.02 -0.01,-0.02 0,-0.02 0,-0.02 0,-0.01 -0.01,-0.01 0,-0.01 0,-0.01 0,-0.01 0,-0.01 c 0,-0.33 0.28,-0.59 0.66,-0.59 0.7,0 1.01,0.96 1.01,1.06 0,0.09 -0.09,0.09 -0.11,0.09 -0.1,0 -0.11,-0.04 -0.14,-0.12 -0.16,-0.55 -0.46,-0.84 -0.73,-0.84 -0.14,0 -0.18,0.09 -0.18,0.25 0,0.16 0.05,0.29 0.11,0.44 0.07,0.19 0.15,0.38 0.23,0.56 0.06,0.16 0.31,0.8 0.34,0.88 0.02,0.07 0.04,0.15 0.04,0.22 0,0.33 -0.28,0.59 -0.66,0.59 -0.69,0 -1.01,-0.94 -1.01,-1.06 0,-0.09 0.1,-0.09 0.12,-0.09 0.09,0 0.1,0.03 0.12,0.11 0.18,0.6 0.49,0.85 0.75,0.85 0.11,0 0.17,-0.06 0.17,-0.24 0,-0.16 -0.04,-0.27 -0.22,-0.7 z"
         inkscape:connector-curvature="0"
         style="fill:#000000;stroke-width:0" /><path
         id="path6142"
         d="m 466.65,680.6 0,-0.21 -0.02,-0.21 -0.02,-0.2 -0.04,-0.2 -0.05,-0.2 -0.06,-0.19 -0.06,-0.19 -0.08,-0.18 -0.08,-0.18 -0.1,-0.17 -0.1,-0.16 -0.11,-0.16 -0.12,-0.16 -0.12,-0.15 -0.13,-0.14 -0.14,-0.14 -0.15,-0.13 -0.15,-0.12 -0.16,-0.11 -0.16,-0.11 -0.17,-0.1 -0.17,-0.09 -0.18,-0.09 -0.18,-0.08 -0.19,-0.06 -0.19,-0.06 -0.19,-0.06 -0.2,-0.04 -0.2,-0.03 -0.2,-0.03 -0.21,-0.01 -0.2,0 c -2.22,0 -4.14,1.69 -4.14,3.96 l 0,8.57 c 0,0.13 0,0.55 -0.41,0.55 -0.42,0 -0.42,-0.41 -0.42,-0.55 l 0,-8.62 c 0,-2.55 2.18,-4.74 4.97,-4.74 2.78,0 4.96,2.19 4.96,4.74 l 0,8.62 c 0,0.13 0,0.55 -0.41,0.55 -0.42,0 -0.42,-0.41 -0.42,-0.55 z"
         inkscape:connector-curvature="0"
         style="fill:#000000;stroke-width:0" /><path
         id="path6144"
         d="m 458.52,672.84 0,0.02 0,0.01 -0.01,0.01 0,0.01 0,0.01 0,0.01 -0.01,0.01 0,0.02 0,0.01 -0.01,0.01 -0.01,0.01 0,0.01 -0.01,0.01 -0.01,0.01 0,0.01 -0.01,0.01 -0.01,0.01 -0.01,0.01 -0.01,0.01 -0.01,0.01 -0.01,0 -0.01,0.01 -0.02,0.01 -0.01,0 -0.01,0.01 -0.02,0 -0.01,0.01 -0.02,0 -0.01,0.01 -0.02,0 -0.01,0 -0.02,0 c -0.2,0 -0.39,-0.2 -0.39,-0.38 0,-0.11 0.08,-0.27 0.28,-0.27 0.19,0 0.39,0.18 0.39,0.38 z"
         inkscape:connector-curvature="0"
         style="fill:#000000;stroke-width:0" /><path
         id="path6146"
         d="m 457.04,668.16 -0.01,-0.05 -0.01,-0.04 -0.02,-0.04 -0.01,-0.05 -0.02,-0.04 -0.02,-0.04 -0.02,-0.04 -0.02,-0.04 -0.02,-0.04 -0.03,-0.04 -0.02,-0.04 -0.03,-0.03 -0.02,-0.04 -0.03,-0.03 -0.03,-0.03 -0.03,-0.03 -0.03,-0.03 -0.03,-0.03 -0.03,-0.03 -0.03,-0.02 -0.04,-0.03 -0.03,-0.02 -0.04,-0.02 -0.03,-0.01 -0.04,-0.02 -0.03,-0.01 -0.04,-0.02 -0.04,-0.01 -0.03,0 -0.04,-0.01 -0.04,0 -0.04,0 c -0.09,0 -0.17,0.01 -0.25,0.04 0.18,0.08 0.24,0.25 0.24,0.35 0,0.17 -0.13,0.26 -0.27,0.26 -0.22,0 -0.4,-0.19 -0.4,-0.41 0,-0.27 0.27,-0.44 0.69,-0.44 0.42,0 1.23,0.25 1.45,1.1 l 0.63,2.49 c 0.02,0.07 0.03,0.14 0.03,0.24 0,0.38 -0.33,0.66 -0.75,0.66 -0.77,0 -1.21,-0.97 -1.21,-1.07 0,-0.09 0.09,-0.09 0.11,-0.09 0.09,0 0.1,0.02 0.14,0.13 0.18,0.4 0.54,0.83 0.94,0.83 0.18,0 0.24,-0.12 0.24,-0.34 0,-0.08 -0.01,-0.17 -0.02,-0.21 z"
         inkscape:connector-curvature="0"
         style="fill:#000000;stroke-width:0" /><path
         id="path6148"
         d="m 464.51,670.84 0.01,0 0.01,0 0.01,0 0.01,0 0.02,0 0.01,0 0.01,0 0.02,0 0.01,0 0.01,0 0.01,0.01 0.01,0 0.01,0 0.01,0 0.01,0.01 0.01,0 0.01,0.01 0.01,0 0.01,0.01 0.01,0 0,0.01 0.01,0.01 0,0 0.01,0.01 0,0 0,0.01 0.01,0 0,0.01 0,0 0,0.01 0,0.01 0.01,0 0,0.01 0,0 0,0.01 0,0.01 0,0.01 0,0 0,0.01 0,0.01 c 0,0.17 -0.16,0.17 -0.25,0.17 l -4.62,0 c -0.08,0 -0.25,0 -0.25,-0.17 0,-0.17 0.16,-0.17 0.26,-0.17 z"
         inkscape:connector-curvature="0"
         style="fill:#000000;stroke-width:0" /><path
         id="path6150"
         d="m 464.52,669.31 0,0 0.01,0 0.01,0 0.01,0 0.01,0 0.01,0 0.01,0 0.01,0 0.01,0 0.02,0 0.01,0 0.01,0 0.01,0.01 0.01,0 0.01,0 0.01,0.01 0.01,0 0.01,0.01 0.01,0 0.01,0.01 0,0 0.01,0.01 0.01,0.01 0,0 0.01,0.01 0,0 0,0.01 0,0 0.01,0.01 0,0 0,0.01 0,0 0.01,0.01 0,0 0,0.01 0,0.01 0,0 0,0.01 0,0.01 0,0.01 0,0 c 0,0.18 -0.16,0.18 -0.26,0.18 l -4.6,0 c -0.1,0 -0.26,0 -0.26,-0.18 0,-0.16 0.17,-0.16 0.25,-0.16 z"
         inkscape:connector-curvature="0"
         style="fill:#000000;stroke-width:0" /><path
         id="path6152"
         d="m 468.21,671.16 -0.01,0.02 -0.01,0.02 -0.02,0.02 -0.01,0.02 -0.02,0.02 -0.02,0.02 -0.01,0.02 -0.02,0.02 -0.02,0.01 -0.02,0.02 -0.02,0.02 -0.02,0.02 -0.02,0.01 -0.02,0.02 -0.02,0.01 -0.02,0.02 -0.03,0.01 -0.02,0.01 -0.02,0.02 -0.03,0.01 -0.02,0.01 -0.03,0.01 -0.02,0.01 -0.03,0 -0.03,0.01 -0.02,0.01 -0.03,0 -0.03,0.01 -0.03,0 -0.03,0 -0.03,0.01 -0.03,0 0,-0.2 c 0.48,0 0.62,-0.53 0.62,-0.6 0,-0.03 -0.02,-0.08 -0.02,-0.1 l -0.33,-1.3 c -0.05,-0.2 -0.2,-0.34 -0.36,-0.47 -0.06,-0.05 -0.34,-0.28 -0.64,-0.28 -0.25,0 -0.5,0.18 -0.5,0.68 0,0.37 0.2,1.13 0.36,1.41 0.32,0.56 0.67,0.66 0.87,0.66 l 0,0.2 c -0.89,0 -1.8,-0.98 -1.8,-1.99 0,-0.67 0.45,-1.15 1.05,-1.15 0.38,0 0.71,0.22 0.99,0.49 0.13,-0.42 0.54,-0.49 0.72,-0.49 0.25,0 0.42,0.15 0.55,0.37 0.15,0.27 0.24,0.67 0.24,0.69 0,0.09 -0.09,0.09 -0.11,0.09 -0.1,0 -0.1,-0.02 -0.15,-0.21 -0.09,-0.34 -0.22,-0.75 -0.51,-0.75 -0.18,0 -0.23,0.16 -0.23,0.35 0,0.11 0.05,0.36 0.1,0.54 0.05,0.19 0.12,0.48 0.16,0.63 l 0.14,0.53 c 0.04,0.18 0.12,0.51 0.12,0.54 0,0.15 -0.12,0.22 -0.23,0.22 -0.12,0 -0.28,-0.08 -0.33,-0.27 z"
         inkscape:connector-curvature="0"
         style="fill:#000000;stroke-width:0" /><path
         id="path6154"
         d="m 473.04,681.4 -0.04,-0.06 -0.04,-0.06 -0.03,-0.06 -0.04,-0.05 -0.04,-0.05 -0.03,-0.05 -0.04,-0.04 -0.04,-0.04 -0.04,-0.04 -0.03,-0.04 -0.04,-0.03 -0.04,-0.03 -0.04,-0.03 -0.03,-0.03 -0.04,-0.03 -0.04,-0.02 -0.04,-0.02 -0.03,-0.02 -0.04,-0.02 -0.04,-0.02 -0.04,-0.01 -0.04,-0.02 -0.04,-0.01 -0.03,-0.01 -0.04,-0.01 -0.04,-0.01 -0.04,0 -0.04,-0.01 -0.08,-0.01 -0.08,-0.01 c -0.12,-0.01 -0.21,-0.01 -0.21,-0.2 0,-0.06 0.05,-0.11 0.12,-0.11 0.27,0 0.58,0.03 0.86,0.03 0.33,0 0.68,-0.03 1,-0.03 0.06,0 0.18,0 0.18,0.19 0,0.11 -0.08,0.12 -0.15,0.12 -0.23,0.02 -0.47,0.1 -0.47,0.35 0,0.12 0.06,0.23 0.14,0.37 l 0.75,1.27 2.5,0 -0.03,0.31 -2.28,0 1.96,3.28 0.32,-3.28 0.03,-0.31 c 0.02,-0.21 0.16,-1.56 0.16,-1.66 0,-0.3 -0.52,-0.33 -0.72,-0.33 -0.13,0 -0.24,0 -0.24,-0.2 0,-0.11 0.12,-0.11 0.14,-0.11 0.41,0 0.84,0.03 1.25,0.03 0.25,0 0.87,-0.03 1.12,-0.03 0.06,0 0.18,0 0.18,0.2 0,0.11 -0.1,0.11 -0.23,0.11 -0.61,0 -0.61,0.07 -0.64,0.36 l -0.61,6.21 c -0.02,0.2 -0.02,0.24 -0.19,0.24 -0.16,0 -0.2,-0.07 -0.26,-0.17 z"
         inkscape:connector-curvature="0"
         style="fill:#000000;stroke-width:0" /><path
         id="path6156"
         d="m 481.79,683.1 0,0.02 0,0.01 -0.01,0.01 0,0.01 0,0.01 0,0.01 -0.01,0.01 0,0.02 0,0.01 -0.01,0.01 -0.01,0.01 0,0.01 -0.01,0.01 -0.01,0.01 0,0.01 -0.01,0.01 -0.01,0.01 -0.01,0.01 -0.01,0.01 -0.01,0.01 -0.01,0 -0.01,0.01 -0.02,0.01 -0.01,0 -0.01,0.01 -0.02,0 -0.01,0.01 -0.02,0 -0.01,0.01 -0.02,0 -0.01,0 -0.02,0 c -0.2,0 -0.39,-0.2 -0.39,-0.38 0,-0.11 0.08,-0.27 0.28,-0.27 0.18,0 0.39,0.18 0.39,0.38 z"
         inkscape:connector-curvature="0"
         style="fill:#000000;stroke-width:0" /><path
         id="path6158"
         d="m 480.31,678.42 -0.01,-0.05 -0.01,-0.04 -0.02,-0.04 -0.01,-0.05 -0.02,-0.04 -0.02,-0.04 -0.02,-0.04 -0.02,-0.04 -0.02,-0.04 -0.03,-0.04 -0.02,-0.04 -0.03,-0.03 -0.02,-0.04 -0.03,-0.03 -0.03,-0.03 -0.03,-0.03 -0.03,-0.03 -0.03,-0.03 -0.03,-0.03 -0.03,-0.02 -0.04,-0.03 -0.03,-0.02 -0.04,-0.02 -0.03,-0.01 -0.04,-0.02 -0.03,-0.01 -0.04,-0.02 -0.04,-0.01 -0.03,0 -0.04,-0.01 -0.04,0 -0.04,-0.01 c -0.09,0 -0.17,0.02 -0.25,0.05 0.18,0.08 0.24,0.25 0.24,0.35 0,0.17 -0.13,0.26 -0.27,0.26 -0.22,0 -0.4,-0.19 -0.4,-0.41 0,-0.27 0.27,-0.44 0.69,-0.44 0.42,0 1.23,0.25 1.45,1.1 l 0.62,2.49 c 0.03,0.08 0.04,0.14 0.04,0.24 0,0.38 -0.33,0.66 -0.75,0.66 -0.77,0 -1.21,-0.97 -1.21,-1.07 0,-0.09 0.09,-0.09 0.11,-0.09 0.09,0 0.09,0.02 0.14,0.13 0.18,0.4 0.54,0.83 0.94,0.83 0.18,0 0.24,-0.12 0.24,-0.34 0,-0.08 -0.01,-0.17 -0.02,-0.21 z"
         inkscape:connector-curvature="0"
         style="fill:#000000;stroke-width:0" /><path
         id="path6160"
         d="m 488.73,683.19 -0.01,0.56 0,0.55 -0.02,0.53 -0.02,0.52 -0.02,0.5 -0.03,0.49 -0.04,0.47 -0.04,0.46 -0.04,0.45 -0.04,0.43 -0.05,0.41 -0.05,0.4 -0.05,0.38 -0.06,0.37 -0.06,0.36 -0.05,0.34 -0.06,0.32 -0.06,0.31 -0.06,0.3 -0.06,0.28 -0.06,0.26 -0.05,0.25 -0.06,0.24 -0.06,0.22 -0.05,0.21 -0.05,0.19 -0.05,0.17 -0.05,0.17 -0.04,0.14 -0.04,0.13 -0.03,0.12 -0.04,0.1 c -0.67,2.21 -1.78,4.53 -3.44,6.58 -0.15,0.18 -0.19,0.23 -0.23,0.25 -0.02,0.01 -0.03,0.02 -0.18,0.02 -0.15,0 -0.23,0 -0.23,-0.1 0,-0.02 0,-0.04 0.13,-0.22 3.46,-4.83 4.23,-10.79 4.24,-17.51 0,-0.14 0.06,-0.14 0.28,-0.14 l 0.55,0 c 0.21,0 0.27,0 0.28,0.1 z"
         inkscape:connector-curvature="0"
         style="fill:#000000;stroke-width:0" /><path
         id="path6162"
         d="m 488.73,682.73 0,0.01 0,0.01 -0.01,0.01 0,0.01 0,0.01 0,0 -0.01,0.01 0,0.01 0,0 -0.01,0.01 0,0 -0.01,0.01 -0.01,0 0,0 -0.01,0.01 -0.01,0 0,0 -0.01,0 -0.01,0.01 -0.01,0 -0.01,0 -0.01,0 -0.02,0 -0.01,0 -0.01,0 -0.02,0 -0.01,0 -0.02,0 -0.02,0 -0.01,0 -0.02,0 -0.02,0 -0.55,0 c -0.22,0 -0.28,0 -0.28,-0.14 0,-1.02 -0.01,-3.38 -0.26,-5.86 -0.54,-5.13 -1.87,-8.69 -4.04,-11.74 -0.07,-0.09 -0.07,-0.11 -0.07,-0.13 0,-0.1 0.08,-0.1 0.23,-0.1 0.15,0 0.17,0 0.19,0.02 0.04,0.03 1.31,1.48 2.31,3.48 1.32,2.62 2.14,5.63 2.51,9.25 0.03,0.31 0.24,2.37 0.24,4.73 z"
         inkscape:connector-curvature="0"
         style="fill:#000000;stroke-width:0" /></g>  </g>
  <g
     transform="translate(2.1484375e-6,-19.011444)"
     style="display:none"
     inkscape:label="Commit_1"
     id="layer2"
     inkscape:groupmode="layer">
    <ellipse
       ry="16.032679"
       rx="21.534086"
       cy="111.63409"
       cx="82.835503"
       transform="matrix(0.65081471,0,0,0.61923156,3.3040903,28.04589)"
       id="path3024"
       style="fill:url(#pattern5542);fill-opacity:1;fill-rule:nonzero;stroke:#000000;stroke-width:1;stroke-linecap:butt;stroke-linejoin:round;stroke-miterlimit:4;stroke-dasharray:none;stroke-dashoffset:0;stroke-opacity:1" />
    <ellipse
       ry="13.989298"
       rx="16.504227"
       cy="115.56366"
       cx="153.88228"
       transform="matrix(0.63978666,0,0,0.61997306,47.41411,50.047445)"
       id="path3026"
       style="fill:url(#pattern5560);fill-opacity:1;fill-rule:nonzero;stroke:#000000;stroke-width:1;stroke-linecap:butt;stroke-linejoin:round;stroke-miterlimit:4;stroke-dasharray:none;stroke-dashoffset:0;stroke-opacity:1" />
    <text
       sodipodi:linespacing="125%"
       id="text5562"
       y="118.23579"
       x="35.837753"
       style="font-style:normal;font-variant:normal;font-weight:normal;font-stretch:normal;font-size:14px;line-height:125%;font-family:'Univers 55';-inkscape-font-specification:'Univers 55,';text-align:start;letter-spacing:0px;word-spacing:0px;writing-mode:lr-tb;text-anchor:start;fill:#000000;fill-opacity:1;stroke:none"
       xml:space="preserve"><tspan
         y="118.23579"
         x="35.837753"
         id="tspan5564"
         sodipodi:role="line">D<tspan
   id="tspan6502"
   style="font-size:65.00091553%;baseline-shift:sub">a</tspan></tspan></text>
    <text
       sodipodi:linespacing="125%"
       id="text5570"
       y="112.57718"
       x="151.21014"
       style="font-style:normal;font-variant:normal;font-weight:normal;font-stretch:normal;font-size:14px;line-height:125%;font-family:'Univers 55';-inkscape-font-specification:'Univers 55,';text-align:start;letter-spacing:0px;word-spacing:0px;writing-mode:lr-tb;text-anchor:start;fill:#000000;fill-opacity:1;stroke:none"
       xml:space="preserve"><tspan
         y="112.57718"
         x="151.21014"
         id="tspan5572"
         sodipodi:role="line">A<tspan
   id="tspan5681"
   style="font-size:65.00091553%;baseline-shift:sub">a</tspan></tspan></text>
  </g>
  <g
     transform="translate(2.1484375e-6,-19.011444)"
     inkscape:groupmode="layer"
     id="g5580"
     inkscape:label="Commit_2"
     style="display:none">
    <path
       sodipodi:type="arc"
       style="fill:url(#pattern5542);fill-opacity:1;fill-rule:nonzero;stroke:#000000;stroke-width:1;stroke-linecap:butt;stroke-linejoin:round;stroke-miterlimit:4;stroke-opacity:1;stroke-dasharray:none;stroke-dashoffset:0"
       id="path5582"
       sodipodi:cx="82.835503"
       sodipodi:cy="111.63409"
       sodipodi:rx="21.534086"
       sodipodi:ry="16.032679"
       d="M 104.36959,111.63409 A 21.534086,16.032679 0 0 1 82.835503,127.66677 21.534086,16.032679 0 0 1 61.301416,111.63409 21.534086,16.032679 0 0 1 82.835503,95.601408 21.534086,16.032679 0 0 1 104.36959,111.63409 Z"
       transform="matrix(0.91530206,0,0,0.83721943,25.249239,-16.879977)" />
    <path
       sodipodi:type="arc"
       style="fill:url(#pattern5560);fill-opacity:1;fill-rule:nonzero;stroke:#000000;stroke-width:1;stroke-linecap:butt;stroke-linejoin:round;stroke-miterlimit:4;stroke-opacity:1;stroke-dasharray:none;stroke-dashoffset:0"
       id="path5584"
       sodipodi:cx="153.88228"
       sodipodi:cy="115.56366"
       sodipodi:rx="16.504227"
       sodipodi:ry="13.989298"
       d="m 170.38651,115.56366 a 16.504227,13.989298 0 0 1 -16.50423,13.9893 16.504227,13.989298 0 0 1 -16.50423,-13.9893 16.504227,13.989298 0 0 1 16.50423,-13.9893 16.504227,13.989298 0 0 1 16.50423,13.9893 z"
       transform="matrix(0.85150803,0,0,0.89222858,-0.72718503,-54.191183)" />
    <text
       xml:space="preserve"
       style="font-size:14px;font-style:normal;font-variant:normal;font-weight:normal;font-stretch:normal;text-align:start;line-height:125%;letter-spacing:0px;word-spacing:0px;writing-mode:lr-tb;text-anchor:start;fill:#000000;fill-opacity:1;stroke:none;font-family:Univers 55;-inkscape-font-specification:'Univers 55,'"
       x="59.100849"
       y="65.107887"
       id="text5586"
       sodipodi:linespacing="125%"><tspan
         sodipodi:role="line"
         id="tspan5588"
         x="59.100849"
         y="65.107887">D<tspan
   id="tspan6504"
   style="font-size:65.00091553%;baseline-shift:sub">a+1</tspan></tspan></text>
    <text
       xml:space="preserve"
       style="font-size:14px;font-style:normal;font-variant:normal;font-weight:normal;font-stretch:normal;text-align:start;line-height:125%;letter-spacing:0px;word-spacing:0px;writing-mode:lr-tb;text-anchor:start;fill:#000000;fill-opacity:1;stroke:none;font-family:Univers 55;-inkscape-font-specification:'Univers 55,'"
       x="141.46481"
       y="61.335484"
       id="text5592"
       sodipodi:linespacing="125%"><tspan
         style="font-size:14px;font-style:normal;font-variant:normal;font-weight:normal;font-stretch:normal;text-align:start;line-height:125%;writing-mode:lr-tb;text-anchor:start;font-family:Univers 55;-inkscape-font-specification:'Univers 55,'"
         sodipodi:role="line"
         id="tspan5594"
         x="141.46481"
         y="61.335484">A<tspan
   id="tspan5677"
   style="font-size:65.00091553%;baseline-shift:sub">a+1</tspan></tspan></text>
  </g>
  <g
     transform="translate(2.1484375e-6,-19.011444)"
     style="display:none"
     inkscape:label="Commit_3"
     id="g5687"
     inkscape:groupmode="layer">
    <ellipse
       ry="16.032679"
       rx="21.534086"
       cy="111.63409"
       cx="82.835503"
       transform="matrix(0.36305788,0,0,0.56606797,48.203111,67.93231)"
       id="path5689"
       style="fill:url(#pattern5542);fill-opacity:1;fill-rule:nonzero;stroke:#000000;stroke-width:1;stroke-linecap:butt;stroke-linejoin:round;stroke-miterlimit:4;stroke-dasharray:none;stroke-dashoffset:0;stroke-opacity:1" />
    <ellipse
       ry="13.989298"
       rx="16.504227"
       cy="115.56366"
       cx="153.88228"
       inkscape:transform-center-y="2.7515109"
       transform="matrix(0.70084716,-0.22185023,0.11097148,0.36857301,-0.26995303,63.569107)"
       id="path5691"
       style="fill:url(#pattern5560);fill-opacity:1;fill-rule:nonzero;stroke:#000000;stroke-width:1;stroke-linecap:butt;stroke-linejoin:round;stroke-miterlimit:4;stroke-dasharray:none;stroke-dashoffset:0;stroke-opacity:1" />
    <text
       sodipodi:linespacing="125%"
       id="text5693"
       y="131.43916"
       x="53.442261"
       style="font-style:normal;font-variant:normal;font-weight:normal;font-stretch:normal;font-size:14px;line-height:125%;font-family:'Univers 55';-inkscape-font-specification:'Univers 55,';text-align:start;letter-spacing:0px;word-spacing:0px;writing-mode:lr-tb;text-anchor:start;fill:#000000;fill-opacity:1;stroke:none"
       xml:space="preserve"><tspan
         id="tspan5705"
         y="131.43916"
         x="53.442261"
         sodipodi:role="line">D<tspan
   style="font-size:65.00091553%;baseline-shift:sub"
   id="tspan5697">p</tspan></tspan></text>
    <text
       sodipodi:linespacing="125%"
       id="text5699"
       y="78.311264"
       x="129.83325"
       style="font-style:normal;font-variant:normal;font-weight:normal;font-stretch:normal;font-size:14px;line-height:125%;font-family:'Univers 55';-inkscape-font-specification:'Univers 55,';text-align:start;letter-spacing:0px;word-spacing:0px;writing-mode:lr-tb;text-anchor:start;fill:#000000;fill-opacity:1;stroke:none"
       xml:space="preserve"><tspan
         y="78.311264"
         x="129.83325"
         id="tspan5701"
         sodipodi:role="line"
         style="font-style:normal;font-variant:normal;font-weight:normal;font-stretch:normal;font-size:14px;line-height:125%;font-family:'Univers 55';-inkscape-font-specification:'Univers 55,';text-align:start;writing-mode:lr-tb;text-anchor:start">A<tspan
   id="tspan6506"
   style="font-size:65.00091553%;baseline-shift:sub">p</tspan></tspan></text>
  </g>
  <g
     transform="translate(-97.420548,-256.78872)"
     style="display:inline"
     id="layer1"
     inkscape:groupmode="layer"
     inkscape:label="R_a and R_b">
    <path
       sodipodi:nodetypes="ccccccccccsscsssscsc"
       inkscape:connector-curvature="0"
       id="path6868"
       d="m 165.59375,280.5 c -0.75202,0.0586 -1.50719,0.12883 -2.25,0.21875 0.74626,-0.0902 1.49475,-0.16007 2.25,-0.21875 z m -2.375,0.21875 c -0.96682,0.11936 -1.92518,0.26633 -2.875,0.4375 0.94557,-0.1697 1.9121,-0.31887 2.875,-0.4375 z m -3.28125,0.5 c -0.71587,0.1348 -1.4197,0.30522 -2.125,0.46875 0.70722,-0.16358 1.4062,-0.33393 2.125,-0.46875 z m -2.875,0.65625 c -22.8934,5.66754 -39.875,26.32465 -39.875,50.96875 0,29.01038 23.52087,52.53125 52.53125,52.53125 12.8989,0 24.70108,-4.66074 33.84375,-12.375 -5.00067,-4.21558 -9.22328,-9.34034 -12.375,-15.125 -0.45025,-0.82638 -0.87488,-1.6788 -1.28125,-2.53125 -3.25092,-6.81962 -5.0625,-14.44003 -5.0625,-22.5 0,-0.89604 0.0142,-1.80156 0.0625,-2.6875 0.0483,-0.88594 0.13083,-1.7523 0.21875,-2.625 -19.92156,-4.62231 -34.09375,-16.52556 -34.09375,-30.5 0,-5.47774 2.18018,-10.62552 6.03125,-15.15625 z"
       style="opacity:0.5;fill:none;stroke:none" />
    <path
       sodipodi:nodetypes="csccscssc"
       inkscape:connector-curvature="0"
       id="path6868-4"
       d="m 250.03125,281.875 c 3.845,4.52798 6.03125,9.68317 6.03125,15.15625 0,13.96748 -14.17942,25.87274 -34.09375,30.5 -0.01,0.002 -0.0215,-0.002 -0.0312,0 0.17468,1.74484 0.28125,3.52136 0.28125,5.3125 0,16.11148 -7.23652,30.52069 -18.65625,40.15625 9.1409,7.7059 20.92207,12.375 33.8125,12.375 29.01038,0 52.53125,-23.52087 52.53125,-52.53125 0,-24.6441 -16.98232,-45.30193 -39.875,-50.96875 z"
       style="opacity:0.5;fill:none;stroke:none" />
    <path
       sodipodi:nodetypes="scscscs"
       inkscape:connector-curvature="0"
       id="path6868-3"
       d="m 203.53125,264.4375 c -20.1658,0 -37.64234,7.06094 -46.4375,17.40625 4.03782,-0.9944 8.28035,-1.53125 12.625,-1.53125 12.8874,0 24.70752,4.64178 33.84375,12.34375 9.13369,-7.69276 20.93368,-12.34375 33.8125,-12.34375 4.35315,0 8.58012,0.53311 12.625,1.53125 -8.80437,-10.34531 -26.30295,-17.40625 -46.46875,-17.40625 z"
       style="opacity:0.5;fill:none;stroke:none" />
    <path
       inkscape:connector-curvature="0"
       id="path6912"
       d="m 169.71875,280.3125 c -4.35527,0 -8.60957,0.53214 -12.65625,1.53125 -3.8611,4.53527 -6.03125,9.70216 -6.03125,15.1875 0,13.97444 14.17219,25.87769 34.09375,30.5 1.40223,-13.96994 8.26797,-26.30981 18.4375,-34.875 -9.13623,-7.70197 -20.95635,-12.34375 -33.84375,-12.34375 z"
       style="opacity:0.5;fill:none;stroke:none" />
    <path
       inkscape:connector-curvature="0"
       id="path6917"
       d="m 237.375,280.3125 c -12.87882,0 -24.67881,4.65099 -33.8125,12.34375 7.61963,6.42345 13.3823,14.98539 16.375,24.75 0.24939,0.81372 0.477,1.63872 0.6875,2.46875 0.6315,2.49009 1.08099,5.03845 1.34375,7.65625 19.91433,-4.62726 34.09375,-16.53252 34.09375,-30.5 0,-5.48068 -2.17626,-10.65501 -6.03125,-15.1875 -4.05387,-1.0029 -8.29246,-1.53125 -12.65625,-1.53125 z"
       style="opacity:0.5;fill:none;stroke:none" />
    <path
       inkscape:connector-curvature="0"
       id="path6922"
       d="m 185.125,327.53125 c -0.17584,1.7454 -0.28125,3.52042 -0.28125,5.3125 0,16.11994 7.28864,30.52065 18.71875,40.15625 11.41973,-9.63556 18.65625,-24.04477 18.65625,-40.15625 0,-1.79114 -0.10657,-3.56766 -0.28125,-5.3125 -0.59591,0.13834 -1.20694,0.28122 -1.8125,0.40625 -0.1667,0.0344 -0.33257,0.0604 -0.5,0.0937 -0.43992,0.0878 -0.86759,0.16927 -1.3125,0.25 -0.48619,0.0882 -0.97683,0.17037 -1.46875,0.25 -0.10327,0.0167 -0.20898,0.0462 -0.3125,0.0625 -0.663,0.1046 -1.3272,0.19245 -2,0.28125 -0.35487,0.0469 -0.70501,0.0825 -1.0625,0.125 -0.29986,0.0356 -0.60461,0.0614 -0.90625,0.0937 -1.38919,0.14923 -2.79447,0.29485 -4.21875,0.375 -0.22654,0.0128 -0.46014,0.0203 -0.6875,0.0312 -0.68148,0.0328 -1.37538,0.0473 -2.0625,0.0625 -0.68712,0.0152 -1.36745,0.0312 -2.0625,0.0312 -0.90557,0 -1.7942,-0.003 -2.6875,-0.0312 -0.47878,-0.015 -0.9622,-0.0396 -1.4375,-0.0625 -0.41699,-0.0201 -0.83594,-0.0363 -1.25,-0.0625 -0.59927,-0.0377 -1.18813,-0.10616 -1.78125,-0.15625 -0.28025,-0.0238 -0.56496,-0.036 -0.84375,-0.0625 -0.35645,-0.0337 -0.70846,-0.0868 -1.0625,-0.125 -0.29168,-0.0315 -0.585,-0.0592 -0.875,-0.0937 -0.35479,-0.0421 -0.71029,-0.0785 -1.0625,-0.125 -0.62115,-0.082 -1.23097,-0.18576 -1.84375,-0.28125 -0.093,-0.0145 -0.18847,-0.0164 -0.28125,-0.0312 -0.21063,-0.0336 -0.41541,-0.0898 -0.625,-0.125 -0.18748,-0.0316 -0.37583,-0.0609 -0.5625,-0.0937 -0.59537,-0.10432 -1.1947,-0.19561 -1.78125,-0.3125 -0.66536,-0.13295 -1.31463,-0.25742 -1.96875,-0.40625 -0.11702,-0.0266 -0.22712,-0.0667 -0.34375,-0.0937 z"
       style="opacity:0.5;fill:none;stroke:none" />
    <path
       inkscape:connector-curvature="0"
       id="path7716"
       d="m 169.71875,280.3125 c -2.19873,0 -4.36646,0.14339 -6.5,0.40625 -0.84726,0.10438 -1.69512,0.23015 -2.53125,0.375 -0.11431,0.0199 -0.22968,0.0419 -0.34375,0.0625 -0.13475,0.0242 -0.27188,0.0373 -0.40625,0.0625 -0.47584,0.0892 -0.93964,0.20438 -1.40625,0.3125 -0.23858,0.0552 -0.48035,0.10098 -0.71875,0.15625 -0.24898,0.0576 -0.50255,0.0951 -0.75,0.15625 -0.005,0.006 0.005,0.025 0,0.0312 -22.8934,5.66754 -39.875,26.32465 -39.875,50.96875 0,29.01038 23.52087,52.53125 52.53125,52.53125 12.8989,0 24.70108,-4.66074 33.84375,-12.375 11.41973,-9.63556 18.65625,-24.04477 18.65625,-40.15625 0,-1.79114 -0.10657,-3.56766 -0.28125,-5.3125 0.01,-0.002 0.0215,0.002 0.0312,0 -1.40139,-13.96158 -8.24675,-26.3104 -18.40625,-34.875 -9.13623,-7.70197 -20.95635,-12.34375 -33.84375,-12.34375 z m 21.46875,77.5625 c 0.45025,0.82638 0.94491,1.63868 1.4375,2.4375 0.49259,0.79882 0.99785,1.57398 1.53125,2.34375 0.49558,0.71519 1.00173,1.43612 1.53125,2.125 -0.5337,-0.69261 -1.03205,-1.40574 -1.53125,-2.125 -0.52844,-0.76138 -1.04307,-1.55387 -1.53125,-2.34375 -0.49795,-0.80569 -0.98318,-1.60364 -1.4375,-2.4375 z"
       style="opacity:0.5;fill:none;stroke:none" />
    <path
       sodipodi:nodetypes="sscccccccssssccss"
       inkscape:connector-curvature="0"
       id="path7725"
       d="m 169.71875,280.3125 c -2.19873,0 -4.36646,0.14339 -6.5,0.40625 -0.84726,0.10438 -1.69512,0.23015 -2.53125,0.375 -0.11431,0.0199 -0.22968,0.0419 -0.34375,0.0625 -0.13475,0.0242 -0.27188,0.0373 -0.40625,0.0625 -0.47584,0.0892 -0.93964,0.20438 -1.40625,0.3125 -0.23858,0.0552 -0.48035,0.10098 -0.71875,0.15625 -0.24898,0.0576 -0.50255,0.0951 -0.75,0.15625 -0.005,0.006 0.005,0.025 0,0.0312 -22.8934,5.66754 -39.875,26.32465 -39.875,50.96875 0,29.01038 23.52087,52.53125 52.53125,52.53125 12.8989,0 24.70108,-4.66074 33.84375,-12.375 11.41973,-9.63556 18.65625,-24.04477 18.65625,-40.15625 0,-1.79114 -0.10657,-3.56766 -0.28125,-5.3125 0.01,-0.002 0.0215,0.002 0.0312,0 -1.40139,-13.96158 -8.24675,-26.3104 -18.40625,-34.875 -9.13623,-7.70197 -20.95635,-12.34375 -33.84375,-12.34375 z"
       style="fill:none;stroke:#252a8f;stroke-width:1;stroke-miterlimit:4;stroke-dasharray:none;stroke-opacity:1" />
    <path
       sodipodi:nodetypes="cscsssscccc"
       inkscape:connector-curvature="0"
       id="path7734"
       d="m 237.375,280.3125 c -12.87882,0 -24.67881,4.65099 -33.8125,12.34375 -10.16953,8.56519 -17.03527,20.90506 -18.4375,34.875 -0.17584,1.7454 -0.28125,3.52042 -0.28125,5.3125 0,16.11994 7.28864,30.52065 18.71875,40.15625 9.1409,7.7059 20.92207,12.375 33.8125,12.375 29.01038,0 52.53125,-23.52087 52.53125,-52.53125 0,-24.63352 -16.96598,-45.29149 -39.84375,-50.96875 -0.01,-0.0113 -0.0216,-0.0199 -0.0312,-0.0312 -4.05387,-1.0029 -8.29246,-1.53125 -12.65625,-1.53125 z"
       style="fill:none;stroke:#8f253c;stroke-width:1;stroke-miterlimit:4;stroke-dasharray:none;stroke-opacity:1" />
    <text
       sodipodi:linespacing="125%"
       id="text7898"
       y="392.99615"
       x="110.18503"
       style="font-style:normal;font-variant:normal;font-weight:normal;font-stretch:normal;font-size:18px;line-height:125%;font-family:'Univers 55';-inkscape-font-specification:'Univers 55,';text-align:start;letter-spacing:0px;word-spacing:0px;writing-mode:lr-tb;text-anchor:start;fill:#252a8f;fill-opacity:1;stroke:none"
       xml:space="preserve"><tspan
         y="392.99615"
         x="110.18503"
         id="tspan7900"
         sodipodi:role="line">R<tspan
   id="tspan6498"
   style="font-size:65.00091553%;baseline-shift:sub">a</tspan><tspan
   style="font-size:65.00091553%;baseline-shift:sub"
   id="tspan5683" /></tspan></text>
    <text
       sodipodi:linespacing="125%"
       id="text7898-0"
       y="392.99615"
       x="273.83337"
       style="font-style:normal;font-variant:normal;font-weight:normal;font-stretch:normal;font-size:18px;line-height:125%;font-family:'Univers 55';-inkscape-font-specification:'Univers 55,';text-align:start;letter-spacing:0px;word-spacing:0px;writing-mode:lr-tb;text-anchor:start;display:inline;fill:#8f253c;fill-opacity:1;stroke:none;enable-background:new"
       xml:space="preserve"><tspan
         y="392.99615"
         x="273.83337"
         id="tspan7900-4"
         sodipodi:role="line">R<tspan
   id="tspan6500"
   style="font-size:65.00091553%;baseline-shift:sub">b</tspan></tspan></text>
  </g>
  <g
     style="display:none"
     inkscape:label="AD"
     id="layer6"
     inkscape:groupmode="layer">
    <path
       sodipodi:nodetypes="cccscccccccscccccccsccsccccccccscccc"
       inkscape:connector-curvature="0"
       id="path7743"
       d="m 106.1107,7.6487879 c -20.165796,0 -37.642336,7.0609401 -46.437496,17.4062501 -0.01,0.002 -0.0214,-0.002 -0.0312,0 -3.8611,4.53527 -6.03125,9.70216 -6.03125,15.1875 0,13.97444 14.17219,25.87769 34.09375,30.5 0.11663,0.0271 0.22673,0.0672 0.34375,0.0937 0.65412,0.14883 1.30339,0.2733 1.96875,0.40625 0.58655,0.11689 1.18588,0.20818 1.78125,0.3125 0.18667,0.0328 0.37502,0.0622 0.5625,0.0937 0.20959,0.0352 0.41437,0.0914 0.625,0.125 0.0928,0.0149 0.18828,0.0167 0.28125,0.0312 0.61278,0.0955 1.2226,0.19924 1.84375,0.28125 0.35221,0.0465 0.70771,0.0829 1.0625,0.125 0.29,0.0345 0.58332,0.0622 0.875,0.0937 0.35404,0.0382 0.70605,0.0913 1.0625,0.125 0.27879,0.0265 0.5635,0.0387 0.84375,0.0625 0.59312,0.0501 1.181976,0.11854 1.781246,0.15625 0.41406,0.0262 0.83301,0.0424 1.25,0.0625 0.4753,0.0229 0.95872,0.0475 1.4375,0.0625 0.8933,0.0281 1.78193,0.0312 2.6875,0.0312 1.3901,0 2.76204,-0.0281 4.125,-0.0937 0.22736,-0.011 0.46096,-0.0185 0.6875,-0.0312 1.42428,-0.0802 2.82956,-0.22577 4.21875,-0.375 0.30164,-0.0324 0.60639,-0.0582 0.90625,-0.0937 0.35749,-0.0425 0.70763,-0.0781 1.0625,-0.125 0.6728,-0.0888 1.337,-0.17665 2,-0.28125 0.10352,-0.0163 0.20923,-0.0458 0.3125,-0.0625 0.49192,-0.0796 0.98256,-0.16182 1.46875,-0.25 0.44491,-0.0807 0.87258,-0.16222 1.3125,-0.25 0.16743,-0.0333 0.3333,-0.0594 0.5,-0.0937 0.61551,-0.12708 1.23862,-0.26556 1.84375,-0.40625 19.91433,-4.62726 34.09375,-16.53252 34.09375,-30.5 0,-5.48068 -2.17626,-10.65501 -6.03125,-15.1875 -0.01,-0.002 -0.0214,0.002 -0.0312,0 C 143.77518,14.709678 126.2766,7.6487379 106.1108,7.6487379 Z"
       style="display:inline;fill:none;stroke:#2a8f25;stroke-width:1;stroke-miterlimit:4;stroke-dasharray:none;stroke-opacity:1;enable-background:new" />
    <text
       sodipodi:linespacing="125%"
       id="text7898-6"
       y="0.90878415"
       x="96.817719"
       style="font-style:normal;font-variant:normal;font-weight:normal;font-stretch:normal;font-size:18px;line-height:125%;font-family:'Univers 55';-inkscape-font-specification:'Univers 55,';text-align:start;letter-spacing:0px;word-spacing:0px;writing-mode:lr-tb;text-anchor:start;display:inline;fill:#2a8f25;fill-opacity:1;stroke:none;enable-background:new"
       xml:space="preserve"><tspan
         y="0.90878415"
         x="96.817719"
         id="tspan7900-3"
         sodipodi:role="line">AD<tspan
   id="tspan7902-5"
   style="font-style:normal;font-variant:normal;font-weight:normal;font-stretch:normal;font-size:18px;line-height:125%;font-family:'Univers 55';-inkscape-font-specification:'Univers 55,';text-align:start;writing-mode:lr-tb;baseline-shift:sub;text-anchor:start;fill:#2a8f25;fill-opacity:1" /></tspan></text>
  </g>
</svg>
