<?xml version="1.0" encoding="UTF-8" standalone="no"?>
<!-- Created with Inkscape (http://www.inkscape.org/) -->

<svg
   xmlns:osb="http://www.openswatchbook.org/uri/2009/osb"
   xmlns:dc="http://purl.org/dc/elements/1.1/"
   xmlns:cc="http://creativecommons.org/ns#"
   xmlns:rdf="http://www.w3.org/1999/02/22-rdf-syntax-ns#"
   xmlns:svg="http://www.w3.org/2000/svg"
   xmlns="http://www.w3.org/2000/svg"
   xmlns:sodipodi="http://sodipodi.sourceforge.net/DTD/sodipodi-0.dtd"
   xmlns:inkscape="http://www.inkscape.org/namespaces/inkscape"
   width="214.0834"
   height="163.81888"
   id="svg2"
   version="1.1"
   inkscape:version="0.48.4 r9939"
   sodipodi:docname="R43ples-Set.svg"
   inkscape:export-filename="/home/mgraube/R43ples-Set-5.png"
   inkscape:export-xdpi="600"
   inkscape:export-ydpi="600"
   style="enable-background:new">
  <defs
     id="defs4">
    <linearGradient
       id="linearGradient5410"
       osb:paint="solid">
      <stop
         style="stop-color:#54a31f;stop-opacity:1;"
         offset="0"
         id="stop5412" />
    </linearGradient>
    <pattern
       inkscape:stockid="Stripes 1:1"
       id="Strips1_1"
       patternTransform="translate(0,0) scale(10,10)"
       height="1"
       width="2"
       patternUnits="userSpaceOnUse"
       inkscape:collect="always">
      <rect
         id="rect4478"
         height="2"
         width="1"
         y="-0.5"
         x="0"
         style="fill:black;stroke:none" />
    </pattern>
    <pattern
       patternUnits="userSpaceOnUse"
       width="256.31208"
       height="183.52415"
       patternTransform="translate(147.56744,234.17804)"
       id="pattern5213">
      <path
         sodipodi:end="10.26051"
         sodipodi:start="4.282979"
         d="m 222.78035,243.45515 a 127.14286,90.714287 0 1 1 -32.33249,15.18774 l 85.26643,67.29073 z"
         sodipodi:ry="90.714287"
         sodipodi:rx="127.14286"
         sodipodi:cy="325.93362"
         sodipodi:cx="275.71429"
         id="path2985"
         style="fill:url(#Strips1_1);fill-opacity:1;stroke:#ff0000;stroke-width:2;stroke-miterlimit:4;stroke-dasharray:none"
         sodipodi:type="arc"
         transform="translate(-147.56744,-234.17804)" />
    </pattern>
  </defs>
  <sodipodi:namedview
     id="base"
     pagecolor="#ffffff"
     bordercolor="#666666"
     borderopacity="1.0"
     inkscape:pageopacity="0.0"
     inkscape:pageshadow="2"
     inkscape:zoom="3.1810032"
     inkscape:cx="32.901407"
     inkscape:cy="47.787114"
     inkscape:document-units="px"
     inkscape:current-layer="layer6"
     showgrid="false"
     inkscape:window-width="1920"
     inkscape:window-height="1060"
     inkscape:window-x="1022"
     inkscape:window-y="-3"
     inkscape:window-maximized="1"
     fit-margin-top="5"
     fit-margin-left="5"
     fit-margin-right="5"
     fit-margin-bottom="5" />
  <metadata
     id="metadata7">
    <rdf:RDF>
      <cc:Work
         rdf:about="">
        <dc:format>image/svg+xml</dc:format>
        <dc:type
           rdf:resource="http://purl.org/dc/dcmitype/StillImage" />
        <dc:title />
      </cc:Work>
    </rdf:RDF>
  </metadata>
  <g
     inkscape:label="Ebene 1"
     inkscape:groupmode="layer"
     id="layer1"
     style="display:inline"
     transform="translate(-97.420548,-237.77727)">
    <path
       style="opacity:0.5;fill:none;stroke:none"
       d="m 165.59375,280.5 c -0.75202,0.0586 -1.50719,0.12883 -2.25,0.21875 0.74626,-0.0902 1.49475,-0.16007 2.25,-0.21875 z m -2.375,0.21875 c -0.96682,0.11936 -1.92518,0.26633 -2.875,0.4375 0.94557,-0.1697 1.9121,-0.31887 2.875,-0.4375 z m -3.28125,0.5 c -0.71587,0.1348 -1.4197,0.30522 -2.125,0.46875 0.70722,-0.16358 1.4062,-0.33393 2.125,-0.46875 z m -2.875,0.65625 c -22.8934,5.66754 -39.875,26.32465 -39.875,50.96875 0,29.01038 23.52087,52.53125 52.53125,52.53125 12.8989,0 24.70108,-4.66074 33.84375,-12.375 -5.00067,-4.21558 -9.22328,-9.34034 -12.375,-15.125 -0.45025,-0.82638 -0.87488,-1.6788 -1.28125,-2.53125 -3.25092,-6.81962 -5.0625,-14.44003 -5.0625,-22.5 0,-0.89604 0.0142,-1.80156 0.0625,-2.6875 0.0483,-0.88594 0.13083,-1.7523 0.21875,-2.625 -19.92156,-4.62231 -34.09375,-16.52556 -34.09375,-30.5 0,-5.47774 2.18018,-10.62552 6.03125,-15.15625 z"
       id="path6868"
       inkscape:connector-curvature="0"
       sodipodi:nodetypes="ccccccccccsscsssscsc" />
    <path
       style="opacity:0.5;fill:none;stroke:none"
       d="m 250.03125,281.875 c 3.845,4.52798 6.03125,9.68317 6.03125,15.15625 0,13.96748 -14.17942,25.87274 -34.09375,30.5 -0.01,0.002 -0.0215,-0.002 -0.0312,0 0.17468,1.74484 0.28125,3.52136 0.28125,5.3125 0,16.11148 -7.23652,30.52069 -18.65625,40.15625 9.1409,7.7059 20.92207,12.375 33.8125,12.375 29.01038,0 52.53125,-23.52087 52.53125,-52.53125 0,-24.6441 -16.98232,-45.30193 -39.875,-50.96875 z"
       id="path6868-4"
       inkscape:connector-curvature="0"
       sodipodi:nodetypes="csccscssc" />
    <path
       style="opacity:0.5;fill:none;stroke:none"
       d="m 203.53125,264.4375 c -20.1658,0 -37.64234,7.06094 -46.4375,17.40625 4.03782,-0.9944 8.28035,-1.53125 12.625,-1.53125 12.8874,0 24.70752,4.64178 33.84375,12.34375 9.13369,-7.69276 20.93368,-12.34375 33.8125,-12.34375 4.35315,0 8.58012,0.53311 12.625,1.53125 -8.80437,-10.34531 -26.30295,-17.40625 -46.46875,-17.40625 z"
       id="path6868-3"
       inkscape:connector-curvature="0"
       sodipodi:nodetypes="scscscs" />
    <path
       style="opacity:0.5;fill:none;stroke:none"
       d="m 169.71875,280.3125 c -4.35527,0 -8.60957,0.53214 -12.65625,1.53125 -3.8611,4.53527 -6.03125,9.70216 -6.03125,15.1875 0,13.97444 14.17219,25.87769 34.09375,30.5 1.40223,-13.96994 8.26797,-26.30981 18.4375,-34.875 -9.13623,-7.70197 -20.95635,-12.34375 -33.84375,-12.34375 z"
       id="path6912"
       inkscape:connector-curvature="0" />
    <path
       style="opacity:0.5;fill:none;stroke:none"
       d="m 237.375,280.3125 c -12.87882,0 -24.67881,4.65099 -33.8125,12.34375 7.61963,6.42345 13.3823,14.98539 16.375,24.75 0.24939,0.81372 0.477,1.63872 0.6875,2.46875 0.6315,2.49009 1.08099,5.03845 1.34375,7.65625 19.91433,-4.62726 34.09375,-16.53252 34.09375,-30.5 0,-5.48068 -2.17626,-10.65501 -6.03125,-15.1875 -4.05387,-1.0029 -8.29246,-1.53125 -12.65625,-1.53125 z"
       id="path6917"
       inkscape:connector-curvature="0" />
    <path
       style="opacity:0.5;fill:none;stroke:none"
       d="m 185.125,327.53125 c -0.17584,1.7454 -0.28125,3.52042 -0.28125,5.3125 0,16.11994 7.28864,30.52065 18.71875,40.15625 11.41973,-9.63556 18.65625,-24.04477 18.65625,-40.15625 0,-1.79114 -0.10657,-3.56766 -0.28125,-5.3125 -0.59591,0.13834 -1.20694,0.28122 -1.8125,0.40625 -0.1667,0.0344 -0.33257,0.0604 -0.5,0.0937 -0.43992,0.0878 -0.86759,0.16927 -1.3125,0.25 -0.48619,0.0882 -0.97683,0.17037 -1.46875,0.25 -0.10327,0.0167 -0.20898,0.0462 -0.3125,0.0625 -0.663,0.1046 -1.3272,0.19245 -2,0.28125 -0.35487,0.0469 -0.70501,0.0825 -1.0625,0.125 -0.29986,0.0356 -0.60461,0.0614 -0.90625,0.0937 -1.38919,0.14923 -2.79447,0.29485 -4.21875,0.375 -0.22654,0.0128 -0.46014,0.0203 -0.6875,0.0312 -0.68148,0.0328 -1.37538,0.0473 -2.0625,0.0625 -0.68712,0.0152 -1.36745,0.0312 -2.0625,0.0312 -0.90557,0 -1.7942,-0.003 -2.6875,-0.0312 -0.47878,-0.015 -0.9622,-0.0396 -1.4375,-0.0625 -0.41699,-0.0201 -0.83594,-0.0363 -1.25,-0.0625 -0.59927,-0.0377 -1.18813,-0.10616 -1.78125,-0.15625 -0.28025,-0.0238 -0.56496,-0.036 -0.84375,-0.0625 -0.35645,-0.0337 -0.70846,-0.0868 -1.0625,-0.125 -0.29168,-0.0315 -0.585,-0.0592 -0.875,-0.0937 -0.35479,-0.0421 -0.71029,-0.0785 -1.0625,-0.125 -0.62115,-0.082 -1.23097,-0.18576 -1.84375,-0.28125 -0.093,-0.0145 -0.18847,-0.0164 -0.28125,-0.0312 -0.21063,-0.0336 -0.41541,-0.0898 -0.625,-0.125 -0.18748,-0.0316 -0.37583,-0.0609 -0.5625,-0.0937 -0.59537,-0.10432 -1.1947,-0.19561 -1.78125,-0.3125 -0.66536,-0.13295 -1.31463,-0.25742 -1.96875,-0.40625 -0.11702,-0.0266 -0.22712,-0.0667 -0.34375,-0.0937 z"
       id="path6922"
       inkscape:connector-curvature="0" />
    <path
       id="path6955"
       d="m 203.5625,292.65625 c -10.16953,8.56519 -17.03527,20.90506 -18.4375,34.875 0.11663,0.0271 0.22673,0.0672 0.34375,0.0937 0.65412,0.14883 1.30339,0.2733 1.96875,0.40625 0.58655,0.11689 1.18588,0.20818 1.78125,0.3125 0.18667,0.0328 0.37502,0.0622 0.5625,0.0937 0.20959,0.0352 0.41437,0.0914 0.625,0.125 0.0928,0.0149 0.18828,0.0167 0.28125,0.0312 0.61278,0.0955 1.2226,0.19924 1.84375,0.28125 0.35221,0.0465 0.70771,0.0829 1.0625,0.125 0.29,0.0345 0.58332,0.0622 0.875,0.0937 0.35404,0.0382 0.70605,0.0913 1.0625,0.125 0.27879,0.0265 0.5635,0.0387 0.84375,0.0625 0.59312,0.0501 1.18198,0.11854 1.78125,0.15625 0.41406,0.0262 0.83301,0.0424 1.25,0.0625 0.4753,0.0229 0.95872,0.0475 1.4375,0.0625 0.8933,0.0281 1.78193,0.0312 2.6875,0.0312 1.3901,0 2.76204,-0.0281 4.125,-0.0937 0.22736,-0.011 0.46096,-0.0185 0.6875,-0.0312 1.42428,-0.0802 2.82956,-0.22577 4.21875,-0.375 0.30164,-0.0324 0.60639,-0.0582 0.90625,-0.0937 0.35749,-0.0425 0.70763,-0.0781 1.0625,-0.125 0.6728,-0.0888 1.337,-0.17665 2,-0.28125 0.10352,-0.0163 0.20923,-0.0458 0.3125,-0.0625 0.49192,-0.0796 0.98256,-0.16182 1.46875,-0.25 0.44491,-0.0807 0.87258,-0.16222 1.3125,-0.25 0.16743,-0.0333 0.3333,-0.0594 0.5,-0.0937 0.61551,-0.12708 1.23862,-0.26556 1.84375,-0.40625 -1.40139,-13.96158 -8.24675,-26.3104 -18.40625,-34.875 z"
       style="opacity:0.5;fill:none;stroke:none"
       inkscape:connector-curvature="0" />
    <path
       style="opacity:0.5;fill:none;stroke:none"
       d="m 169.71875,280.3125 c -2.19873,0 -4.36646,0.14339 -6.5,0.40625 -0.84726,0.10438 -1.69512,0.23015 -2.53125,0.375 -0.11431,0.0199 -0.22968,0.0419 -0.34375,0.0625 -0.13475,0.0242 -0.27188,0.0373 -0.40625,0.0625 -0.47584,0.0892 -0.93964,0.20438 -1.40625,0.3125 -0.23858,0.0552 -0.48035,0.10098 -0.71875,0.15625 -0.24898,0.0576 -0.50255,0.0951 -0.75,0.15625 -0.005,0.006 0.005,0.025 0,0.0312 -22.8934,5.66754 -39.875,26.32465 -39.875,50.96875 0,29.01038 23.52087,52.53125 52.53125,52.53125 12.8989,0 24.70108,-4.66074 33.84375,-12.375 11.41973,-9.63556 18.65625,-24.04477 18.65625,-40.15625 0,-1.79114 -0.10657,-3.56766 -0.28125,-5.3125 0.01,-0.002 0.0215,0.002 0.0312,0 -1.40139,-13.96158 -8.24675,-26.3104 -18.40625,-34.875 -9.13623,-7.70197 -20.95635,-12.34375 -33.84375,-12.34375 z m 21.46875,77.5625 c 0.45025,0.82638 0.94491,1.63868 1.4375,2.4375 0.49259,0.79882 0.99785,1.57398 1.53125,2.34375 0.49558,0.71519 1.00173,1.43612 1.53125,2.125 -0.5337,-0.69261 -1.03205,-1.40574 -1.53125,-2.125 -0.52844,-0.76138 -1.04307,-1.55387 -1.53125,-2.34375 -0.49795,-0.80569 -0.98318,-1.60364 -1.4375,-2.4375 z"
       id="path7716"
       inkscape:connector-curvature="0" />
    <path
       style="fill:none;stroke:#252a8f;stroke-width:1;stroke-miterlimit:4;stroke-opacity:1;stroke-dasharray:none"
       d="m 169.71875,280.3125 c -2.19873,0 -4.36646,0.14339 -6.5,0.40625 -0.84726,0.10438 -1.69512,0.23015 -2.53125,0.375 -0.11431,0.0199 -0.22968,0.0419 -0.34375,0.0625 -0.13475,0.0242 -0.27188,0.0373 -0.40625,0.0625 -0.47584,0.0892 -0.93964,0.20438 -1.40625,0.3125 -0.23858,0.0552 -0.48035,0.10098 -0.71875,0.15625 -0.24898,0.0576 -0.50255,0.0951 -0.75,0.15625 -0.005,0.006 0.005,0.025 0,0.0312 -22.8934,5.66754 -39.875,26.32465 -39.875,50.96875 0,29.01038 23.52087,52.53125 52.53125,52.53125 12.8989,0 24.70108,-4.66074 33.84375,-12.375 11.41973,-9.63556 18.65625,-24.04477 18.65625,-40.15625 0,-1.79114 -0.10657,-3.56766 -0.28125,-5.3125 0.01,-0.002 0.0215,0.002 0.0312,0 -1.40139,-13.96158 -8.24675,-26.3104 -18.40625,-34.875 -9.13623,-7.70197 -20.95635,-12.34375 -33.84375,-12.34375 z"
       id="path7725"
       inkscape:connector-curvature="0"
       sodipodi:nodetypes="sscccccccssssccss" />
    <path
       style="fill:none;stroke:#8f253c;stroke-width:1;stroke-miterlimit:4;stroke-opacity:1;stroke-dasharray:none"
       d="m 237.375,280.3125 c -12.87882,0 -24.67881,4.65099 -33.8125,12.34375 -10.16953,8.56519 -17.03527,20.90506 -18.4375,34.875 -0.17584,1.7454 -0.28125,3.52042 -0.28125,5.3125 0,16.11994 7.28864,30.52065 18.71875,40.15625 9.1409,7.7059 20.92207,12.375 33.8125,12.375 29.01038,0 52.53125,-23.52087 52.53125,-52.53125 0,-24.63352 -16.96598,-45.29149 -39.84375,-50.96875 -0.01,-0.0113 -0.0216,-0.0199 -0.0312,-0.0312 -4.05387,-1.0029 -8.29246,-1.53125 -12.65625,-1.53125 z"
       id="path7734"
       inkscape:connector-curvature="0"
       sodipodi:nodetypes="cscsssscccc" />
    <path
       style="fill:none;stroke:#2a8f25;stroke-width:1;stroke-miterlimit:4;stroke-opacity:1;stroke-dasharray:none"
       d="m 203.53125,264.4375 c -20.1658,0 -37.64234,7.06094 -46.4375,17.40625 -0.01,0.002 -0.0214,-0.002 -0.0312,0 -3.8611,4.53527 -6.03125,9.70216 -6.03125,15.1875 0,13.97444 14.17219,25.87769 34.09375,30.5 0.11663,0.0271 0.22673,0.0672 0.34375,0.0937 0.65412,0.14883 1.30339,0.2733 1.96875,0.40625 0.58655,0.11689 1.18588,0.20818 1.78125,0.3125 0.18667,0.0328 0.37502,0.0622 0.5625,0.0937 0.20959,0.0352 0.41437,0.0914 0.625,0.125 0.0928,0.0149 0.18828,0.0167 0.28125,0.0312 0.61278,0.0955 1.2226,0.19924 1.84375,0.28125 0.35221,0.0465 0.70771,0.0829 1.0625,0.125 0.29,0.0345 0.58332,0.0622 0.875,0.0937 0.35404,0.0382 0.70605,0.0913 1.0625,0.125 0.27879,0.0265 0.5635,0.0387 0.84375,0.0625 0.59312,0.0501 1.18198,0.11854 1.78125,0.15625 0.41406,0.0262 0.83301,0.0424 1.25,0.0625 0.4753,0.0229 0.95872,0.0475 1.4375,0.0625 0.8933,0.0281 1.78193,0.0312 2.6875,0.0312 1.3901,0 2.76204,-0.0281 4.125,-0.0937 0.22736,-0.011 0.46096,-0.0185 0.6875,-0.0312 1.42428,-0.0802 2.82956,-0.22577 4.21875,-0.375 0.30164,-0.0324 0.60639,-0.0582 0.90625,-0.0937 0.35749,-0.0425 0.70763,-0.0781 1.0625,-0.125 0.6728,-0.0888 1.337,-0.17665 2,-0.28125 0.10352,-0.0163 0.20923,-0.0458 0.3125,-0.0625 0.49192,-0.0796 0.98256,-0.16182 1.46875,-0.25 0.44491,-0.0807 0.87258,-0.16222 1.3125,-0.25 0.16743,-0.0333 0.3333,-0.0594 0.5,-0.0937 0.61551,-0.12708 1.23862,-0.26556 1.84375,-0.40625 19.91433,-4.62726 34.09375,-16.53252 34.09375,-30.5 0,-5.48068 -2.17626,-10.65501 -6.03125,-15.1875 -0.01,-0.002 -0.0214,0.002 -0.0312,0 -8.80437,-10.34531 -26.30295,-17.40625 -46.46875,-17.40625 z"
       id="path7743"
       inkscape:connector-curvature="0"
       sodipodi:nodetypes="cccscccccccscccccccsccsccccccccscccc" />
    <g
       id="g8007"
       transform="translate(3.1046233,0)">
      <text
         sodipodi:linespacing="125%"
         id="text7898"
         y="392.99615"
         x="107.08041"
         style="font-size:18px;font-style:normal;font-variant:normal;font-weight:normal;font-stretch:normal;text-align:start;line-height:125%;letter-spacing:0px;word-spacing:0px;writing-mode:lr-tb;text-anchor:start;fill:#252a8f;fill-opacity:1;stroke:none;font-family:Univers 55;-inkscape-font-specification:'Univers 55,'"
         xml:space="preserve"><tspan
           y="392.99615"
           x="107.08041"
           id="tspan7900"
           sodipodi:role="line">R<tspan
   id="tspan7902"
   style="font-size:18px;font-style:normal;font-variant:normal;font-weight:normal;font-stretch:normal;text-align:start;line-height:125%;writing-mode:lr-tb;text-anchor:start;baseline-shift:sub;fill:#252a8f;fill-opacity:1;font-family:Univers 55;-inkscape-font-specification:'Univers 55,'">i</tspan></tspan></text>
      <text
         sodipodi:linespacing="125%"
         id="text7898-0"
         y="392.99615"
         x="270.72876"
         style="font-size:18px;font-style:normal;font-variant:normal;font-weight:normal;font-stretch:normal;text-align:start;line-height:125%;letter-spacing:0px;word-spacing:0px;writing-mode:lr-tb;text-anchor:start;fill:#8f253c;fill-opacity:1;stroke:none;display:inline;enable-background:new;font-family:Univers 55;-inkscape-font-specification:'Univers 55,'"
         xml:space="preserve"><tspan
           y="392.99615"
           x="270.72876"
           id="tspan7900-4"
           sodipodi:role="line">R<tspan
   id="tspan7902-7"
   style="font-size:18px;font-style:normal;font-variant:normal;font-weight:normal;font-stretch:normal;text-align:start;line-height:125%;writing-mode:lr-tb;text-anchor:start;baseline-shift:sub;fill:#8f253c;fill-opacity:1;font-family:Univers 55;-inkscape-font-specification:'Univers 55,'">n</tspan></tspan></text>
    </g>
    <text
       xml:space="preserve"
       style="font-size:18px;font-style:normal;font-variant:normal;font-weight:normal;font-stretch:normal;text-align:start;line-height:125%;letter-spacing:0px;word-spacing:0px;writing-mode:lr-tb;text-anchor:start;fill:#2a8f25;fill-opacity:1;stroke:none;display:inline;enable-background:new;font-family:Univers 55;-inkscape-font-specification:'Univers 55,'"
       x="197.38193"
       y="252.35327"
       id="text7898-6"
       sodipodi:linespacing="125%"><tspan
         sodipodi:role="line"
         id="tspan7900-3"
         x="197.38193"
         y="252.35327"><tspan
           style="font-size:18px;font-style:normal;font-variant:normal;font-weight:normal;font-stretch:normal;text-align:start;line-height:125%;writing-mode:lr-tb;text-anchor:start;baseline-shift:sub;fill:#2a8f25;fill-opacity:1;font-family:Univers 55;-inkscape-font-specification:'Univers 55,'"
           id="tspan7902-5">C</tspan></tspan></text>
  </g>
  <g
     inkscape:groupmode="layer"
     id="layer8"
     inkscape:label="Layer_D"
     style="display:inline"
     transform="translate(-97.420548,-237.77727)">
    <path
       style="fill:#34b845;fill-opacity:0.39215686;stroke:#000000;stroke-width:2;stroke-miterlimit:4;stroke-opacity:1;stroke-dasharray:none"
       d="m 203.53125,264.4375 c -20.1658,0 -37.64234,7.06094 -46.4375,17.40625 -0.01,0.002 -0.0214,-0.002 -0.0312,0 -0.005,0.006 0.005,0.025 0,0.0312 -22.8934,5.66754 -39.875,26.32465 -39.875,50.96875 0,29.01038 23.52087,52.53125 52.53125,52.53125 12.8989,0 24.70108,-4.66074 33.84375,-12.375 -5.00067,-4.21558 -9.22328,-9.34034 -12.375,-15.125 -0.45025,-0.82638 -0.87488,-1.6788 -1.28125,-2.53125 -3.25092,-6.81962 -5.0625,-14.44003 -5.0625,-22.5 0,-0.89604 0.0142,-1.80156 0.0625,-2.6875 0.0483,-0.88594 0.13083,-1.7523 0.21875,-2.625 0.11663,0.0271 0.22673,0.0672 0.34375,0.0937 0.65412,0.14883 1.30339,0.2733 1.96875,0.40625 0.58655,0.11689 1.18588,0.20818 1.78125,0.3125 0.18667,0.0328 0.37502,0.0622 0.5625,0.0937 0.20959,0.0352 0.41437,0.0914 0.625,0.125 0.0928,0.0149 0.18828,0.0167 0.28125,0.0312 0.61278,0.0955 1.2226,0.19924 1.84375,0.28125 0.35221,0.0465 0.70771,0.0829 1.0625,0.125 0.29,0.0345 0.58332,0.0622 0.875,0.0937 0.35404,0.0382 0.70605,0.0913 1.0625,0.125 0.27879,0.0265 0.5635,0.0387 0.84375,0.0625 0.59312,0.0501 1.18198,0.11854 1.78125,0.15625 0.41406,0.0262 0.83301,0.0424 1.25,0.0625 0.4753,0.0229 0.95872,0.0475 1.4375,0.0625 0.8933,0.0281 1.78193,0.0312 2.6875,0.0312 1.3901,0 2.76204,-0.0281 4.125,-0.0937 0.22736,-0.011 0.46096,-0.0185 0.6875,-0.0312 1.42428,-0.0802 2.82956,-0.22577 4.21875,-0.375 0.30164,-0.0324 0.60639,-0.0582 0.90625,-0.0937 0.35749,-0.0425 0.70763,-0.0781 1.0625,-0.125 0.6728,-0.0888 1.337,-0.17665 2,-0.28125 0.10352,-0.0163 0.20923,-0.0458 0.3125,-0.0625 0.49192,-0.0796 0.98256,-0.16182 1.46875,-0.25 0.44491,-0.0807 0.87258,-0.16222 1.3125,-0.25 0.16743,-0.0333 0.3333,-0.0594 0.5,-0.0937 0.61551,-0.12708 1.23862,-0.26556 1.84375,-0.40625 19.91433,-4.62726 34.09375,-16.53252 34.09375,-30.5 0,-5.48068 -2.17626,-10.65501 -6.03125,-15.1875 -0.01,-0.002 -0.0214,0.002 -0.0312,0 -8.80437,-10.34531 -26.30295,-17.40625 -46.46875,-17.40625 z"
       id="path7686"
       inkscape:connector-curvature="0"
       sodipodi:nodetypes="scccsscsssscccccccsccccccssccsccccccccsccs" />
    <text
       xml:space="preserve"
       style="font-size:18px;font-style:normal;font-variant:normal;font-weight:normal;font-stretch:normal;text-align:start;line-height:125%;letter-spacing:0px;word-spacing:0px;writing-mode:lr-tb;text-anchor:start;fill:#000000;fill-opacity:1;stroke:none;display:inline;enable-background:new;font-family:Univers 55;-inkscape-font-specification:'Univers 55,'"
       x="100.83655"
       y="334.97086"
       id="text7898-6-8"
       sodipodi:linespacing="125%"><tspan
         sodipodi:role="line"
         id="tspan7900-3-8"
         x="100.83655"
         y="334.97086">D</tspan></text>
  </g>
  <g
     inkscape:groupmode="layer"
     id="layer7"
     inkscape:label="Layer_A"
     style="opacity:0.92000002;display:none"
     transform="translate(-97.420548,-237.77727)">
    <path
       inkscape:connector-curvature="0"
       style="fill:#b86734;fill-opacity:0.39215686;stroke:#000000;stroke-width:2;stroke-miterlimit:0;stroke-opacity:1;stroke-dasharray:none;stroke-dashoffset:0;display:inline"
       d="m 203.5312,264.4375 c -20.1658,0 -37.64234,7.06094 -46.4375,17.40625 -0.01,0.002 -0.0214,-0.002 -0.0312,0 -3.8611,4.53527 -6.03125,9.70216 -6.03125,15.1875 0,13.97444 14.17219,25.87769 34.09375,30.5 0.11663,0.0271 0.22673,0.0672 0.34375,0.0937 0.65412,0.14883 1.30339,0.2733 1.96875,0.40625 0.58655,0.11689 1.18588,0.20818 1.78125,0.3125 0.18667,0.0328 0.37502,0.0622 0.5625,0.0937 0.20959,0.0352 0.41437,0.0914 0.625,0.125 0.0928,0.0149 0.18828,0.0167 0.28125,0.0312 0.61278,0.0955 1.2226,0.19924 1.84375,0.28125 0.35221,0.0465 0.70771,0.0829 1.0625,0.125 0.29,0.0345 0.58332,0.0622 0.875,0.0937 0.35404,0.0382 0.70605,0.0913 1.0625,0.125 0.27879,0.0265 0.5635,0.0387 0.84375,0.0625 0.59312,0.0501 1.18198,0.11854 1.78125,0.15625 0.41406,0.0262 0.83301,0.0424 1.25,0.0625 0.4753,0.0229 0.95872,0.0475 1.4375,0.0625 0.8933,0.0281 1.78193,0.0312 2.6875,0.0312 1.3901,0 2.76204,-0.0281 4.125,-0.0937 0.22736,-0.011 0.46096,-0.0185 0.6875,-0.0312 1.42428,-0.0802 2.82956,-0.22577 4.21875,-0.375 0.30164,-0.0324 0.60639,-0.0582 0.90625,-0.0937 0.35749,-0.0425 0.70763,-0.0781 1.0625,-0.125 0.6728,-0.0888 1.337,-0.17665 2,-0.28125 0.10352,-0.0163 0.20923,-0.0458 0.3125,-0.0625 0.49192,-0.0796 0.98256,-0.16182 1.46875,-0.25 0.44491,-0.0807 0.87258,-0.16222 1.3125,-0.25 0.16743,-0.0333 0.3333,-0.0594 0.5,-0.0937 0.60556,-0.12503 1.21659,-0.26791 1.8125,-0.40625 0.17468,1.74484 0.28125,3.52136 0.28125,5.3125 0,16.11148 -7.23652,30.52069 -18.65625,40.15625 9.1409,7.7059 20.92207,12.375 33.8125,12.375 29.01038,0 52.53125,-23.52087 52.53125,-52.53125 0,-24.63352 -16.96598,-45.29149 -39.84375,-50.96875 -0.01,-0.0113 -0.0216,-0.0199 -0.0312,-0.0312 -0.01,-0.002 -0.0214,0.002 -0.0312,0 -8.80437,-10.34531 -26.30295,-17.40625 -46.46875,-17.40625 z"
       id="path7049"
       sodipodi:nodetypes="sccscccccccscccccccsccsccccccccscsscccss" />
    <text
       xml:space="preserve"
       style="font-size:18px;font-style:normal;font-variant:normal;font-weight:normal;font-stretch:normal;text-align:start;line-height:125%;letter-spacing:0px;word-spacing:0px;writing-mode:lr-tb;text-anchor:start;fill:#000000;fill-opacity:1;stroke:none;display:inline;enable-background:new;font-family:Univers 55;-inkscape-font-specification:'Univers 55,'"
       x="293.68796"
       y="334.97086"
       id="text7898-6-8-1"
       sodipodi:linespacing="125%"><tspan
         sodipodi:role="line"
         id="tspan7900-3-8-2"
         x="293.68796"
         y="334.97086">A</tspan></text>
  </g>
  <g
     inkscape:groupmode="layer"
     id="layer6"
     inkscape:label="Layer_A+"
     style="display:inline"
     transform="translate(-97.420548,-237.77727)">
    <path
       inkscape:connector-curvature="0"
       style="fill:#b4b834;fill-opacity:0.39215686;stroke:#000000;stroke-width:2;stroke-miterlimit:4;stroke-opacity:1;stroke-dasharray:none"
       d="m 203.53125,264.4375 c -20.1658,0 -37.64234,7.06094 -46.4375,17.40625 4.03782,-0.9944 8.28035,-1.53125 12.625,-1.53125 12.8874,0 24.70752,4.64178 33.84375,12.34375 7.61963,6.42345 13.3823,14.98539 16.375,24.75 0.24939,0.81372 0.477,1.63872 0.6875,2.46875 0.6315,2.49009 1.08099,5.03845 1.34375,7.65625 -0.01,0.002 -0.0215,-0.002 -0.0312,0 0.17468,1.74484 0.28125,3.52136 0.28125,5.3125 0,16.11148 -7.23652,30.52069 -18.65625,40.15625 9.1409,7.7059 20.92207,12.375 33.8125,12.375 29.01038,0 52.53125,-23.52087 52.53125,-52.53125 0,-24.63352 -16.96598,-45.29149 -39.84375,-50.96875 -0.004,-0.005 -0.027,0.005 -0.0312,0 -0.005,-0.006 0.005,-0.025 0,-0.0312 -0.01,-0.002 -0.0214,0.002 -0.0312,0 -8.80437,-10.34531 -26.30295,-17.40625 -46.46875,-17.40625 z"
       id="path7018">
      <title
         id="title7025">Summe_A</title>
    </path>
    <text
       xml:space="preserve"
       style="font-size:18px;font-style:normal;font-variant:normal;font-weight:normal;font-stretch:normal;text-align:start;line-height:125%;letter-spacing:0px;word-spacing:0px;writing-mode:lr-tb;text-anchor:start;fill:#000000;fill-opacity:1;stroke:none;display:inline;enable-background:new;font-family:Univers 55;-inkscape-font-specification:'Univers 55,'"
       x="262.2594"
       y="278.22272"
       id="text7898-6-8-2"
       sodipodi:linespacing="125%"><tspan
         sodipodi:role="line"
         id="tspan7900-3-8-9"
         x="262.2594"
         y="278.22272">A<tspan
   style="font-size:65.00091553%;baseline-shift:super"
   id="tspan8005">+</tspan></tspan></text>
  </g>
</svg>
