<?xml version="1.0" encoding="UTF-8" standalone="no"?>
<!DOCTYPE svg PUBLIC "-//W3C//DTD SVG 1.1//EN"
 "http://www.w3.org/Graphics/SVG/1.1/DTD/svg11.dtd">
<!-- Generated by graphviz version 2.38.0 (20140413.2041)
 -->
<!-- Title: RMO.ttl.svg Pages: 1 -->
<svg width="1561pt" height="682pt"
 viewBox="0.00 0.00 1561.00 681.80" xmlns="http://www.w3.org/2000/svg" xmlns:xlink="http://www.w3.org/1999/xlink">
<g id="graph0" class="graph" transform="scale(1 1) rotate(0) translate(-4 681.8)">
<title>RMO.ttl.svg</title>
<polygon fill="white" stroke="none" points="4,-0 4,-681.8 1565,-681.8 1565,-0 4,-0"/>
<text text-anchor="start" x="752" y="-132.1" font-family="Bitstream Vera Sans" font-weight="bold" font-size="8.00">Namespaces</text>
<text text-anchor="start" x="668.5" y="-116.1" font-family="Bitstream Vera Sans" font-size="8.00">:</text>
<text text-anchor="start" x="697.5" y="-116.1" font-family="Bitstream Vera Sans" font-size="8.00">http://eatld.et.tu&#45;dresden.de/rmo#</text>
<text text-anchor="start" x="668.5" y="-101.1" font-family="Bitstream Vera Sans" font-size="8.00">owl:</text>
<text text-anchor="start" x="697.5" y="-101.1" font-family="Bitstream Vera Sans" font-size="8.00">http://www.w3.org/2002/07/owl#</text>
<text text-anchor="start" x="668.5" y="-86.1" font-family="Bitstream Vera Sans" font-size="8.00">prov:</text>
<text text-anchor="start" x="697.5" y="-86.1" font-family="Bitstream Vera Sans" font-size="8.00">http://www.w3.org/ns/prov#</text>
<text text-anchor="start" x="668.5" y="-71.1" font-family="Bitstream Vera Sans" font-size="8.00">rdf:</text>
<text text-anchor="start" x="697.5" y="-71.1" font-family="Bitstream Vera Sans" font-size="8.00">http://www.w3.org/1999/02/22&#45;rdf&#45;syntax&#45;ns#</text>
<text text-anchor="start" x="668.5" y="-56.1" font-family="Bitstream Vera Sans" font-size="8.00">rdfs:</text>
<text text-anchor="start" x="697.5" y="-56.1" font-family="Bitstream Vera Sans" font-size="8.00">http://www.w3.org/2000/01/rdf&#45;schema#</text>
<text text-anchor="start" x="668.5" y="-41.1" font-family="Bitstream Vera Sans" font-size="8.00">rmo:</text>
<text text-anchor="start" x="697.5" y="-41.1" font-family="Bitstream Vera Sans" font-size="8.00">http://eatld.et.tu&#45;dresden.de/rmo#</text>
<text text-anchor="start" x="668.5" y="-26.1" font-family="Bitstream Vera Sans" font-size="8.00">xml:</text>
<text text-anchor="start" x="697.5" y="-26.1" font-family="Bitstream Vera Sans" font-size="8.00">http://www.w3.org/XML/1998/namespace</text>
<text text-anchor="start" x="668.5" y="-11.1" font-family="Bitstream Vera Sans" font-size="8.00">xsd:</text>
<text text-anchor="start" x="697.5" y="-11.1" font-family="Bitstream Vera Sans" font-size="8.00">http://www.w3.org/2001/XMLSchema#</text>
<polygon fill="none" stroke="black" points="663,-4 663,-143 898,-143 898,-4 663,-4"/>
<g id="clust1" class="cluster"><title>cluster_file___RMO_ttl</title>
<polygon fill="none" stroke="black" points="8,-212 8,-677.8 1347,-677.8 1347,-212 8,-212"/>
<text text-anchor="middle" x="677.5" y="-667.4" font-family="Bitstream Vera Sans" font-size="8.00">file://RMO.ttl</text>
</g>
<!-- rmo_Branch -->
<g id="node1" class="node"><title>rmo_Branch</title>
<polygon fill="none" stroke="black" points="15.5,-454.3 15.5,-503.3 104.5,-503.3 104.5,-454.3 15.5,-454.3"/>
<text text-anchor="start" x="23.5" y="-489.1" font-family="Times,serif" font-weight="bold" font-size="14.00"><a xlink:href='http://eatld.et.tu-dresden.de/rmo#Branch'>rmo:Branch</a></text>
<polyline fill="none" stroke="black" points="15.5,-480.3 104.5,-480.3 "/>
</g>
<!-- rmo_Reference -->
<g id="node2" class="node"><title>rmo_Reference</title>
<polygon fill="none" stroke="black" points="35,-312.3 35,-389.3 243,-389.3 243,-312.3 35,-312.3"/>
<text text-anchor="start" x="95" y="-375.1" font-family="Times,serif" font-weight="bold" font-size="14.00"><a xlink:href='http://eatld.et.tu-dresden.de/rmo#Reference'>rmo:Reference</a></text>
<polyline fill="none" stroke="black" points="35,-366.3 243,-366.3 "/>
<text text-anchor="start" x="43" y="-350.6" font-family="Times,serif" font-size="14.00"><a xlink:href='http://eatld.et.tu-dresden.de/rmo#fullGraph'>rmo:fullGraph</a> : <a xlink:href='http://www.w3.org/2001/XMLSchema#anyURI'>xsd:anyURI</a></text>
<text text-anchor="start" x="43" y="-335.6" font-family="Times,serif" font-size="14.00"><a xlink:href='http://eatld.et.tu-dresden.de/rmo#referenceIdentifier'>rmo:referenceIdentifier</a> : <a xlink:href='http://www.w3.org/2001/XMLSchema#string'>xsd:string</a></text>
<text text-anchor="start" x="43" y="-320.6" font-family="Times,serif" font-size="14.00"><a xlink:href='http://eatld.et.tu-dresden.de/rmo#references'>rmo:references</a> : <a xlink:href='http://eatld.et.tu-dresden.de/rmo#Revision'>rmo:Revision</a></text>
</g>
<!-- rmo_Branch&#45;&gt;rmo_Reference -->
<g id="edge1" class="edge"><title>rmo_Branch&#45;&gt;rmo_Reference</title>
<path fill="none" stroke="black" d="M74.49,-454.69C84.456,-438.79 98.03,-417.14 110.16,-397.8"/>
<polygon fill="none" stroke="black" points="113.262,-399.441 115.61,-389.11 107.332,-395.722 113.262,-399.441"/>
</g>
<!-- rmo_Entity -->
<g id="node3" class="node"><title>rmo_Entity</title>
<polygon fill="none" stroke="black" points="332,-219.9 332,-268.9 414,-268.9 414,-219.9 332,-219.9"/>
<text text-anchor="start" x="340" y="-254.7" font-family="Times,serif" font-weight="bold" font-size="14.00"><a xlink:href='http://eatld.et.tu-dresden.de/rmo#Entity'>rmo:Entity</a></text>
<polyline fill="none" stroke="black" points="332,-245.9 414,-245.9 "/>
</g>
<!-- rmo_Reference&#45;&gt;rmo_Entity -->
<g id="edge2" class="edge"><title>rmo_Reference&#45;&gt;rmo_Entity</title>
<path fill="none" stroke="black" d="M222.16,-312.7C255.7,-297.73 293.31,-280.95 322.58,-267.89"/>
<polygon fill="none" stroke="black" points="324.071,-271.058 331.78,-263.79 321.221,-264.664 324.071,-271.058"/>
</g>
<!-- prov_Entity -->
<g id="node23" class="node"><title>prov_Entity</title>
<polygon fill="none" stroke="black" points="334,-147 334,-184 412,-184 412,-147 334,-147"/>
<text text-anchor="middle" x="373" y="-161.8" font-family="Times,serif" font-size="14.00"><a xlink:href='http://www.w3.org/ns/prov#Entity'>prov:Entity</a></text>
</g>
<!-- rmo_Entity&#45;&gt;prov_Entity -->
<g id="edge19" class="edge"><title>rmo_Entity&#45;&gt;prov_Entity</title>
<path fill="none" stroke="black" d="M373,-220.33C373,-212.02 373,-202.57 373,-193.94"/>
<polygon fill="none" stroke="black" points="376.5,-193.93 373,-183.93 369.5,-193.93 376.5,-193.93"/>
</g>
<!-- rmo_BranchCommit -->
<g id="node4" class="node"><title>rmo_BranchCommit</title>
<polygon fill="none" stroke="black" points="889.5,-582.3 889.5,-631.3 1026.5,-631.3 1026.5,-582.3 889.5,-582.3"/>
<text text-anchor="start" x="897.5" y="-617.1" font-family="Times,serif" font-weight="bold" font-size="14.00"><a xlink:href='http://eatld.et.tu-dresden.de/rmo#BranchCommit'>rmo:BranchCommit</a></text>
<polyline fill="none" stroke="black" points="889.5,-608.3 1026.5,-608.3 "/>
</g>
<!-- rmo_ReferenceCommit -->
<g id="node5" class="node"><title>rmo_ReferenceCommit</title>
<polygon fill="none" stroke="black" points="1039,-454.3 1039,-503.3 1191,-503.3 1191,-454.3 1039,-454.3"/>
<text text-anchor="start" x="1047" y="-489.1" font-family="Times,serif" font-weight="bold" font-size="14.00"><a xlink:href='http://eatld.et.tu-dresden.de/rmo#ReferenceCommit'>rmo:ReferenceCommit</a></text>
<polyline fill="none" stroke="black" points="1039,-480.3 1191,-480.3 "/>
</g>
<!-- rmo_BranchCommit&#45;&gt;rmo_ReferenceCommit -->
<g id="edge3" class="edge"><title>rmo_BranchCommit&#45;&gt;rmo_ReferenceCommit</title>
<path fill="none" stroke="black" d="M986.8,-582.69C1012.6,-562 1050.5,-531.55 1078.4,-509.15"/>
<polygon fill="none" stroke="black" points="1080.77,-511.736 1086.4,-502.76 1076.4,-506.266 1080.77,-511.736"/>
</g>
<!-- rmo_Commit -->
<g id="node6" class="node"><title>rmo_Commit</title>
<polygon fill="none" stroke="black" points="794,-304.8 794,-396.8 1008,-396.8 1008,-304.8 794,-304.8"/>
<text text-anchor="start" x="861.5" y="-382.6" font-family="Times,serif" font-weight="bold" font-size="14.00"><a xlink:href='http://eatld.et.tu-dresden.de/rmo#Commit'>rmo:Commit</a></text>
<polyline fill="none" stroke="black" points="794,-373.8 1008,-373.8 "/>
<text text-anchor="start" x="802" y="-358.1" font-family="Times,serif" font-size="14.00"><a xlink:href='http://eatld.et.tu-dresden.de/rmo#commitMessage'>rmo:commitMessage</a> : <a xlink:href='http://www.w3.org/2001/XMLSchema#string'>xsd:string</a></text>
<text text-anchor="start" x="802" y="-343.1" font-family="Times,serif" font-size="14.00"><a xlink:href='http://eatld.et.tu-dresden.de/rmo#generated'>rmo:generated</a> : <a xlink:href='http://eatld.et.tu-dresden.de/rmo#Entity'>rmo:Entity</a></text>
<text text-anchor="start" x="802" y="-328.1" font-family="Times,serif" font-size="14.00"><a xlink:href='http://eatld.et.tu-dresden.de/rmo#used'>rmo:used</a> : <a xlink:href='http://eatld.et.tu-dresden.de/rmo#Entity'>rmo:Entity</a></text>
<text text-anchor="start" x="802" y="-313.1" font-family="Times,serif" font-size="14.00"><a xlink:href='http://eatld.et.tu-dresden.de/rmo#wasAssociatedWith'>rmo:wasAssociatedWith</a> : <a xlink:href='http://eatld.et.tu-dresden.de/rmo#User'>rmo:User</a></text>
</g>
<!-- rmo_ReferenceCommit&#45;&gt;rmo_Commit -->
<g id="edge4" class="edge"><title>rmo_ReferenceCommit&#45;&gt;rmo_Commit</title>
<path fill="none" stroke="black" d="M1075.7,-454.69C1050.5,-439.82 1016.7,-419.91 985.53,-401.57"/>
<polygon fill="none" stroke="black" points="987.213,-398.499 976.82,-396.44 983.66,-404.531 987.213,-398.499"/>
</g>
<!-- prov_Activity -->
<g id="node22" class="node"><title>prov_Activity</title>
<polygon fill="none" stroke="black" points="1354.5,-225.9 1354.5,-262.9 1443.5,-262.9 1443.5,-225.9 1354.5,-225.9"/>
<text text-anchor="middle" x="1399" y="-240.7" font-family="Times,serif" font-size="14.00"><a xlink:href='http://www.w3.org/ns/prov#Activity'>prov:Activity</a></text>
</g>
<!-- rmo_Commit&#45;&gt;prov_Activity -->
<g id="edge18" class="edge"><title>rmo_Commit&#45;&gt;prov_Activity</title>
<path fill="none" stroke="black" d="M1008,-338.95C1100.5,-327.59 1236.9,-306.09 1351,-268.8 1353.2,-268.07 1355.5,-267.26 1357.7,-266.38"/>
<polygon fill="none" stroke="black" points="1359.11,-269.583 1367,-262.51 1356.42,-263.121 1359.11,-269.583"/>
</g>
<!-- rmo_ChangeSet -->
<g id="node7" class="node"><title>rmo_ChangeSet</title>
<polygon fill="none" stroke="black" points="1044.5,-560.8 1044.5,-652.8 1247.5,-652.8 1247.5,-560.8 1044.5,-560.8"/>
<text text-anchor="start" x="1100" y="-638.6" font-family="Times,serif" font-weight="bold" font-size="14.00"><a xlink:href='http://eatld.et.tu-dresden.de/rmo#ChangeSet'>rmo:ChangeSet</a></text>
<polyline fill="none" stroke="black" points="1044.5,-629.8 1247.5,-629.8 "/>
<text text-anchor="start" x="1052.5" y="-614.1" font-family="Times,serif" font-size="14.00"><a xlink:href='http://eatld.et.tu-dresden.de/rmo#addSet'>rmo:addSet</a> : <a xlink:href='http://www.w3.org/2001/XMLSchema#anyURI'>xsd:anyURI</a></text>
<text text-anchor="start" x="1052.5" y="-599.1" font-family="Times,serif" font-size="14.00"><a xlink:href='http://eatld.et.tu-dresden.de/rmo#deleteSet'>rmo:deleteSet</a> : <a xlink:href='http://www.w3.org/2001/XMLSchema#anyURI'>xsd:anyURI</a></text>
<text text-anchor="start" x="1052.5" y="-584.1" font-family="Times,serif" font-size="14.00"><a xlink:href='http://eatld.et.tu-dresden.de/rmo#hasCommit'>rmo:hasCommit</a> : <a xlink:href='http://eatld.et.tu-dresden.de/rmo#Commit'>rmo:Commit</a></text>
<text text-anchor="start" x="1052.5" y="-569.1" font-family="Times,serif" font-size="14.00"><a xlink:href='http://eatld.et.tu-dresden.de/rmo#priorRevision'>rmo:priorRevision</a> : <a xlink:href='http://eatld.et.tu-dresden.de/rmo#Revision'>rmo:Revision</a></text>
</g>
<!-- prov_Derivation -->
<g id="node21" class="node"><title>prov_Derivation</title>
<polygon fill="none" stroke="black" points="1357.5,-460.3 1357.5,-497.3 1460.5,-497.3 1460.5,-460.3 1357.5,-460.3"/>
<text text-anchor="middle" x="1409" y="-475.1" font-family="Times,serif" font-size="14.00"><a xlink:href='http://www.w3.org/ns/prov#Derivation'>prov:Derivation</a></text>
</g>
<!-- rmo_ChangeSet&#45;&gt;prov_Derivation -->
<g id="edge17" class="edge"><title>rmo_ChangeSet&#45;&gt;prov_Derivation</title>
<path fill="none" stroke="black" d="M1247.6,-564.52C1250.8,-563.26 1253.9,-562.02 1257,-560.8 1298.6,-544.4 1312,-546.75 1351,-524.8 1361.7,-518.75 1372.6,-510.86 1382,-503.37"/>
<polygon fill="none" stroke="black" points="1384.35,-505.973 1389.9,-496.95 1379.93,-500.541 1384.35,-505.973"/>
</g>
<!-- rmo_FastForwardCommit -->
<g id="node8" class="node"><title>rmo_FastForwardCommit</title>
<polygon fill="none" stroke="black" points="390,-582.3 390,-631.3 560,-631.3 560,-582.3 390,-582.3"/>
<text text-anchor="start" x="398" y="-617.1" font-family="Times,serif" font-weight="bold" font-size="14.00"><a xlink:href='http://eatld.et.tu-dresden.de/rmo#FastForwardCommit'>rmo:FastForwardCommit</a></text>
<polyline fill="none" stroke="black" points="390,-608.3 560,-608.3 "/>
</g>
<!-- rmo_MergeCommit -->
<g id="node9" class="node"><title>rmo_MergeCommit</title>
<polygon fill="none" stroke="black" points="209.5,-432.8 209.5,-524.8 448.5,-524.8 448.5,-432.8 209.5,-432.8"/>
<text text-anchor="start" x="270.5" y="-510.6" font-family="Times,serif" font-weight="bold" font-size="14.00"><a xlink:href='http://eatld.et.tu-dresden.de/rmo#MergeCommit'>rmo:MergeCommit</a></text>
<polyline fill="none" stroke="black" points="209.5,-501.8 448.5,-501.8 "/>
<text text-anchor="start" x="217.5" y="-486.1" font-family="Times,serif" font-size="14.00"><a xlink:href='http://eatld.et.tu-dresden.de/rmo#usedSourceBranch'>rmo:usedSourceBranch</a> : <a xlink:href='http://eatld.et.tu-dresden.de/rmo#Branch'>rmo:Branch</a></text>
<text text-anchor="start" x="217.5" y="-471.1" font-family="Times,serif" font-size="14.00"><a xlink:href='http://eatld.et.tu-dresden.de/rmo#usedSourceRevision'>rmo:usedSourceRevision</a> : <a xlink:href='http://eatld.et.tu-dresden.de/rmo#Revision'>rmo:Revision</a></text>
<text text-anchor="start" x="217.5" y="-456.1" font-family="Times,serif" font-size="14.00"><a xlink:href='http://eatld.et.tu-dresden.de/rmo#usedTargetBranch'>rmo:usedTargetBranch</a> : <a xlink:href='http://eatld.et.tu-dresden.de/rmo#Branch'>rmo:Branch</a></text>
<text text-anchor="start" x="217.5" y="-441.1" font-family="Times,serif" font-size="14.00"><a xlink:href='http://eatld.et.tu-dresden.de/rmo#usedTargetRevision'>rmo:usedTargetRevision</a> : <a xlink:href='http://eatld.et.tu-dresden.de/rmo#Revision'>rmo:Revision</a></text>
</g>
<!-- rmo_FastForwardCommit&#45;&gt;rmo_MergeCommit -->
<g id="edge5" class="edge"><title>rmo_FastForwardCommit&#45;&gt;rmo_MergeCommit</title>
<path fill="none" stroke="black" d="M448.22,-582.69C431.43,-568.2 409.1,-548.93 388.31,-530.98"/>
<polygon fill="none" stroke="black" points="390.588,-528.323 380.73,-524.44 386.015,-533.623 390.588,-528.323"/>
</g>
<!-- rmo_MergeCommit&#45;&gt;rmo_Commit -->
<g id="edge6" class="edge"><title>rmo_MergeCommit&#45;&gt;rmo_Commit</title>
<path fill="none" stroke="black" d="M448.58,-435.16C451.74,-434.33 454.88,-433.54 458,-432.8 576.63,-404.57 610.36,-420.36 730,-396.8 747.54,-393.35 765.94,-389.14 783.91,-384.69"/>
<polygon fill="none" stroke="black" points="784.992,-388.027 793.84,-382.2 783.289,-381.237 784.992,-388.027"/>
</g>
<!-- rmo_Graph -->
<g id="node10" class="node"><title>rmo_Graph</title>
<polygon fill="none" stroke="black" points="502.5,-327.3 502.5,-374.3 721.5,-374.3 721.5,-327.3 502.5,-327.3"/>
<text text-anchor="start" x="577.5" y="-360.1" font-family="Times,serif" font-weight="bold" font-size="14.00"><a xlink:href='http://eatld.et.tu-dresden.de/rmo#Graph'>rmo:Graph</a></text>
<polyline fill="none" stroke="black" points="502.5,-351.3 721.5,-351.3 "/>
<text text-anchor="start" x="510.5" y="-335.6" font-family="Times,serif" font-size="14.00"><a xlink:href='http://eatld.et.tu-dresden.de/rmo#hasRevisionGraph'>rmo:hasRevisionGraph</a> : <a xlink:href='http://www.w3.org/2001/XMLSchema#anyURI'>xsd:anyURI</a></text>
</g>
<!-- rmo_Graph&#45;&gt;rmo_Entity -->
<g id="edge7" class="edge"><title>rmo_Graph&#45;&gt;rmo_Entity</title>
<path fill="none" stroke="black" d="M561.61,-327.79C520.95,-310.03 464.03,-285.16 423.38,-267.41"/>
<polygon fill="none" stroke="black" points="424.755,-264.191 414.19,-263.39 421.949,-270.604 424.755,-264.191"/>
</g>
<!-- rmo_InitialCommit -->
<g id="node11" class="node"><title>rmo_InitialCommit</title>
<polygon fill="none" stroke="black" points="1209,-454.3 1209,-503.3 1339,-503.3 1339,-454.3 1209,-454.3"/>
<text text-anchor="start" x="1217" y="-489.1" font-family="Times,serif" font-weight="bold" font-size="14.00"><a xlink:href='http://eatld.et.tu-dresden.de/rmo#InitialCommit'>rmo:InitialCommit</a></text>
<polyline fill="none" stroke="black" points="1209,-480.3 1339,-480.3 "/>
</g>
<!-- rmo_InitialCommit&#45;&gt;rmo_Commit -->
<g id="edge8" class="edge"><title>rmo_InitialCommit&#45;&gt;rmo_Commit</title>
<path fill="none" stroke="black" d="M1240.8,-454.87C1228.4,-447.06 1214,-438.79 1200,-432.8 1142.1,-407.94 1074.5,-388.86 1018.3,-375.48"/>
<polygon fill="none" stroke="black" points="1018.83,-372.011 1008.3,-373.14 1017.24,-378.826 1018.83,-372.011"/>
</g>
<!-- rmo_Master -->
<g id="node12" class="node"><title>rmo_Master</title>
<polygon fill="none" stroke="black" points="16,-582.3 16,-631.3 104,-631.3 104,-582.3 16,-582.3"/>
<text text-anchor="start" x="24" y="-617.1" font-family="Times,serif" font-weight="bold" font-size="14.00"><a xlink:href='http://eatld.et.tu-dresden.de/rmo#Master'>rmo:Master</a></text>
<polyline fill="none" stroke="black" points="16,-608.3 104,-608.3 "/>
</g>
<!-- rmo_Master&#45;&gt;rmo_Branch -->
<g id="edge9" class="edge"><title>rmo_Master&#45;&gt;rmo_Branch</title>
<path fill="none" stroke="black" d="M60,-582.69C60,-563.15 60,-534.92 60,-512.97"/>
<polygon fill="none" stroke="black" points="63.5001,-512.76 60,-502.76 56.5001,-512.76 63.5001,-512.76"/>
</g>
<!-- rmo_PickCommit -->
<g id="node13" class="node"><title>rmo_PickCommit</title>
<polygon fill="none" stroke="black" points="781.5,-432.8 781.5,-524.8 1020.5,-524.8 1020.5,-432.8 781.5,-432.8"/>
<text text-anchor="start" x="849" y="-510.6" font-family="Times,serif" font-weight="bold" font-size="14.00"><a xlink:href='http://eatld.et.tu-dresden.de/rmo#PickCommit'>rmo:PickCommit</a></text>
<polyline fill="none" stroke="black" points="781.5,-501.8 1020.5,-501.8 "/>
<text text-anchor="start" x="789.5" y="-486.1" font-family="Times,serif" font-size="14.00"><a xlink:href='http://eatld.et.tu-dresden.de/rmo#usedSourceBranch'>rmo:usedSourceBranch</a> : <a xlink:href='http://eatld.et.tu-dresden.de/rmo#Branch'>rmo:Branch</a></text>
<text text-anchor="start" x="789.5" y="-471.1" font-family="Times,serif" font-size="14.00"><a xlink:href='http://eatld.et.tu-dresden.de/rmo#usedSourceRevision'>rmo:usedSourceRevision</a> : <a xlink:href='http://eatld.et.tu-dresden.de/rmo#Revision'>rmo:Revision</a></text>
<text text-anchor="start" x="789.5" y="-456.1" font-family="Times,serif" font-size="14.00"><a xlink:href='http://eatld.et.tu-dresden.de/rmo#usedTargetBranch'>rmo:usedTargetBranch</a> : <a xlink:href='http://eatld.et.tu-dresden.de/rmo#Branch'>rmo:Branch</a></text>
<text text-anchor="start" x="789.5" y="-441.1" font-family="Times,serif" font-size="14.00"><a xlink:href='http://eatld.et.tu-dresden.de/rmo#usedTargetRevision'>rmo:usedTargetRevision</a> : <a xlink:href='http://eatld.et.tu-dresden.de/rmo#Revision'>rmo:Revision</a></text>
</g>
<!-- rmo_PickCommit&#45;&gt;rmo_Commit -->
<g id="edge10" class="edge"><title>rmo_PickCommit&#45;&gt;rmo_Commit</title>
<path fill="none" stroke="black" d="M901,-433.02C901,-424.48 901,-415.45 901,-406.64"/>
<polygon fill="none" stroke="black" points="904.5,-406.43 901,-396.43 897.5,-406.43 904.5,-406.43"/>
</g>
<!-- rmo_RevertCommit -->
<g id="node14" class="node"><title>rmo_RevertCommit</title>
<polygon fill="none" stroke="black" points="629,-454.3 629,-503.3 763,-503.3 763,-454.3 629,-454.3"/>
<text text-anchor="start" x="637" y="-489.1" font-family="Times,serif" font-weight="bold" font-size="14.00"><a xlink:href='http://eatld.et.tu-dresden.de/rmo#RevertCommit'>rmo:RevertCommit</a></text>
<polyline fill="none" stroke="black" points="629,-480.3 763,-480.3 "/>
</g>
<!-- rmo_RevertCommit&#45;&gt;rmo_Commit -->
<g id="edge11" class="edge"><title>rmo_RevertCommit&#45;&gt;rmo_Commit</title>
<path fill="none" stroke="black" d="M733.6,-454.69C757.69,-439.88 789.91,-420.08 819.65,-401.8"/>
<polygon fill="none" stroke="black" points="821.684,-404.658 828.37,-396.44 818.018,-398.695 821.684,-404.658"/>
</g>
<!-- rmo_Revision -->
<g id="node15" class="node"><title>rmo_Revision</title>
<polygon fill="none" stroke="black" points="261.5,-304.8 261.5,-396.8 484.5,-396.8 484.5,-304.8 261.5,-304.8"/>
<text text-anchor="start" x="333.5" y="-382.6" font-family="Times,serif" font-weight="bold" font-size="14.00"><a xlink:href='http://eatld.et.tu-dresden.de/rmo#Revision'>rmo:Revision</a></text>
<polyline fill="none" stroke="black" points="261.5,-373.8 484.5,-373.8 "/>
<text text-anchor="start" x="269.5" y="-358.1" font-family="Times,serif" font-size="14.00"><a xlink:href='http://eatld.et.tu-dresden.de/rmo#hasChangeSet'>rmo:hasChangeSet</a> : <a xlink:href='http://eatld.et.tu-dresden.de/rmo#ChangeSet'>rmo:ChangeSet</a></text>
<text text-anchor="start" x="269.5" y="-343.1" font-family="Times,serif" font-size="14.00"><a xlink:href='http://eatld.et.tu-dresden.de/rmo#revisionIdentifier'>rmo:revisionIdentifier</a> : <a xlink:href='http://www.w3.org/2001/XMLSchema#string'>xsd:string</a></text>
<text text-anchor="start" x="269.5" y="-328.1" font-family="Times,serif" font-size="14.00"><a xlink:href='http://eatld.et.tu-dresden.de/rmo#wasDerivedFrom'>rmo:wasDerivedFrom</a> : <a xlink:href='http://eatld.et.tu-dresden.de/rmo#Revision'>rmo:Revision</a></text>
<text text-anchor="start" x="269.5" y="-313.1" font-family="Times,serif" font-size="14.00"><a xlink:href='http://eatld.et.tu-dresden.de/rmo#wasQuotedFrom'>rmo:wasQuotedFrom</a> : <a xlink:href='http://eatld.et.tu-dresden.de/rmo#Revision'>rmo:Revision</a></text>
</g>
<!-- rmo_Revision&#45;&gt;rmo_Entity -->
<g id="edge12" class="edge"><title>rmo_Revision&#45;&gt;rmo_Entity</title>
<path fill="none" stroke="black" d="M373,-305.22C373,-296.34 373,-287.15 373,-278.72"/>
<polygon fill="none" stroke="black" points="376.5,-278.54 373,-268.54 369.5,-278.54 376.5,-278.54"/>
</g>
<!-- rmo_RevisionCommit -->
<g id="node16" class="node"><title>rmo_RevisionCommit</title>
<polygon fill="none" stroke="black" points="467,-454.3 467,-503.3 611,-503.3 611,-454.3 467,-454.3"/>
<text text-anchor="start" x="475" y="-489.1" font-family="Times,serif" font-weight="bold" font-size="14.00"><a xlink:href='http://eatld.et.tu-dresden.de/rmo#RevisionCommit'>rmo:RevisionCommit</a></text>
<polyline fill="none" stroke="black" points="467,-480.3 611,-480.3 "/>
</g>
<!-- rmo_RevisionCommit&#45;&gt;rmo_Commit -->
<g id="edge13" class="edge"><title>rmo_RevisionCommit&#45;&gt;rmo_Commit</title>
<path fill="none" stroke="black" d="M576.43,-454.68C589.85,-447.03 605.29,-438.91 620,-432.8 650.15,-420.27 720.94,-399.88 783.91,-382.7"/>
<polygon fill="none" stroke="black" points="785.219,-385.971 793.95,-379.97 783.382,-379.217 785.219,-385.971"/>
</g>
<!-- rmo_Tag -->
<g id="node17" class="node"><title>rmo_Tag</title>
<polygon fill="none" stroke="black" points="123,-454.3 123,-503.3 191,-503.3 191,-454.3 123,-454.3"/>
<text text-anchor="start" x="131" y="-489.1" font-family="Times,serif" font-weight="bold" font-size="14.00"><a xlink:href='http://eatld.et.tu-dresden.de/rmo#Tag'>rmo:Tag</a></text>
<polyline fill="none" stroke="black" points="123,-480.3 191,-480.3 "/>
</g>
<!-- rmo_Tag&#45;&gt;rmo_Reference -->
<g id="edge14" class="edge"><title>rmo_Tag&#45;&gt;rmo_Reference</title>
<path fill="none" stroke="black" d="M153.7,-454.69C151.48,-439.15 148.47,-418.12 145.76,-399.11"/>
<polygon fill="none" stroke="black" points="149.21,-398.514 144.33,-389.11 142.281,-399.505 149.21,-398.514"/>
</g>
<!-- rmo_TagCommit -->
<g id="node18" class="node"><title>rmo_TagCommit</title>
<polygon fill="none" stroke="black" points="754.5,-582.3 754.5,-631.3 871.5,-631.3 871.5,-582.3 754.5,-582.3"/>
<text text-anchor="start" x="762.5" y="-617.1" font-family="Times,serif" font-weight="bold" font-size="14.00"><a xlink:href='http://eatld.et.tu-dresden.de/rmo#TagCommit'>rmo:TagCommit</a></text>
<polyline fill="none" stroke="black" points="754.5,-608.3 871.5,-608.3 "/>
</g>
<!-- rmo_TagCommit&#45;&gt;rmo_ReferenceCommit -->
<g id="edge15" class="edge"><title>rmo_TagCommit&#45;&gt;rmo_ReferenceCommit</title>
<path fill="none" stroke="black" d="M842.36,-582.78C853.62,-574.87 866.92,-566.55 880,-560.8 942.37,-533.38 965.23,-548.77 1029,-524.8 1041.7,-520.03 1054.9,-513.81 1067.1,-507.52"/>
<polygon fill="none" stroke="black" points="1068.92,-510.518 1076.1,-502.73 1065.63,-504.339 1068.92,-510.518"/>
</g>
<!-- rmo_ThreeWayMergeCommit -->
<g id="node19" class="node"><title>rmo_ThreeWayMergeCommit</title>
<polygon fill="none" stroke="black" points="176.5,-582.3 176.5,-631.3 371.5,-631.3 371.5,-582.3 176.5,-582.3"/>
<text text-anchor="start" x="184.5" y="-617.1" font-family="Times,serif" font-weight="bold" font-size="14.00"><a xlink:href='http://eatld.et.tu-dresden.de/rmo#ThreeWayMergeCommit'>rmo:ThreeWayMergeCommit</a></text>
<polyline fill="none" stroke="black" points="176.5,-608.3 371.5,-608.3 "/>
</g>
<!-- rmo_ThreeWayMergeCommit&#45;&gt;rmo_MergeCommit -->
<g id="edge16" class="edge"><title>rmo_ThreeWayMergeCommit&#45;&gt;rmo_MergeCommit</title>
<path fill="none" stroke="black" d="M284.09,-582.69C290.08,-568.96 297.95,-550.94 305.42,-533.83"/>
<polygon fill="none" stroke="black" points="308.725,-535.006 309.51,-524.44 302.308,-532.21 308.725,-535.006"/>
</g>
<!-- rmo_User -->
<g id="node20" class="node"><title>rmo_User</title>
<polygon fill="none" stroke="black" points="1265.5,-582.3 1265.5,-631.3 1338.5,-631.3 1338.5,-582.3 1265.5,-582.3"/>
<text text-anchor="start" x="1273.5" y="-617.1" font-family="Times,serif" font-weight="bold" font-size="14.00"><a xlink:href='http://eatld.et.tu-dresden.de/rmo#User'>rmo:User</a></text>
<polyline fill="none" stroke="black" points="1265.5,-608.3 1338.5,-608.3 "/>
</g>
<!-- prov_Person -->
<g id="node24" class="node"><title>prov_Person</title>
<polygon fill="none" stroke="black" points="1479,-460.3 1479,-497.3 1561,-497.3 1561,-460.3 1479,-460.3"/>
<text text-anchor="middle" x="1520" y="-475.1" font-family="Times,serif" font-size="14.00"><a xlink:href='http://www.w3.org/ns/prov#Person'>prov:Person</a></text>
</g>
<!-- rmo_User&#45;&gt;prov_Person -->
<g id="edge20" class="edge"><title>rmo_User&#45;&gt;prov_Person</title>
<path fill="none" stroke="black" d="M1338.7,-591.67C1373.8,-577.33 1427.7,-553.22 1470,-524.8 1479,-518.75 1488.1,-511.15 1496,-503.94"/>
<polygon fill="none" stroke="black" points="1498.55,-506.342 1503.4,-496.92 1493.74,-501.263 1498.55,-506.342"/>
</g>
</g>
</svg>
