<?xml version="1.0" encoding="UTF-8" standalone="no"?>
<!DOCTYPE svg PUBLIC "-//W3C//DTD SVG 1.1//EN"
 "http://www.w3.org/Graphics/SVG/1.1/DTD/svg11.dtd">
<!-- Generated by graphviz version 2.38.0 (20140413.2041)
 -->
<!-- Title: RMO.ttl.svg Pages: 1 -->
<svg width="1569pt" height="682pt"
 viewBox="0.00 0.00 1569.00 681.80" xmlns="http://www.w3.org/2000/svg" xmlns:xlink="http://www.w3.org/1999/xlink">
<g id="graph0" class="graph" transform="scale(1 1) rotate(0) translate(-4 681.8)">
<title>RMO.ttl.svg</title>
<polygon fill="white" stroke="none" points="4,-0 4,-681.8 1573,-681.8 1573,-0 4,-0"/>
<text text-anchor="start" x="756" y="-132.1" font-family="Bitstream Vera Sans" font-weight="bold" font-size="8.00">Namespaces</text>
<text text-anchor="start" x="672.5" y="-116.1" font-family="Bitstream Vera Sans" font-size="8.00">:</text>
<text text-anchor="start" x="701.5" y="-116.1" font-family="Bitstream Vera Sans" font-size="8.00">http://eatld.et.tu&#45;dresden.de/rmo#</text>
<text text-anchor="start" x="672.5" y="-101.1" font-family="Bitstream Vera Sans" font-size="8.00">owl:</text>
<text text-anchor="start" x="701.5" y="-101.1" font-family="Bitstream Vera Sans" font-size="8.00">http://www.w3.org/2002/07/owl#</text>
<text text-anchor="start" x="672.5" y="-86.1" font-family="Bitstream Vera Sans" font-size="8.00">prov:</text>
<text text-anchor="start" x="701.5" y="-86.1" font-family="Bitstream Vera Sans" font-size="8.00">http://www.w3.org/ns/prov#</text>
<text text-anchor="start" x="672.5" y="-71.1" font-family="Bitstream Vera Sans" font-size="8.00">rdf:</text>
<text text-anchor="start" x="701.5" y="-71.1" font-family="Bitstream Vera Sans" font-size="8.00">http://www.w3.org/1999/02/22&#45;rdf&#45;syntax&#45;ns#</text>
<text text-anchor="start" x="672.5" y="-56.1" font-family="Bitstream Vera Sans" font-size="8.00">rdfs:</text>
<text text-anchor="start" x="701.5" y="-56.1" font-family="Bitstream Vera Sans" font-size="8.00">http://www.w3.org/2000/01/rdf&#45;schema#</text>
<text text-anchor="start" x="672.5" y="-41.1" font-family="Bitstream Vera Sans" font-size="8.00">rmo:</text>
<text text-anchor="start" x="701.5" y="-41.1" font-family="Bitstream Vera Sans" font-size="8.00">http://eatld.et.tu&#45;dresden.de/rmo#</text>
<text text-anchor="start" x="672.5" y="-26.1" font-family="Bitstream Vera Sans" font-size="8.00">xml:</text>
<text text-anchor="start" x="701.5" y="-26.1" font-family="Bitstream Vera Sans" font-size="8.00">http://www.w3.org/XML/1998/namespace</text>
<text text-anchor="start" x="672.5" y="-11.1" font-family="Bitstream Vera Sans" font-size="8.00">xsd:</text>
<text text-anchor="start" x="701.5" y="-11.1" font-family="Bitstream Vera Sans" font-size="8.00">http://www.w3.org/2001/XMLSchema#</text>
<polygon fill="none" stroke="black" points="667,-4 667,-143 902,-143 902,-4 667,-4"/>
<g id="clust1" class="cluster"><title>cluster_file___RMO_ttl</title>
<polygon fill="none" stroke="black" points="8,-212 8,-677.8 1355,-677.8 1355,-212 8,-212"/>
<text text-anchor="middle" x="681.5" y="-667.4" font-family="Bitstream Vera Sans" font-size="8.00">file://RMO.ttl</text>
</g>
<!-- rmo_Branch -->
<g id="node1" class="node"><title>rmo_Branch</title>
<polygon fill="none" stroke="black" points="15.5,-454.3 15.5,-503.3 104.5,-503.3 104.5,-454.3 15.5,-454.3"/>
<text text-anchor="start" x="23.5" y="-489.1" font-family="Times,serif" font-weight="bold" font-size="14.00"><a xlink:href='http://eatld.et.tu-dresden.de/rmo#Branch'>rmo:Branch</a></text>
<polyline fill="none" stroke="black" points="15.5,-480.3 104.5,-480.3 "/>
</g>
<!-- rmo_Reference -->
<g id="node2" class="node"><title>rmo_Reference</title>
<polygon fill="none" stroke="black" points="34,-312.3 34,-389.3 246,-389.3 246,-312.3 34,-312.3"/>
<text text-anchor="start" x="96" y="-375.1" font-family="Times,serif" font-weight="bold" font-size="14.00"><a xlink:href='http://eatld.et.tu-dresden.de/rmo#Reference'>rmo:Reference</a></text>
<polyline fill="none" stroke="black" points="34,-366.3 246,-366.3 "/>
<text text-anchor="start" x="42" y="-350.6" font-family="Times,serif" font-size="14.00"><a xlink:href='http://eatld.et.tu-dresden.de/rmo#fullGraph'>rmo:fullGraph</a> = <a xlink:href='http://www.w3.org/2001/XMLSchema#anyURI'>xsd:anyURI</a></text>
<text text-anchor="start" x="42" y="-335.6" font-family="Times,serif" font-size="14.00"><a xlink:href='http://eatld.et.tu-dresden.de/rmo#referenceIdentifier'>rmo:referenceIdentifier</a> = <a xlink:href='http://www.w3.org/2001/XMLSchema#string'>xsd:string</a></text>
<text text-anchor="start" x="42" y="-320.6" font-family="Times,serif" font-size="14.00"><a xlink:href='http://eatld.et.tu-dresden.de/rmo#references'>rmo:references</a> = <a xlink:href='http://eatld.et.tu-dresden.de/rmo#Revision'>rmo:Revision</a></text>
</g>
<!-- rmo_Branch&#45;&gt;rmo_Reference -->
<g id="edge1" class="edge"><title>rmo_Branch&#45;&gt;rmo_Reference</title>
<path fill="none" stroke="black" d="M74.673,-454.69C84.765,-438.79 98.512,-417.14 110.79,-397.8"/>
<polygon fill="none" stroke="black" points="113.902,-399.428 116.31,-389.11 107.994,-395.674 113.902,-399.428"/>
</g>
<!-- rmo_Entity -->
<g id="node3" class="node"><title>rmo_Entity</title>
<polygon fill="none" stroke="black" points="337,-219.9 337,-268.9 419,-268.9 419,-219.9 337,-219.9"/>
<text text-anchor="start" x="345" y="-254.7" font-family="Times,serif" font-weight="bold" font-size="14.00"><a xlink:href='http://eatld.et.tu-dresden.de/rmo#Entity'>rmo:Entity</a></text>
<polyline fill="none" stroke="black" points="337,-245.9 419,-245.9 "/>
</g>
<!-- rmo_Reference&#45;&gt;rmo_Entity -->
<g id="edge2" class="edge"><title>rmo_Reference&#45;&gt;rmo_Entity</title>
<path fill="none" stroke="black" d="M224.58,-312.7C258.94,-297.63 297.49,-280.72 327.35,-267.62"/>
<polygon fill="none" stroke="black" points="328.968,-270.732 336.72,-263.51 326.156,-264.322 328.968,-270.732"/>
</g>
<!-- prov_Entity -->
<g id="node23" class="node"><title>prov_Entity</title>
<polygon fill="none" stroke="black" points="339,-147 339,-184 417,-184 417,-147 339,-147"/>
<text text-anchor="middle" x="378" y="-161.8" font-family="Times,serif" font-size="14.00"><a xlink:href='http://www.w3.org/ns/prov#Entity'>prov:Entity</a></text>
</g>
<!-- rmo_Entity&#45;&gt;prov_Entity -->
<g id="edge19" class="edge"><title>rmo_Entity&#45;&gt;prov_Entity</title>
<path fill="none" stroke="black" d="M378,-220.33C378,-212.02 378,-202.57 378,-193.94"/>
<polygon fill="none" stroke="black" points="381.5,-193.93 378,-183.93 374.5,-193.93 381.5,-193.93"/>
</g>
<!-- rmo_BranchCommit -->
<g id="node4" class="node"><title>rmo_BranchCommit</title>
<polygon fill="none" stroke="black" points="893.5,-582.3 893.5,-631.3 1030.5,-631.3 1030.5,-582.3 893.5,-582.3"/>
<text text-anchor="start" x="901.5" y="-617.1" font-family="Times,serif" font-weight="bold" font-size="14.00"><a xlink:href='http://eatld.et.tu-dresden.de/rmo#BranchCommit'>rmo:BranchCommit</a></text>
<polyline fill="none" stroke="black" points="893.5,-608.3 1030.5,-608.3 "/>
</g>
<!-- rmo_ReferenceCommit -->
<g id="node5" class="node"><title>rmo_ReferenceCommit</title>
<polygon fill="none" stroke="black" points="1047,-454.3 1047,-503.3 1199,-503.3 1199,-454.3 1047,-454.3"/>
<text text-anchor="start" x="1055" y="-489.1" font-family="Times,serif" font-weight="bold" font-size="14.00"><a xlink:href='http://eatld.et.tu-dresden.de/rmo#ReferenceCommit'>rmo:ReferenceCommit</a></text>
<polyline fill="none" stroke="black" points="1047,-480.3 1199,-480.3 "/>
</g>
<!-- rmo_BranchCommit&#45;&gt;rmo_ReferenceCommit -->
<g id="edge3" class="edge"><title>rmo_BranchCommit&#45;&gt;rmo_ReferenceCommit</title>
<path fill="none" stroke="black" d="M991.53,-582.69C1018,-562 1056.9,-531.55 1085.5,-509.15"/>
<polygon fill="none" stroke="black" points="1087.96,-511.668 1093.7,-502.76 1083.66,-506.146 1087.96,-511.668"/>
</g>
<!-- rmo_Commit -->
<g id="node6" class="node"><title>rmo_Commit</title>
<polygon fill="none" stroke="black" points="798,-304.8 798,-396.8 1016,-396.8 1016,-304.8 798,-304.8"/>
<text text-anchor="start" x="867.5" y="-382.6" font-family="Times,serif" font-weight="bold" font-size="14.00"><a xlink:href='http://eatld.et.tu-dresden.de/rmo#Commit'>rmo:Commit</a></text>
<polyline fill="none" stroke="black" points="798,-373.8 1016,-373.8 "/>
<text text-anchor="start" x="806" y="-358.1" font-family="Times,serif" font-size="14.00"><a xlink:href='http://eatld.et.tu-dresden.de/rmo#commitMessage'>rmo:commitMessage</a> = <a xlink:href='http://www.w3.org/2001/XMLSchema#string'>xsd:string</a></text>
<text text-anchor="start" x="806" y="-343.1" font-family="Times,serif" font-size="14.00"><a xlink:href='http://eatld.et.tu-dresden.de/rmo#generated'>rmo:generated</a> = <a xlink:href='http://eatld.et.tu-dresden.de/rmo#Entity'>rmo:Entity</a></text>
<text text-anchor="start" x="806" y="-328.1" font-family="Times,serif" font-size="14.00"><a xlink:href='http://eatld.et.tu-dresden.de/rmo#used'>rmo:used</a> = <a xlink:href='http://eatld.et.tu-dresden.de/rmo#Entity'>rmo:Entity</a></text>
<text text-anchor="start" x="806" y="-313.1" font-family="Times,serif" font-size="14.00"><a xlink:href='http://eatld.et.tu-dresden.de/rmo#wasAssociatedWith'>rmo:wasAssociatedWith</a> = <a xlink:href='http://eatld.et.tu-dresden.de/rmo#User'>rmo:User</a></text>
</g>
<!-- rmo_ReferenceCommit&#45;&gt;rmo_Commit -->
<g id="edge4" class="edge"><title>rmo_ReferenceCommit&#45;&gt;rmo_Commit</title>
<path fill="none" stroke="black" d="M1083.4,-454.69C1057.9,-439.82 1023.8,-419.91 992.32,-401.57"/>
<polygon fill="none" stroke="black" points="993.931,-398.458 983.53,-396.44 990.403,-404.503 993.931,-398.458"/>
</g>
<!-- prov_Activity -->
<g id="node22" class="node"><title>prov_Activity</title>
<polygon fill="none" stroke="black" points="1362.5,-225.9 1362.5,-262.9 1451.5,-262.9 1451.5,-225.9 1362.5,-225.9"/>
<text text-anchor="middle" x="1407" y="-240.7" font-family="Times,serif" font-size="14.00"><a xlink:href='http://www.w3.org/ns/prov#Activity'>prov:Activity</a></text>
</g>
<!-- rmo_Commit&#45;&gt;prov_Activity -->
<g id="edge18" class="edge"><title>rmo_Commit&#45;&gt;prov_Activity</title>
<path fill="none" stroke="black" d="M1016.4,-338.78C1109.2,-327.4 1245.1,-305.96 1359,-268.8 1361.2,-268.07 1363.5,-267.26 1365.7,-266.39"/>
<polygon fill="none" stroke="black" points="1367.12,-269.591 1375,-262.51 1364.42,-263.13 1367.12,-269.591"/>
</g>
<!-- rmo_ChangeSet -->
<g id="node7" class="node"><title>rmo_ChangeSet</title>
<polygon fill="none" stroke="black" points="1048.5,-560.8 1048.5,-652.8 1255.5,-652.8 1255.5,-560.8 1048.5,-560.8"/>
<text text-anchor="start" x="1106" y="-638.6" font-family="Times,serif" font-weight="bold" font-size="14.00"><a xlink:href='http://eatld.et.tu-dresden.de/rmo#ChangeSet'>rmo:ChangeSet</a></text>
<polyline fill="none" stroke="black" points="1048.5,-629.8 1255.5,-629.8 "/>
<text text-anchor="start" x="1056.5" y="-614.1" font-family="Times,serif" font-size="14.00"><a xlink:href='http://eatld.et.tu-dresden.de/rmo#addSet'>rmo:addSet</a> = <a xlink:href='http://www.w3.org/2001/XMLSchema#anyURI'>xsd:anyURI</a></text>
<text text-anchor="start" x="1056.5" y="-599.1" font-family="Times,serif" font-size="14.00"><a xlink:href='http://eatld.et.tu-dresden.de/rmo#deleteSet'>rmo:deleteSet</a> = <a xlink:href='http://www.w3.org/2001/XMLSchema#anyURI'>xsd:anyURI</a></text>
<text text-anchor="start" x="1056.5" y="-584.1" font-family="Times,serif" font-size="14.00"><a xlink:href='http://eatld.et.tu-dresden.de/rmo#hasCommit'>rmo:hasCommit</a> = <a xlink:href='http://eatld.et.tu-dresden.de/rmo#Commit'>rmo:Commit</a></text>
<text text-anchor="start" x="1056.5" y="-569.1" font-family="Times,serif" font-size="14.00"><a xlink:href='http://eatld.et.tu-dresden.de/rmo#priorRevision'>rmo:priorRevision</a> = <a xlink:href='http://eatld.et.tu-dresden.de/rmo#Revision'>rmo:Revision</a></text>
</g>
<!-- prov_Derivation -->
<g id="node21" class="node"><title>prov_Derivation</title>
<polygon fill="none" stroke="black" points="1365.5,-460.3 1365.5,-497.3 1468.5,-497.3 1468.5,-460.3 1365.5,-460.3"/>
<text text-anchor="middle" x="1417" y="-475.1" font-family="Times,serif" font-size="14.00"><a xlink:href='http://www.w3.org/ns/prov#Derivation'>prov:Derivation</a></text>
</g>
<!-- rmo_ChangeSet&#45;&gt;prov_Derivation -->
<g id="edge17" class="edge"><title>rmo_ChangeSet&#45;&gt;prov_Derivation</title>
<path fill="none" stroke="black" d="M1255.7,-564.43C1258.9,-563.2 1262,-561.99 1265,-560.8 1306.7,-544.52 1320,-546.75 1359,-524.8 1369.7,-518.75 1380.6,-510.86 1390,-503.37"/>
<polygon fill="none" stroke="black" points="1392.35,-505.973 1397.9,-496.95 1387.93,-500.541 1392.35,-505.973"/>
</g>
<!-- rmo_FastForwardCommit -->
<g id="node8" class="node"><title>rmo_FastForwardCommit</title>
<polygon fill="none" stroke="black" points="391,-582.3 391,-631.3 561,-631.3 561,-582.3 391,-582.3"/>
<text text-anchor="start" x="399" y="-617.1" font-family="Times,serif" font-weight="bold" font-size="14.00"><a xlink:href='http://eatld.et.tu-dresden.de/rmo#FastForwardCommit'>rmo:FastForwardCommit</a></text>
<polyline fill="none" stroke="black" points="391,-608.3 561,-608.3 "/>
</g>
<!-- rmo_MergeCommit -->
<g id="node9" class="node"><title>rmo_MergeCommit</title>
<polygon fill="none" stroke="black" points="209.5,-432.8 209.5,-524.8 452.5,-524.8 452.5,-432.8 209.5,-432.8"/>
<text text-anchor="start" x="272.5" y="-510.6" font-family="Times,serif" font-weight="bold" font-size="14.00"><a xlink:href='http://eatld.et.tu-dresden.de/rmo#MergeCommit'>rmo:MergeCommit</a></text>
<polyline fill="none" stroke="black" points="209.5,-501.8 452.5,-501.8 "/>
<text text-anchor="start" x="217.5" y="-486.1" font-family="Times,serif" font-size="14.00"><a xlink:href='http://eatld.et.tu-dresden.de/rmo#usedSourceBranch'>rmo:usedSourceBranch</a> = <a xlink:href='http://eatld.et.tu-dresden.de/rmo#Branch'>rmo:Branch</a></text>
<text text-anchor="start" x="217.5" y="-471.1" font-family="Times,serif" font-size="14.00"><a xlink:href='http://eatld.et.tu-dresden.de/rmo#usedSourceRevision'>rmo:usedSourceRevision</a> = <a xlink:href='http://eatld.et.tu-dresden.de/rmo#Revision'>rmo:Revision</a></text>
<text text-anchor="start" x="217.5" y="-456.1" font-family="Times,serif" font-size="14.00"><a xlink:href='http://eatld.et.tu-dresden.de/rmo#usedTargetBranch'>rmo:usedTargetBranch</a> = <a xlink:href='http://eatld.et.tu-dresden.de/rmo#Branch'>rmo:Branch</a></text>
<text text-anchor="start" x="217.5" y="-441.1" font-family="Times,serif" font-size="14.00"><a xlink:href='http://eatld.et.tu-dresden.de/rmo#usedTargetRevision'>rmo:usedTargetRevision</a> = <a xlink:href='http://eatld.et.tu-dresden.de/rmo#Revision'>rmo:Revision</a></text>
</g>
<!-- rmo_FastForwardCommit&#45;&gt;rmo_MergeCommit -->
<g id="edge5" class="edge"><title>rmo_FastForwardCommit&#45;&gt;rmo_MergeCommit</title>
<path fill="none" stroke="black" d="M449.4,-582.69C432.8,-568.26 410.75,-549.1 390.17,-531.22"/>
<polygon fill="none" stroke="black" points="392.213,-528.359 382.37,-524.44 387.621,-533.642 392.213,-528.359"/>
</g>
<!-- rmo_MergeCommit&#45;&gt;rmo_Commit -->
<g id="edge6" class="edge"><title>rmo_MergeCommit&#45;&gt;rmo_Commit</title>
<path fill="none" stroke="black" d="M452.79,-435.06C455.88,-434.26 458.96,-433.51 462,-432.8 584.62,-404.2 619.54,-421.52 743,-396.8 757.61,-393.88 772.82,-390.36 787.84,-386.59"/>
<polygon fill="none" stroke="black" points="788.855,-389.943 797.68,-384.08 787.125,-383.16 788.855,-389.943"/>
</g>
<!-- rmo_Graph -->
<g id="node10" class="node"><title>rmo_Graph</title>
<polygon fill="none" stroke="black" points="510,-327.3 510,-374.3 734,-374.3 734,-327.3 510,-327.3"/>
<text text-anchor="start" x="587.5" y="-360.1" font-family="Times,serif" font-weight="bold" font-size="14.00"><a xlink:href='http://eatld.et.tu-dresden.de/rmo#Graph'>rmo:Graph</a></text>
<polyline fill="none" stroke="black" points="510,-351.3 734,-351.3 "/>
<text text-anchor="start" x="518" y="-335.6" font-family="Times,serif" font-size="14.00"><a xlink:href='http://eatld.et.tu-dresden.de/rmo#hasRevisionGraph'>rmo:hasRevisionGraph</a> = <a xlink:href='http://www.w3.org/2001/XMLSchema#anyURI'>xsd:anyURI</a></text>
</g>
<!-- rmo_Graph&#45;&gt;rmo_Entity -->
<g id="edge7" class="edge"><title>rmo_Graph&#45;&gt;rmo_Entity</title>
<path fill="none" stroke="black" d="M570.55,-327.79C528.78,-309.92 470.21,-284.85 428.65,-267.07"/>
<polygon fill="none" stroke="black" points="429.841,-263.773 419.27,-263.06 427.089,-270.209 429.841,-263.773"/>
</g>
<!-- rmo_InitialCommit -->
<g id="node11" class="node"><title>rmo_InitialCommit</title>
<polygon fill="none" stroke="black" points="1217,-454.3 1217,-503.3 1347,-503.3 1347,-454.3 1217,-454.3"/>
<text text-anchor="start" x="1225" y="-489.1" font-family="Times,serif" font-weight="bold" font-size="14.00"><a xlink:href='http://eatld.et.tu-dresden.de/rmo#InitialCommit'>rmo:InitialCommit</a></text>
<polyline fill="none" stroke="black" points="1217,-480.3 1347,-480.3 "/>
</g>
<!-- rmo_InitialCommit&#45;&gt;rmo_Commit -->
<g id="edge8" class="edge"><title>rmo_InitialCommit&#45;&gt;rmo_Commit</title>
<path fill="none" stroke="black" d="M1248.8,-454.86C1236.4,-447.04 1222,-438.78 1208,-432.8 1150,-407.98 1082.5,-388.97 1026.1,-375.63"/>
<polygon fill="none" stroke="black" points="1026.63,-372.161 1016.1,-373.29 1025.04,-378.976 1026.63,-372.161"/>
</g>
<!-- rmo_Master -->
<g id="node12" class="node"><title>rmo_Master</title>
<polygon fill="none" stroke="black" points="16,-582.3 16,-631.3 104,-631.3 104,-582.3 16,-582.3"/>
<text text-anchor="start" x="24" y="-617.1" font-family="Times,serif" font-weight="bold" font-size="14.00"><a xlink:href='http://eatld.et.tu-dresden.de/rmo#Master'>rmo:Master</a></text>
<polyline fill="none" stroke="black" points="16,-608.3 104,-608.3 "/>
</g>
<!-- rmo_Master&#45;&gt;rmo_Branch -->
<g id="edge9" class="edge"><title>rmo_Master&#45;&gt;rmo_Branch</title>
<path fill="none" stroke="black" d="M60,-582.69C60,-563.15 60,-534.92 60,-512.97"/>
<polygon fill="none" stroke="black" points="63.5001,-512.76 60,-502.76 56.5001,-512.76 63.5001,-512.76"/>
</g>
<!-- rmo_PickCommit -->
<g id="node13" class="node"><title>rmo_PickCommit</title>
<polygon fill="none" stroke="black" points="785.5,-432.8 785.5,-524.8 1028.5,-524.8 1028.5,-432.8 785.5,-432.8"/>
<text text-anchor="start" x="855" y="-510.6" font-family="Times,serif" font-weight="bold" font-size="14.00"><a xlink:href='http://eatld.et.tu-dresden.de/rmo#PickCommit'>rmo:PickCommit</a></text>
<polyline fill="none" stroke="black" points="785.5,-501.8 1028.5,-501.8 "/>
<text text-anchor="start" x="793.5" y="-486.1" font-family="Times,serif" font-size="14.00"><a xlink:href='http://eatld.et.tu-dresden.de/rmo#usedSourceBranch'>rmo:usedSourceBranch</a> = <a xlink:href='http://eatld.et.tu-dresden.de/rmo#Branch'>rmo:Branch</a></text>
<text text-anchor="start" x="793.5" y="-471.1" font-family="Times,serif" font-size="14.00"><a xlink:href='http://eatld.et.tu-dresden.de/rmo#usedSourceRevision'>rmo:usedSourceRevision</a> = <a xlink:href='http://eatld.et.tu-dresden.de/rmo#Revision'>rmo:Revision</a></text>
<text text-anchor="start" x="793.5" y="-456.1" font-family="Times,serif" font-size="14.00"><a xlink:href='http://eatld.et.tu-dresden.de/rmo#usedTargetBranch'>rmo:usedTargetBranch</a> = <a xlink:href='http://eatld.et.tu-dresden.de/rmo#Branch'>rmo:Branch</a></text>
<text text-anchor="start" x="793.5" y="-441.1" font-family="Times,serif" font-size="14.00"><a xlink:href='http://eatld.et.tu-dresden.de/rmo#usedTargetRevision'>rmo:usedTargetRevision</a> = <a xlink:href='http://eatld.et.tu-dresden.de/rmo#Revision'>rmo:Revision</a></text>
</g>
<!-- rmo_PickCommit&#45;&gt;rmo_Commit -->
<g id="edge10" class="edge"><title>rmo_PickCommit&#45;&gt;rmo_Commit</title>
<path fill="none" stroke="black" d="M907,-433.02C907,-424.48 907,-415.45 907,-406.64"/>
<polygon fill="none" stroke="black" points="910.5,-406.43 907,-396.43 903.5,-406.43 910.5,-406.43"/>
</g>
<!-- rmo_RevertCommit -->
<g id="node14" class="node"><title>rmo_RevertCommit</title>
<polygon fill="none" stroke="black" points="633,-454.3 633,-503.3 767,-503.3 767,-454.3 633,-454.3"/>
<text text-anchor="start" x="641" y="-489.1" font-family="Times,serif" font-weight="bold" font-size="14.00"><a xlink:href='http://eatld.et.tu-dresden.de/rmo#RevertCommit'>rmo:RevertCommit</a></text>
<polyline fill="none" stroke="black" points="633,-480.3 767,-480.3 "/>
</g>
<!-- rmo_RevertCommit&#45;&gt;rmo_Commit -->
<g id="edge11" class="edge"><title>rmo_RevertCommit&#45;&gt;rmo_Commit</title>
<path fill="none" stroke="black" d="M737.97,-454.69C762.29,-439.88 794.83,-420.08 824.85,-401.8"/>
<polygon fill="none" stroke="black" points="826.936,-404.628 833.66,-396.44 823.298,-398.648 826.936,-404.628"/>
</g>
<!-- rmo_Revision -->
<g id="node15" class="node"><title>rmo_Revision</title>
<polygon fill="none" stroke="black" points="264.5,-304.8 264.5,-396.8 491.5,-396.8 491.5,-304.8 264.5,-304.8"/>
<text text-anchor="start" x="338.5" y="-382.6" font-family="Times,serif" font-weight="bold" font-size="14.00"><a xlink:href='http://eatld.et.tu-dresden.de/rmo#Revision'>rmo:Revision</a></text>
<polyline fill="none" stroke="black" points="264.5,-373.8 491.5,-373.8 "/>
<text text-anchor="start" x="272.5" y="-358.1" font-family="Times,serif" font-size="14.00"><a xlink:href='http://eatld.et.tu-dresden.de/rmo#hasChangeSet'>rmo:hasChangeSet</a> = <a xlink:href='http://eatld.et.tu-dresden.de/rmo#ChangeSet'>rmo:ChangeSet</a></text>
<text text-anchor="start" x="272.5" y="-343.1" font-family="Times,serif" font-size="14.00"><a xlink:href='http://eatld.et.tu-dresden.de/rmo#revisionIdentifier'>rmo:revisionIdentifier</a> = <a xlink:href='http://www.w3.org/2001/XMLSchema#string'>xsd:string</a></text>
<text text-anchor="start" x="272.5" y="-328.1" font-family="Times,serif" font-size="14.00"><a xlink:href='http://eatld.et.tu-dresden.de/rmo#wasDerivedFrom'>rmo:wasDerivedFrom</a> = <a xlink:href='http://eatld.et.tu-dresden.de/rmo#Revision'>rmo:Revision</a></text>
<text text-anchor="start" x="272.5" y="-313.1" font-family="Times,serif" font-size="14.00"><a xlink:href='http://eatld.et.tu-dresden.de/rmo#wasQuotedFrom'>rmo:wasQuotedFrom</a> = <a xlink:href='http://eatld.et.tu-dresden.de/rmo#Revision'>rmo:Revision</a></text>
</g>
<!-- rmo_Revision&#45;&gt;rmo_Entity -->
<g id="edge12" class="edge"><title>rmo_Revision&#45;&gt;rmo_Entity</title>
<path fill="none" stroke="black" d="M378,-305.22C378,-296.34 378,-287.15 378,-278.72"/>
<polygon fill="none" stroke="black" points="381.5,-278.54 378,-268.54 374.5,-278.54 381.5,-278.54"/>
</g>
<!-- rmo_RevisionCommit -->
<g id="node16" class="node"><title>rmo_RevisionCommit</title>
<polygon fill="none" stroke="black" points="471,-454.3 471,-503.3 615,-503.3 615,-454.3 471,-454.3"/>
<text text-anchor="start" x="479" y="-489.1" font-family="Times,serif" font-weight="bold" font-size="14.00"><a xlink:href='http://eatld.et.tu-dresden.de/rmo#RevisionCommit'>rmo:RevisionCommit</a></text>
<polyline fill="none" stroke="black" points="471,-480.3 615,-480.3 "/>
</g>
<!-- rmo_RevisionCommit&#45;&gt;rmo_Commit -->
<g id="edge13" class="edge"><title>rmo_RevisionCommit&#45;&gt;rmo_Commit</title>
<path fill="none" stroke="black" d="M580.02,-454.9C593.53,-447.17 609.14,-438.96 624,-432.8 639.95,-426.19 717.93,-403.98 788,-384.49"/>
<polygon fill="none" stroke="black" points="789.131,-387.808 797.83,-381.76 787.258,-381.064 789.131,-387.808"/>
</g>
<!-- rmo_Tag -->
<g id="node17" class="node"><title>rmo_Tag</title>
<polygon fill="none" stroke="black" points="123,-454.3 123,-503.3 191,-503.3 191,-454.3 123,-454.3"/>
<text text-anchor="start" x="131" y="-489.1" font-family="Times,serif" font-weight="bold" font-size="14.00"><a xlink:href='http://eatld.et.tu-dresden.de/rmo#Tag'>rmo:Tag</a></text>
<polyline fill="none" stroke="black" points="123,-480.3 191,-480.3 "/>
</g>
<!-- rmo_Tag&#45;&gt;rmo_Reference -->
<g id="edge14" class="edge"><title>rmo_Tag&#45;&gt;rmo_Reference</title>
<path fill="none" stroke="black" d="M153.88,-454.69C151.79,-439.15 148.95,-418.12 146.38,-399.11"/>
<polygon fill="none" stroke="black" points="149.836,-398.552 145.03,-389.11 142.899,-399.488 149.836,-398.552"/>
</g>
<!-- rmo_TagCommit -->
<g id="node18" class="node"><title>rmo_TagCommit</title>
<polygon fill="none" stroke="black" points="758.5,-582.3 758.5,-631.3 875.5,-631.3 875.5,-582.3 758.5,-582.3"/>
<text text-anchor="start" x="766.5" y="-617.1" font-family="Times,serif" font-weight="bold" font-size="14.00"><a xlink:href='http://eatld.et.tu-dresden.de/rmo#TagCommit'>rmo:TagCommit</a></text>
<polyline fill="none" stroke="black" points="758.5,-608.3 875.5,-608.3 "/>
</g>
<!-- rmo_TagCommit&#45;&gt;rmo_ReferenceCommit -->
<g id="edge15" class="edge"><title>rmo_TagCommit&#45;&gt;rmo_ReferenceCommit</title>
<path fill="none" stroke="black" d="M846.34,-582.74C857.6,-574.82 870.9,-566.51 884,-560.8 948.03,-532.87 971.54,-549.19 1037,-524.8 1049.7,-520.07 1062.9,-513.86 1075.1,-507.58"/>
<polygon fill="none" stroke="black" points="1076.92,-510.574 1084.1,-502.78 1073.63,-504.398 1076.92,-510.574"/>
</g>
<!-- rmo_ThreeWayMergeCommit -->
<g id="node19" class="node"><title>rmo_ThreeWayMergeCommit</title>
<polygon fill="none" stroke="black" points="177.5,-582.3 177.5,-631.3 372.5,-631.3 372.5,-582.3 177.5,-582.3"/>
<text text-anchor="start" x="185.5" y="-617.1" font-family="Times,serif" font-weight="bold" font-size="14.00"><a xlink:href='http://eatld.et.tu-dresden.de/rmo#ThreeWayMergeCommit'>rmo:ThreeWayMergeCommit</a></text>
<polyline fill="none" stroke="black" points="177.5,-608.3 372.5,-608.3 "/>
</g>
<!-- rmo_ThreeWayMergeCommit&#45;&gt;rmo_MergeCommit -->
<g id="edge16" class="edge"><title>rmo_ThreeWayMergeCommit&#45;&gt;rmo_MergeCommit</title>
<path fill="none" stroke="black" d="M285.27,-582.69C291.37,-568.96 299.38,-550.94 306.99,-533.83"/>
<polygon fill="none" stroke="black" points="310.3,-535 311.16,-524.44 303.903,-532.159 310.3,-535"/>
</g>
<!-- rmo_User -->
<g id="node20" class="node"><title>rmo_User</title>
<polygon fill="none" stroke="black" points="1273.5,-582.3 1273.5,-631.3 1346.5,-631.3 1346.5,-582.3 1273.5,-582.3"/>
<text text-anchor="start" x="1281.5" y="-617.1" font-family="Times,serif" font-weight="bold" font-size="14.00"><a xlink:href='http://eatld.et.tu-dresden.de/rmo#User'>rmo:User</a></text>
<polyline fill="none" stroke="black" points="1273.5,-608.3 1346.5,-608.3 "/>
</g>
<!-- prov_Person -->
<g id="node24" class="node"><title>prov_Person</title>
<polygon fill="none" stroke="black" points="1487,-460.3 1487,-497.3 1569,-497.3 1569,-460.3 1487,-460.3"/>
<text text-anchor="middle" x="1528" y="-475.1" font-family="Times,serif" font-size="14.00"><a xlink:href='http://www.w3.org/ns/prov#Person'>prov:Person</a></text>
</g>
<!-- rmo_User&#45;&gt;prov_Person -->
<g id="edge20" class="edge"><title>rmo_User&#45;&gt;prov_Person</title>
<path fill="none" stroke="black" d="M1346.7,-591.67C1381.8,-577.33 1435.7,-553.22 1478,-524.8 1487,-518.75 1496.1,-511.15 1504,-503.94"/>
<polygon fill="none" stroke="black" points="1506.55,-506.342 1511.4,-496.92 1501.74,-501.263 1506.55,-506.342"/>
</g>
</g>
</svg>
